<svg width="20" height="16" viewBox="0 0 20 16" fill="none" xmlns="http://www.w3.org/2000/svg">
<path d="M17.4512 0.201172H2.79883C2.1543 0.201172 1.61003 0.423177 1.16602 0.867188C0.722005 1.3112 0.5 1.85547 0.5 2.5V13.5C0.5 14.1445 0.722005 14.6888 1.16602 15.1328C1.61003 15.5768 2.1543 15.7988 2.79883 15.7988H17.4512C18.0957 15.7988 18.64 15.5768 19.084 15.1328C19.528 14.6888 19.75 14.1445 19.75 13.5V2.5C19.75 1.85547 19.528 1.3112 19.084 0.867188C18.64 0.423177 18.0957 0.201172 17.4512 0.201172ZM2.79883 1.125H17.4512C17.7806 1.125 18.0814 1.23242 18.3535 1.44727C18.6257 1.66211 18.7832 1.94857 18.8262 2.30664L10.125 8.36523L1.42383 2.30664C1.4668 1.94857 1.62435 1.66211 1.89648 1.44727C2.16862 1.23242 2.4694 1.125 2.79883 1.125ZM17.4512 14.875H2.79883C2.42643 14.875 2.10417 14.7389 1.83203 14.4668C1.5599 14.1947 1.42383 13.8724 1.42383 13.5V3.42383L9.8457 9.28906C9.88867 9.33203 9.93522 9.3571 9.98535 9.36426C10.0355 9.37142 10.082 9.375 10.125 9.375C10.168 9.375 10.2145 9.37142 10.2646 9.36426C10.3148 9.3571 10.3613 9.33203 10.4043 9.28906L18.8262 3.42383V13.5C18.8262 13.8724 18.6901 14.1947 18.418 14.4668C18.1458 14.7389 17.8236 14.875 17.4512 14.875Z" fill="#1E1E1E"/>
</svg>
