<svg width="22" height="18" viewBox="0 0 22 18" fill="none" xmlns="http://www.w3.org/2000/svg">
<path d="M21.5393 0.835938C21.5393 0.75 21.5322 0.664062 21.5179 0.578125C21.5035 0.492188 21.4462 0.427734 21.346 0.384766C21.26 0.341797 21.1705 0.320312 21.0774 0.320312C20.9843 0.320312 20.8948 0.341797 20.8089 0.384766C20.4365 0.6569 20.0426 0.893229 19.6272 1.09375C19.2119 1.29427 18.775 1.48763 18.3167 1.67383C18.0445 1.38737 17.7294 1.1403 17.3714 0.932617C17.0133 0.724936 16.6266 0.570963 16.2112 0.470703C15.7529 0.384766 15.2945 0.348959 14.8362 0.363281C14.3779 0.377604 13.9195 0.477865 13.4612 0.664062C13.0029 0.85026 12.5947 1.08301 12.2366 1.3623C11.8785 1.6416 11.5849 1.98893 11.3557 2.4043C11.0836 2.76237 10.8795 3.16699 10.7434 3.61816C10.6074 4.06934 10.5393 4.55273 10.5393 5.06836V5.32617C9.85184 5.32617 9.1715 5.24023 8.49833 5.06836C7.82515 4.89648 7.18778 4.64583 6.58622 4.31641C5.89872 4.0013 5.26135 3.59668 4.67411 3.10254C4.08687 2.6084 3.56408 2.03906 3.10575 1.39453C3.06278 1.35156 3.00191 1.30859 2.92313 1.26562C2.84435 1.22266 2.78348 1.20117 2.74051 1.20117C2.65458 1.20117 2.58296 1.22624 2.52567 1.27637C2.46838 1.3265 2.41825 1.39453 2.37528 1.48047C2.37528 1.52344 2.22489 2.00684 1.92411 2.93066C1.62333 3.85449 1.50158 4.96094 1.55887 6.25C1.5732 6.82292 1.65913 7.43164 1.81669 8.07617C1.97424 8.7207 2.23563 9.36882 2.60086 10.0205C2.9661 10.6722 3.45666 11.2988 4.07254 11.9004C4.68843 12.5163 5.46903 13.0749 6.41434 13.5762C5.58361 14.0345 4.7135 14.3747 3.80399 14.5967C2.89448 14.8187 1.95991 14.9082 1.00028 14.8652C0.914342 14.8652 0.828404 14.8939 0.742467 14.9512C0.656529 15.0085 0.592076 15.1016 0.549107 15.2305C0.491815 15.3737 0.484654 15.4919 0.527623 15.585C0.570592 15.6781 0.635045 15.7461 0.720982 15.7891C1.27958 16.0898 1.83817 16.3477 2.39676 16.5625C2.96968 16.7917 3.54618 16.985 4.12626 17.1426C4.70633 17.3001 5.28999 17.4219 5.87723 17.5078C6.45015 17.5794 7.02307 17.6152 7.59598 17.6152C8.69885 17.6152 9.77307 17.4792 10.8186 17.207C11.8642 16.9349 12.8668 16.5195 13.8265 15.9609C14.7718 15.4167 15.6097 14.7578 16.3401 13.9844C17.0706 13.2253 17.6829 12.373 18.177 11.4277C18.6712 10.4824 19.0472 9.45833 19.305 8.35547C19.5628 7.2526 19.6917 6.09245 19.6917 4.875C19.6917 4.78906 19.6917 4.69596 19.6917 4.5957C19.6917 4.49544 19.6917 4.3737 19.6917 4.23047C20.107 3.77214 20.4723 3.25293 20.7874 2.67285C21.1025 2.09277 21.3531 1.48047 21.5393 0.835938ZM18.7893 4.875C18.7893 5.99219 18.6676 7.06641 18.4241 8.09766C18.1663 9.11458 17.8082 10.0635 17.3499 10.9443C16.8916 11.8252 16.3258 12.6309 15.6526 13.3613C14.9794 14.0775 14.2203 14.7005 13.3753 15.2305C12.6018 15.6888 11.7783 16.0469 10.9046 16.3047C10.0452 16.5482 9.16434 16.6986 8.262 16.7559C7.35965 16.8132 6.44299 16.763 5.512 16.6055C4.58101 16.4622 3.65718 16.2188 2.74051 15.875C3.61421 15.7891 4.45926 15.5885 5.27567 15.2734C6.09208 14.9583 6.86551 14.5501 7.59598 14.0488C7.69624 13.9915 7.75353 13.9235 7.76786 13.8447C7.78218 13.766 7.78934 13.6764 7.78934 13.5762C7.78934 13.4902 7.76428 13.4186 7.71415 13.3613C7.66402 13.304 7.59598 13.2539 7.51004 13.2109C5.90588 12.5091 4.7314 11.6569 3.98661 10.6543C3.24182 9.65169 2.75842 8.64551 2.53641 7.63574C2.31441 6.62598 2.27502 5.66992 2.41825 4.76758C2.5758 3.87956 2.74767 3.1849 2.93387 2.68359C3.39221 3.22786 3.89351 3.71126 4.43778 4.13379C4.98205 4.55632 5.57645 4.92513 6.22098 5.24023C6.90848 5.61263 7.6676 5.88477 8.49833 6.05664C9.32905 6.22852 10.1598 6.29297 10.9905 6.25C11.1337 6.25 11.2447 6.20703 11.3235 6.12109C11.4023 6.03516 11.4417 5.92773 11.4417 5.79883V4.875C11.4417 4.5026 11.4918 4.13737 11.5921 3.7793C11.6923 3.42122 11.857 3.08464 12.0862 2.76953C12.3154 2.4401 12.5732 2.16081 12.8597 1.93164C13.1461 1.70247 13.4684 1.52344 13.8265 1.39453C14.1988 1.2513 14.5677 1.17611 14.9329 1.16895C15.2981 1.16178 15.6669 1.20833 16.0393 1.30859C16.3974 1.39453 16.734 1.5306 17.0491 1.7168C17.3642 1.903 17.6363 2.13216 17.8655 2.4043C17.9085 2.49023 17.9729 2.55469 18.0589 2.59766C18.1448 2.64062 18.2307 2.63346 18.3167 2.57617C18.6461 2.49023 18.972 2.37923 19.2942 2.24316C19.6165 2.1071 19.9352 1.94596 20.2503 1.75977C20.0641 2.13216 19.8564 2.47949 19.6272 2.80176C19.3981 3.12402 19.1474 3.44987 18.8753 3.7793C18.8323 3.82227 18.7929 3.88672 18.7571 3.97266C18.7213 4.05859 18.732 4.14453 18.7893 4.23047C18.7893 4.33073 18.7893 4.44173 18.7893 4.56348C18.7893 4.68522 18.7893 4.78906 18.7893 4.875Z" fill="#1E1E1E"/>
</svg>
