<svg width="50" height="50" viewBox="0 0 50 50" fill="none" xmlns="http://www.w3.org/2000/svg">
<g id="arrow-right.svg" clip-path="url(#clip0_4_6757)">
<path id="Vector" d="M25 0C11.1929 0 0 11.1929 0 25C0 38.8071 11.1929 50 25 50C38.8071 50 50 38.8071 50 25C50 11.1929 38.8071 0 25 0Z" fill="#DE0B0B"/>
<path id="Vector_2" d="M17.5333 25.6064L23.5333 31.6064C23.8681 31.9411 24.4108 31.9411 24.7455 31.6064C25.0545 31.2974 25.0783 30.8112 24.8168 30.4749L24.7455 30.3942L20.2086 25.8574H31.8537C32.2933 25.8574 32.6556 25.5265 32.7051 25.1003L32.7109 25.0003C32.7109 24.5607 32.38 24.1984 31.9537 24.1489L31.8537 24.1431H20.2086L24.7455 19.6064C25.0545 19.2974 25.0783 18.8112 24.8168 18.4749L24.7455 18.3942C24.4365 18.0852 23.9503 18.0614 23.6141 18.3229L23.5333 18.3942L17.5333 24.3942L17.4506 24.49L17.3891 24.5854L17.3433 24.682L17.313 24.7723L17.2917 24.873L17.2857 24.9238L17.2824 25.0167L17.2857 25.0768L17.2996 25.1723L17.3249 25.2678L17.3626 25.3631L17.4074 25.4466L17.4647 25.5289C17.486 25.5561 17.5089 25.582 17.5333 25.6064Z" fill="white"/>
</g>
<defs>
<clipPath id="clip0_4_6757">
<rect width="50" height="50" fill="white" transform="matrix(-1 0 0 -1 50 50)"/>
</clipPath>
</defs>
</svg>
