<svg width="81" height="80" viewBox="0 0 81 80" fill="none" xmlns="http://www.w3.org/2000/svg">
<g id="info3.svg" clip-path="url(#clip0_4_6671)">
<path id="Vector" d="M40.8594 80C62.9508 80 80.8594 62.0914 80.8594 40C80.8594 17.9086 62.9508 0 40.8594 0C18.768 0 0.859375 17.9086 0.859375 40C0.859375 62.0914 18.768 80 40.8594 80Z" fill="#DE0B0B"/>
<g id="Clip path group">
<mask id="mask0_4_6671" style="mask-type:luminance" maskUnits="userSpaceOnUse" x="22" y="22" width="37" height="36">
<g id="a">
<path id="Vector_2" d="M58.8594 22H22.8594V58H58.8594V22Z" fill="white"/>
</g>
</mask>
<g mask="url(#mask0_4_6671)">
<g id="Group">
<path id="Vector_3" fill-rule="evenodd" clip-rule="evenodd" d="M52.5253 28.6449C52.8959 28.4889 53.3017 28.4351 53.7002 28.4891C54.0987 28.5431 54.4755 28.703 54.7913 28.952C55.1071 29.201 55.3504 29.5301 55.4958 29.9051C55.6413 30.28 55.6835 30.6871 55.6183 31.0839L52.2163 51.7194C51.8863 53.7099 49.7023 54.8514 47.8768 53.8599C46.3498 53.0304 44.0818 51.7524 42.0418 50.4189C41.0218 49.7514 37.8973 47.6139 38.2813 46.0929C38.6113 44.7924 43.8613 39.9054 46.8613 36.9999C48.0388 35.8584 47.5018 35.1999 46.1113 36.2499C42.6583 38.8569 37.1143 42.8214 35.2813 43.9374C33.6643 44.9214 32.8213 45.0894 31.8133 44.9214C29.9743 44.6154 28.2688 44.1414 26.8768 43.5639C24.9958 42.7839 25.0873 40.1979 26.8753 39.4449L52.5253 28.6449Z" fill="white"/>
</g>
</g>
</g>
</g>
<defs>
<clipPath id="clip0_4_6671">
<rect width="80" height="80" fill="white" transform="translate(0.859375)"/>
</clipPath>
</defs>
</svg>
