<svg width="81" height="80" viewBox="0 0 81 80" fill="none" xmlns="http://www.w3.org/2000/svg">
<g id="info1.svg" clip-path="url(#clip0_4_6647)">
<path id="Vector" d="M40.4531 80C62.5445 80 80.4531 62.0914 80.4531 40C80.4531 17.9086 62.5445 0 40.4531 0C18.3617 0 0.453125 17.9086 0.453125 40C0.453125 62.0914 18.3617 80 40.4531 80Z" fill="#DE0B0B"/>
<path id="Vector_2" d="M40.4531 27.625C38.9613 27.625 37.5305 28.2176 36.4756 29.2725C35.4207 30.3274 34.8281 31.7582 34.8281 33.25C34.8281 34.7418 35.4207 36.1726 36.4756 37.2275C37.5305 38.2824 38.9613 38.875 40.4531 38.875C41.9449 38.875 43.3757 38.2824 44.4306 37.2275C45.4855 36.1726 46.0781 34.7418 46.0781 33.25C46.0781 31.7582 45.4855 30.3274 44.4306 29.2725C43.3757 28.2176 41.9449 27.625 40.4531 27.625ZM34.4531 41.875C32.9613 41.875 31.5305 42.4676 30.4756 43.5225C29.4207 44.5774 28.8281 46.0082 28.8281 47.5V49.282C28.8281 50.413 29.6471 51.376 30.7631 51.5575C37.1801 52.606 43.7261 52.606 50.1431 51.5575C50.6832 51.4696 51.1744 51.1924 51.5289 50.7755C51.8834 50.3586 52.0781 49.8292 52.0781 49.282V47.5C52.0781 46.0082 51.4855 44.5774 50.4306 43.5225C49.3757 42.4676 47.9449 41.875 46.4531 41.875H45.9431C45.6656 41.875 45.3896 41.92 45.1271 42.004L43.8281 42.4285C41.635 43.1443 39.2712 43.1443 37.0781 42.4285L35.7791 42.004C35.5161 41.9184 35.2412 41.8749 34.9646 41.875H34.4531Z" fill="white"/>
</g>
<defs>
<clipPath id="clip0_4_6647">
<rect width="80" height="80" fill="white" transform="translate(0.453125)"/>
</clipPath>
</defs>
</svg>
