<svg width="72" height="31" viewBox="0 0 72 31" fill="none" xmlns="http://www.w3.org/2000/svg">
<g id="logo">
<path id="Vector" d="M68.2897 30.2571C67.2761 30.2571 66.3966 29.8994 65.6514 29.1839C64.9359 28.4386 64.5781 27.5592 64.5781 26.5456C64.5781 25.532 64.9359 24.6674 65.6514 23.9519C66.3966 23.2066 67.2761 22.834 68.2897 22.834C69.3331 22.834 70.2126 23.2066 70.928 23.9519C71.6435 24.6674 72.0013 25.532 72.0013 26.5456C72.0013 27.5592 71.6435 28.4386 70.928 29.1839C70.2126 29.8994 69.3331 30.2571 68.2897 30.2571Z" fill="#1E1E1E"/>
<path id="Vector_2" d="M34.1875 29.7204V28.6472L38.8381 27.9317H42.7733L42.9522 29.7204H34.1875ZM36.7811 29.7204C36.8408 28.5577 36.8855 27.2013 36.9153 25.6511C36.9749 24.071 37.0047 22.4463 37.0047 20.7768C37.0345 19.0776 37.0494 17.4677 37.0494 15.9473V14.0245C37.0494 12.5041 37.0345 10.939 37.0047 9.32912C37.0047 7.68947 36.9749 6.10944 36.9153 4.58904C36.8855 3.06864 36.8408 1.72711 36.7811 0.564453H44.8303C44.7707 1.72711 44.7111 3.06864 44.6514 4.58904C44.6216 6.10944 44.5918 7.68947 44.562 9.32912C44.562 10.939 44.562 12.5041 44.562 14.0245V15.9473C44.562 17.4677 44.562 19.0776 44.562 20.7768C44.5918 22.4463 44.6216 24.071 44.6514 25.6511C44.6812 27.2013 44.726 28.5577 44.7856 29.7204H36.7811ZM40.5821 29.7204V28.4683H45.3222C46.3656 28.4683 47.2451 28.1404 47.9605 27.4845C48.7058 26.8286 49.2574 25.9343 49.6151 24.8014C50.0027 23.6686 50.1964 22.4016 50.1964 21.0004C50.1964 19.5397 49.9877 18.3323 49.5704 17.3783C49.1828 16.4243 48.6313 15.7088 47.9158 15.2319C47.2003 14.7549 46.3805 14.5164 45.4564 14.5164C44.562 14.5164 43.7124 14.5909 42.9074 14.74C42.1323 14.889 41.3572 15.053 40.5821 15.2319V13.9798C41.3274 13.8009 42.2367 13.6071 43.3099 13.3984C44.4129 13.1897 45.665 13.0854 47.0662 13.0854C49.5108 13.0854 51.5081 13.3984 53.0584 14.0245C54.6384 14.6505 55.801 15.5598 56.5463 16.7523C57.3214 17.9149 57.709 19.3161 57.709 20.9557C57.709 22.1482 57.5003 23.281 57.083 24.3543C56.6954 25.3977 56.0395 26.3218 55.1154 27.1268C54.1912 27.9317 52.9391 28.5726 51.3591 29.0496C49.7791 29.4968 47.8264 29.7204 45.5011 29.7204H40.5821ZM34.1875 1.63768V0.564453H42.7733V2.35316H38.8381L34.1875 1.63768ZM54.3105 8.43476L50.5989 1.10106L52.164 1.81655H40.8057V0.564453H54.8471L55.3837 8.43476H54.3105Z" fill="#1E1E1E"/>
<path id="Vector_3" d="M0 26.9032C0.178871 26.0386 0.566424 25.3679 1.16266 24.8909C1.78871 24.3841 2.56381 24.1307 3.48798 24.1307C4.14384 24.1307 4.75498 24.3244 5.3214 24.712C5.91764 25.0996 6.40953 25.666 6.79709 26.4113V26.9479H6.26048V26.456C6.37972 26.2175 6.48406 25.979 6.5735 25.7405C6.69275 25.502 6.81199 25.2635 6.93124 25.025C7.05049 24.7567 7.15483 24.4884 7.24426 24.2201C7.8405 22.6699 8.31749 20.9855 8.67523 19.167C9.06278 17.3485 9.39071 15.4405 9.65902 13.4431C9.92733 11.4159 10.1509 9.32912 10.3298 7.18267C10.5385 5.00641 10.7322 2.80034 10.9111 0.564453H12.3421C12.193 2.74071 12.0142 4.96169 11.8055 7.22739C11.5968 9.46327 11.3583 11.6544 11.09 13.8009C10.8217 15.9175 10.4788 17.9298 10.0615 19.8378C9.67393 21.7159 9.19694 23.4152 8.63051 24.9356C8.21315 26.0386 7.78088 27.0075 7.3337 27.8422C6.91634 28.677 6.40953 29.3179 5.8133 29.7651C5.21706 30.2123 4.48667 30.4359 3.62213 30.4359C2.5191 30.4359 1.63965 30.093 0.983789 29.4074C0.32793 28.6919 0 27.8571 0 26.9032ZM17.0822 29.7204C17.1418 28.5577 17.1865 27.2013 17.2163 25.6511C17.2759 24.0711 17.3057 22.4463 17.3057 20.7768C17.3356 19.0776 17.3505 17.4677 17.3505 15.9473V14.0245C17.3505 12.5041 17.3356 10.939 17.3057 9.32912C17.3057 7.68947 17.2759 6.10944 17.2163 4.58904C17.1865 3.06864 17.1418 1.72711 17.0822 0.564453H25.1313C25.0717 1.72711 25.0121 3.06864 24.9525 4.58904C24.9227 6.10944 24.8928 7.68947 24.863 9.32912C24.863 10.939 24.863 12.5041 24.863 14.0245V15.9473C24.863 17.4677 24.863 19.0776 24.863 20.7768C24.8928 22.4463 24.9227 24.0711 24.9525 25.6511C24.9823 27.2013 25.027 28.5577 25.0866 29.7204H17.0822ZM14.4885 29.7204V28.6472L19.1392 27.9317H23.0743L27.725 28.6472V29.7204H14.4885ZM7.3337 1.63768V0.564453H12.1632V2.35316H11.9843L7.3337 1.63768ZM19.1392 2.35316L18.9603 0.564453H27.725V1.63768L23.0743 2.35316H19.1392ZM11.6266 1.81655V0.564453H18.7814V1.81655H11.6266Z" fill="#1E1E1E"/>
</g>
</svg>
