<svg width="116" height="73" viewBox="0 0 116 73" fill="none" xmlns="http://www.w3.org/2000/svg">
<rect x="109" y="35" width="7" height="7" rx="3.5" fill="#40B4FF"/>
<rect y="38" width="10" height="10" rx="5" fill="#40B4FF"/>
<rect x="15" y="49" width="6" height="6" rx="3" fill="#40B4FF"/>
<path d="M29.275 64.6654C29.1024 64.6654 28.9874 64.6654 28.8148 64.5504C28.4121 64.378 28.1245 63.9756 28.1245 63.5158V55.2961H24.5004C20.8763 55.2961 18 52.3646 18 48.8008V6.49528C18 2.9315 20.9338 0 24.5004 0H69.658C73.2821 0 76.1584 2.9315 76.1584 6.49528V48.8008C76.1584 52.3646 73.2246 55.2961 69.658 55.2961H39.1119L30.0804 64.3205C29.9078 64.5504 29.5626 64.6654 29.275 64.6654ZM24.5004 2.29921C22.1994 2.29921 20.301 4.19606 20.301 6.49528V48.8008C20.301 51.1 22.1994 52.9969 24.5004 52.9969H29.275C29.9078 52.9969 30.4255 53.5142 30.4255 54.1465V60.6992L37.8463 53.3417C38.0764 53.1118 38.3641 52.9969 38.6517 52.9969H69.7155C72.0166 52.9969 73.9149 51.1 73.9149 48.8008V6.49528C73.9149 4.19606 72.0166 2.29921 69.7155 2.29921H24.5004Z" fill="#353B63"/>
<path d="M81.1056 73.0001C80.818 73.0001 80.5304 72.8851 80.3003 72.6552L72.5343 64.8954H46.0725C42.8511 64.8954 40.2625 62.3087 40.2625 59.0898V54.1465C40.2625 53.5143 40.7802 52.9969 41.413 52.9969H69.658C71.9591 52.9969 73.8574 51.1001 73.8574 48.8009V16.152C73.8574 15.5198 74.3751 15.0024 75.0079 15.0024H85.19C88.4114 15.0024 91 17.5891 91 20.808V59.0898C91 62.3087 88.4114 64.8954 85.19 64.8954H82.1986V71.8505C82.1986 72.3103 81.911 72.7127 81.5083 72.8851C81.3933 73.0001 81.2782 73.0001 81.1056 73.0001ZM42.5635 55.2961V59.0898C42.5635 61.0442 44.1167 62.5961 46.0725 62.5961H72.9945C73.2822 62.5961 73.5698 62.7111 73.7999 62.941L79.9551 69.0914V63.7458C79.9551 63.1135 80.4729 62.5961 81.1056 62.5961H85.2475C87.2034 62.5961 88.7565 61.0442 88.7565 59.0898V20.808C88.7565 18.8536 87.2034 17.3017 85.2475 17.3017H76.216V48.8009C76.216 52.3646 73.2822 55.2961 69.7156 55.2961H42.5635Z" fill="#353B63"/>
<path d="M39.2311 35.1324H33.4321C33.1829 35.1324 33.0017 34.9421 33.0017 34.7306V22.8029C32.9791 22.5702 33.1829 22.3799 33.4321 22.3799H39.2311C39.4803 22.3799 39.6615 22.5702 39.6615 22.7817V34.7094C39.6615 34.9632 39.4576 35.1324 39.2311 35.1324ZM33.8625 34.3076H38.7781V23.2047H33.8625V34.3076Z" fill="#353B63"/>
<path d="M42.3798 34.2869C42.2665 34.2869 42.1533 34.2446 42.0627 34.16C41.9721 34.0754 41.9268 33.9697 41.9268 33.8639V23.5435C41.9268 23.3532 42.0627 23.2051 42.2439 23.1417C43.7163 22.7187 45.0754 21.8516 46.1627 20.6039C47.0009 19.631 47.4766 18.6159 47.7484 17.199C47.7937 16.9452 47.8164 16.6702 47.839 16.3742C47.9523 15.2744 48.0655 13.8998 49.2435 13.2865C49.923 12.927 50.6253 12.9058 51.1916 13.223C52.0297 13.6883 52.4148 14.7457 52.4148 15.5705C52.4148 16.6491 52.3468 17.7277 52.2789 18.7851C52.2562 18.9754 52.2562 19.1446 52.2336 19.3349H57.8287C59.1199 19.3349 60.1619 20.3078 60.1619 21.5132C60.1619 22.1054 59.9127 22.6341 59.505 23.0148C60.3658 23.332 61 24.1145 61 25.045C61 25.9121 60.4564 26.6523 59.6635 27.0118C60.0939 27.4137 60.3884 27.9635 60.3884 28.5768C60.3884 29.5919 59.6409 30.4379 58.6442 30.6917C59.0066 31.0723 59.2105 31.5799 59.2105 32.1298C59.2105 33.3352 58.1685 34.308 56.8773 34.308H48.428C48.2921 34.308 48.1562 34.2869 48.0429 34.2657C46.4119 34.2657 44.6677 34.2657 42.3798 34.2869ZM48.0655 33.441C48.0882 33.441 48.1108 33.441 48.1562 33.441C48.2468 33.4621 48.3374 33.4621 48.428 33.4621H56.9C57.6928 33.4621 58.3497 32.8488 58.3497 32.1086C58.3497 31.3684 57.6928 30.7551 56.9 30.7551C56.6508 30.7551 56.4696 30.5648 56.4696 30.3533C56.4696 30.1418 56.6734 29.9515 56.9 29.9515H58.0552C58.8481 29.9515 59.505 29.3382 59.505 28.598C59.505 27.8578 58.8481 27.2445 58.0552 27.2445C57.8061 27.2445 57.6248 27.0541 57.6248 26.8426C57.6248 26.6312 57.8287 26.4408 58.0552 26.4408H58.6668C59.4597 26.4408 60.1166 25.8275 60.1166 25.0873C60.1166 24.3471 59.4597 23.7338 58.6668 23.7338H57.8287C57.5795 23.7338 57.3983 23.5435 57.3983 23.332C57.3983 23.0994 57.6022 22.9302 57.8287 22.9302C58.6215 22.9302 59.2785 22.3169 59.2785 21.5767C59.2785 20.8365 58.6215 20.2232 57.8287 20.2232H51.7805C51.6673 20.2232 51.554 20.1809 51.4634 20.0963C51.3728 20.0117 51.3275 19.906 51.3501 19.8002C51.3728 19.483 51.3954 19.1446 51.4181 18.8062C51.486 17.77 51.554 16.6914 51.554 15.6551C51.554 14.9572 51.2142 14.2593 50.7612 14.0267C50.4667 13.8575 50.1043 13.8787 49.6965 14.0901C48.9263 14.492 48.8131 15.5282 48.7225 16.5222C48.6998 16.8394 48.6545 17.1355 48.6092 17.4104C48.3374 18.9543 47.7937 20.1174 46.8423 21.196C45.7324 22.4861 44.3506 23.4166 42.8102 23.903V33.5255C44.9169 33.441 46.5478 33.441 48.0655 33.441Z" fill="#353B63"/>
<path d="M42.3801 35.9997H39.2314C38.9822 35.9997 38.801 35.8094 38.801 35.5979V21.936C38.801 21.7034 39.0049 21.5342 39.2314 21.5342H42.3801C42.6293 21.5342 42.8105 21.7245 42.8105 21.936V35.5767C42.8105 35.8094 42.6293 35.9997 42.3801 35.9997ZM39.6618 35.1749H41.927V22.359H39.6618V35.1749Z" fill="#353B63"/>
<path d="M36.3317 33.2717C35.3803 33.2717 34.6101 32.5526 34.6101 31.6644C34.6101 30.7762 35.3803 30.0571 36.3317 30.0571C37.2831 30.0571 38.0533 30.7762 38.0533 31.6644C38.0533 32.5526 37.2831 33.2717 36.3317 33.2717ZM36.3317 30.4589C35.6295 30.4589 35.0405 30.9877 35.0405 31.6644C35.0405 32.32 35.6068 32.8699 36.3317 32.8699C37.0339 32.8699 37.6229 32.3412 37.6229 31.6644C37.6002 31.0088 37.0339 30.4589 36.3317 30.4589Z" fill="#353B63"/>
<ellipse cx="79.8203" cy="52.1072" rx="19.9528" ry="20.0222" fill="#40B4FF"/>
<path d="M80 73C77.6236 73 75.2471 72.6107 73.0162 71.7833C68.1178 70.0313 64.0439 66.5759 61.5704 62.0012L61.4734 61.8552C59.873 58.8378 59 55.4311 59 51.9757C59 51.5863 59 51.197 59.0485 50.8076V50.6616C59.291 46.7196 60.649 42.9235 62.9769 39.7115L63.0739 39.5655C67.0023 34.2121 73.3557 31 80 31C81.5035 31 83.0554 31.146 84.5589 31.4867H84.6074L84.7044 31.5353L84.5104 32.5087L84.7044 31.584C94.3072 33.774 101 42.1935 101 52.0243C101 63.5585 91.5912 73 80 73ZM80 32.9467C73.9861 32.9467 68.2148 35.8667 64.6744 40.6848L64.5774 40.8308C62.4919 43.7509 61.2309 47.1576 61.037 50.759V50.905C61.037 51.2457 60.9885 51.635 60.9885 51.9757C60.9885 55.0904 61.7644 58.1564 63.2194 60.9305L63.3164 61.0765C65.5958 65.2132 69.2818 68.3766 73.6951 69.9339C75.7321 70.664 77.8661 71.0046 80.0485 71.0046C90.5728 71.0046 99.1085 62.4392 99.1085 51.9757C99.1085 43.0695 93.0462 35.4287 84.3164 33.4334H84.2194C82.7644 33.0927 81.358 32.9467 80 32.9467Z" fill="#353B63"/>
<path d="M80.2573 43.9119C80.0513 43.9119 79.9139 44.0493 79.9139 44.2554V51.6397H73.8347C73.6286 51.6397 73.4912 51.7771 73.4912 51.9832C73.4912 52.1893 73.6286 52.3267 73.8347 52.3267H80.2573C80.4634 52.3267 80.6008 52.1893 80.6008 51.9832V44.2554C80.6008 44.0493 80.4291 43.9119 80.2573 43.9119Z" fill="#353B63"/>
<path d="M80.0209 65.1255C79.7672 65.1255 79.5981 65.2946 79.5981 65.5482V67.5773C79.5981 67.8309 79.7672 68 80.0209 68C80.2745 68 80.4436 67.8309 80.4436 67.5773V65.5482C80.4436 65.3369 80.2322 65.1255 80.0209 65.1255Z" fill="#353B63"/>
<path d="M80.0209 36C79.7672 36 79.5981 36.1691 79.5981 36.4228V38.4518C79.5981 38.7054 79.7672 38.8745 80.0209 38.8745C80.2745 38.8745 80.4436 38.7054 80.4436 38.4518V36.4228C80.4436 36.1691 80.2322 36 80.0209 36Z" fill="#353B63"/>
<path d="M66.4518 51.5559H64.4227C64.1691 51.5559 64 51.725 64 51.9787C64 52.2323 64.1691 52.4014 64.4227 52.4014H66.4518C66.7054 52.4014 66.8745 52.2323 66.8745 51.9787C66.8745 51.7673 66.6631 51.5559 66.4518 51.5559Z" fill="#353B63"/>
<path d="M95.5772 51.5559H93.5482C93.2946 51.5559 93.1255 51.725 93.1255 51.9787C93.1255 52.2323 93.2946 52.4014 93.5482 52.4014H95.5772C95.8309 52.4014 96 52.2323 96 51.9787C96 51.7673 95.8309 51.5559 95.5772 51.5559Z" fill="#353B63"/>
<path d="M70.4254 61.1519C70.2986 61.1519 70.214 61.1942 70.1295 61.2787L68.6922 62.716C68.5232 62.885 68.5232 63.1387 68.6922 63.3078C68.8613 63.4768 69.115 63.4768 69.284 63.3078L70.7213 61.8705C70.8904 61.7014 70.8904 61.4478 70.7213 61.2787C70.6367 61.1942 70.5099 61.1519 70.4254 61.1519Z" fill="#353B63"/>
<path d="M91.0116 40.566C90.8848 40.566 90.8002 40.6082 90.7157 40.6928L89.2784 42.13C89.1093 42.2991 89.1093 42.5527 89.2784 42.7218C89.4475 42.8909 89.7011 42.8909 89.8702 42.7218L91.3075 41.2846C91.4766 41.1155 91.4766 40.8619 91.3075 40.6928C91.2229 40.6082 91.1384 40.566 91.0116 40.566Z" fill="#353B63"/>
<path d="M68.9881 40.566C68.8613 40.566 68.7768 40.6082 68.6922 40.6928C68.5232 40.8619 68.5232 41.1155 68.6922 41.2846L70.1295 42.7218C70.2986 42.8909 70.5522 42.8909 70.7213 42.7218C70.8904 42.5527 70.8904 42.2991 70.7213 42.13L69.284 40.6928C69.1995 40.6082 69.0727 40.566 68.9881 40.566Z" fill="#353B63"/>
<path d="M89.5743 61.1519C89.4475 61.1519 89.363 61.1942 89.2784 61.2787C89.1093 61.4478 89.1093 61.7014 89.2784 61.8705L90.7157 63.3078C90.8848 63.4768 91.1384 63.4768 91.3075 63.3078C91.4766 63.1387 91.4766 62.885 91.3075 62.716L89.8702 61.2787C89.7857 61.1942 89.7011 61.1519 89.5743 61.1519Z" fill="#353B63"/>
</svg>
