<svg width="118" height="118" viewBox="0 0 118 118" fill="none" xmlns="http://www.w3.org/2000/svg">
<path d="M4 31.9721L59 4.47214L114 31.9721V86.0279L59 113.528L4 86.0279V31.9721Z" stroke="#08DDEB" stroke-width="8"/>
<path d="M38.6445 64H43.4873C45.5967 64 47.5391 62.708 47.5391 60.3965C47.5391 59.1572 46.6777 57.8037 45.5439 57.3555C46.2471 56.9775 46.9238 56.0635 46.9238 54.9297C46.9238 52.4424 44.8408 51.5811 42.9512 51.5811H38.6445V64ZM40.877 56.582V53.5938H42.9863C44.0498 53.5938 44.876 54.0859 44.876 55.0527C44.876 56.2744 44.0322 56.582 43.1621 56.582H40.877ZM40.877 61.873V58.5068H43.4346C44.6035 58.5068 45.3418 59.2627 45.3418 60.1504C45.3418 61.3193 44.6738 61.873 43.5225 61.873H40.877Z" fill="#08DDEB"/>
<path d="M49.8418 64H54.6846C56.7939 64 58.7363 62.708 58.7363 60.3965C58.7363 59.1572 57.875 57.8037 56.7412 57.3555C57.4443 56.9775 58.1211 56.0635 58.1211 54.9297C58.1211 52.4424 56.0381 51.5811 54.1484 51.5811H49.8418V64ZM52.0742 56.582V53.5938H54.1836C55.2471 53.5938 56.0732 54.0859 56.0732 55.0527C56.0732 56.2744 55.2295 56.582 54.3594 56.582H52.0742ZM52.0742 61.873V58.5068H54.6318C55.8008 58.5068 56.5391 59.2627 56.5391 60.1504C56.5391 61.3193 55.8711 61.873 54.7197 61.873H52.0742Z" fill="#08DDEB"/>
<path d="M61.0391 64.0176H63.2715V58.6914H64.7656L67.8242 64.0176H70.3818L66.9277 58.4717C68.334 57.9883 69.3535 56.8018 69.3535 55.2373C69.3535 52.9082 67.376 51.5811 65.0557 51.5811H61.0391V64.0176ZM63.2891 56.8721V53.5762H65.0732C66.3477 53.5762 67.1475 54.2441 67.1475 55.2725C67.1475 56.2041 66.4443 56.8193 65.2578 56.8721H63.2891Z" fill="#08DDEB"/>
<path d="M74.6533 64H76.8857V53.5762H80.7705V51.5811H70.7598V53.5762H74.6533V64Z" fill="#08DDEB"/>
</svg>
