<svg width="1366" height="720" viewBox="0 0 1366 720" fill="none" xmlns="http://www.w3.org/2000/svg">
<g filter="url(#filter0_f_646_17)">
<path fill-rule="evenodd" clip-rule="evenodd" d="M518 422.5C518 474.691 591.202 517 681.5 517C771.799 517 845 474.691 845 422.5C845 370.309 771.799 328 681.5 328C591.202 328 518 370.309 518 422.5Z" fill="#08DDEB"/>
</g>
<g opacity="0.45">
<path fill-rule="evenodd" clip-rule="evenodd" d="M772.242 520.066C693.329 523.759 658.079 491.306 668.188 453.273C668.188 453.273 684.52 408.762 652.607 387.727C620.693 366.692 592.008 356.209 518.709 344.421C445.409 332.633 478.198 290.779 524.199 273.781C570.201 256.784 696.551 231.617 798.826 270.867C901.101 310.116 930.835 347.098 924.458 402.029C918.08 456.96 851.156 516.372 772.242 520.066Z" fill="#050D3B"/>
<path fill-rule="evenodd" clip-rule="evenodd" d="M771.847 507.816C692.933 511.51 657.683 479.057 667.792 441.024C667.792 441.024 684.125 396.513 652.211 375.478C620.297 354.442 591.613 343.959 518.313 332.172C445.014 320.384 477.802 278.53 523.804 261.532C569.805 244.534 696.156 219.368 798.431 258.618C900.705 297.867 930.439 334.849 924.062 389.779C917.685 444.71 850.76 504.123 771.847 507.816Z" fill="#000313"/>
</g>
<path d="M654.742 143.713H618.072L600.02 153.209" stroke="url(#paint0_linear_646_17)" stroke-width="4" stroke-linecap="round" stroke-linejoin="round"/>
<path opacity="0.1" d="M1176.5 175L1364 64" stroke="url(#paint1_linear_646_17)" stroke-width="4"/>
<path opacity="0.1" d="M617.889 143.915H729.014L973.002 2M353.002 282.5L618.328 143.217L545.415 101.265L509.125 122.903L316.002 2M467.001 223L648.52 329.298" stroke="url(#paint2_linear_646_17)" stroke-width="4" stroke-linecap="round" stroke-linejoin="round"/>
<mask id="mask0_646_17" style="mask-type:luminance" maskUnits="userSpaceOnUse" x="293" y="257" width="72" height="67">
<path fill-rule="evenodd" clip-rule="evenodd" d="M364.22 257.14H293V323.479H364.22V257.14Z" fill="white"/>
</mask>
<g mask="url(#mask0_646_17)">
<path fill-rule="evenodd" clip-rule="evenodd" d="M293 263.616L299.5 264.5L325.258 257.94C327.102 256.878 330.092 256.873 331.937 257.93L358.5 266L364.22 263.616V303.023H364.215C364.193 303.7 363.736 304.373 362.838 304.891L331.962 322.68C330.118 323.742 327.128 323.746 325.283 322.689L294.385 304.991C293.439 304.449 292.981 303.734 293.004 303.023H293V263.616Z" fill="#40B4FF"/>
<mask id="mask1_646_17" style="mask-type:luminance" maskUnits="userSpaceOnUse" x="293" y="257" width="72" height="67">
<path fill-rule="evenodd" clip-rule="evenodd" d="M293 263.616L299 266.5L325.258 257.94C327.102 256.878 330.092 256.873 331.937 257.93L359 267L364.22 263.616V303.023H364.215C364.193 303.7 363.736 304.373 362.838 304.891L331.962 322.68C330.118 323.742 327.128 323.746 325.283 322.689L294.385 304.991C293.439 304.449 292.981 303.734 293.004 303.023H293V263.616Z" fill="white"/>
</mask>
<g mask="url(#mask1_646_17)">
<path fill-rule="evenodd" clip-rule="evenodd" d="M329.212 280.544V330.121L281.368 305.332L284.59 254.008L329.212 280.544Z" fill="#4281EA"/>
</g>
</g>
<mask id="mask2_646_17" style="mask-type:luminance" maskUnits="userSpaceOnUse" x="293" y="243" width="72" height="42">
<path fill-rule="evenodd" clip-rule="evenodd" d="M364.22 243.16H293V284.073H364.22V243.16Z" fill="white"/>
</mask>
<g mask="url(#mask2_646_17)">
<path fill-rule="evenodd" clip-rule="evenodd" d="M294.385 265.494L325.283 283.193C327.128 284.249 330.118 284.245 331.962 283.183L362.838 265.394C364.681 264.332 364.68 262.615 362.835 261.558L331.937 243.859C330.092 242.802 327.102 242.807 325.258 243.869L294.382 261.657C292.539 262.719 292.54 264.437 294.385 265.494Z" fill="#40D0F2"/>
</g>
<mask id="mask3_646_17" style="mask-type:luminance" maskUnits="userSpaceOnUse" x="341" y="282" width="15" height="24">
<path fill-rule="evenodd" clip-rule="evenodd" d="M354.283 282.81L343.111 289.284C342.444 289.671 341.903 290.608 341.903 291.379V304.28C341.903 305.051 342.444 305.362 343.111 304.975L354.283 298.501C354.95 298.115 355.491 297.177 355.491 296.406L355.491 283.505C355.491 282.959 355.22 282.644 354.824 282.644C354.662 282.644 354.478 282.697 354.283 282.81Z" fill="white"/>
</mask>
<g mask="url(#mask3_646_17)">
<path fill-rule="evenodd" clip-rule="evenodd" d="M345.881 276.322L338.96 288.283L355.902 298.043L362.823 286.082L345.881 276.322Z" fill="#AAB8CC"/>
</g>
<mask id="mask4_646_17" style="mask-type:luminance" maskUnits="userSpaceOnUse" x="341" y="282" width="15" height="24">
<path fill-rule="evenodd" clip-rule="evenodd" d="M354.283 282.81L343.111 289.284C342.444 289.671 341.903 290.608 341.903 291.379V304.28C341.903 305.051 342.444 305.362 343.111 304.975L354.283 298.501C354.95 298.115 355.491 297.177 355.491 296.406L355.491 283.505C355.491 282.959 355.22 282.644 354.824 282.644C354.662 282.644 354.478 282.697 354.283 282.81Z" fill="white"/>
</mask>
<g mask="url(#mask4_646_17)">
<path fill-rule="evenodd" clip-rule="evenodd" d="M338.96 288.283L332.04 300.245L348.981 310.005L355.902 298.043L338.96 288.283Z" fill="white"/>
</g>
<mask id="mask5_646_17" style="mask-type:luminance" maskUnits="userSpaceOnUse" x="303" y="282" width="15" height="23">
<path fill-rule="evenodd" clip-rule="evenodd" d="M305.1 282.55L316.273 289.025C316.94 289.411 317.481 290.349 317.481 291.119V304.021C317.481 304.791 316.94 305.102 316.273 304.716L305.1 298.241C304.433 297.855 303.892 296.917 303.892 296.147L303.892 283.245C303.892 282.7 304.164 282.384 304.559 282.384C304.722 282.384 304.906 282.438 305.1 282.55Z" fill="white"/>
</mask>
<g mask="url(#mask5_646_17)">
<path fill-rule="evenodd" clip-rule="evenodd" d="M313.502 276.062L320.423 288.024L303.482 297.784L296.561 285.822L313.502 276.062Z" fill="#AAB8CC"/>
</g>
<mask id="mask6_646_17" style="mask-type:luminance" maskUnits="userSpaceOnUse" x="303" y="282" width="15" height="23">
<path fill-rule="evenodd" clip-rule="evenodd" d="M305.1 282.55L316.273 289.025C316.94 289.411 317.481 290.349 317.481 291.119V304.021C317.481 304.791 316.94 305.102 316.273 304.716L305.1 298.241C304.433 297.855 303.892 296.917 303.892 296.147L303.892 283.245C303.892 282.7 304.164 282.384 304.559 282.384C304.722 282.384 304.906 282.438 305.1 282.55Z" fill="white"/>
</mask>
<g mask="url(#mask6_646_17)">
<path fill-rule="evenodd" clip-rule="evenodd" d="M320.423 288.023L327.344 299.985L310.403 309.745L303.482 297.784L320.423 288.023Z" fill="white"/>
</g>
<mask id="mask7_646_17" style="mask-type:luminance" maskUnits="userSpaceOnUse" x="314" y="256" width="28" height="16">
<path fill-rule="evenodd" clip-rule="evenodd" d="M329.308 256.309L341.456 263.23C342.181 263.644 342.181 264.315 341.457 264.731L329.318 271.687C328.593 272.103 327.417 272.104 326.692 271.691L314.544 264.77C313.819 264.356 313.819 263.685 314.543 263.269L326.682 256.313C327.046 256.104 327.523 256 328 256C328.473 256 328.946 256.103 329.308 256.309Z" fill="white"/>
</mask>
<g mask="url(#mask7_646_17)">
<path fill-rule="evenodd" clip-rule="evenodd" d="M328 276.099H312.994V255.047H328V276.099Z" fill="white"/>
<path fill-rule="evenodd" clip-rule="evenodd" d="M343.006 276.099H328V255.047H343.006V276.099Z" fill="#AAB8CC"/>
</g>
<path opacity="0.2" fill-rule="evenodd" clip-rule="evenodd" d="M342 264.84V201L327.997 209.212L314 201V264.84L327.997 273L342 264.84Z" fill="url(#paint3_linear_646_17)"/>
<g filter="url(#filter1_f_646_17)">
<path fill-rule="evenodd" clip-rule="evenodd" d="M314.544 208.56L326.692 215.682C327.417 216.107 328.593 216.106 329.318 215.678L341.457 208.52C342.181 208.092 342.181 207.401 341.456 206.976L329.308 199.853C328.583 199.428 327.407 199.43 326.682 199.857L314.543 207.016C313.819 207.443 313.819 208.134 314.544 208.56Z" fill="#08DDEB"/>
</g>
<path fill-rule="evenodd" clip-rule="evenodd" d="M314 190.232L315.994 191.84C319.586 190.532 328 197.5 328 197.5C328 197.5 336.315 191.282 342 190.232V206.091H341.998C341.99 206.363 341.81 206.634 341.457 206.843L329.318 214.001C328.593 214.429 327.417 214.43 326.692 214.005L314.544 206.883C314.173 206.665 313.993 206.377 314.002 206.091H314V190.232Z" fill="#40B4FF"/>
<mask id="mask8_646_17" style="mask-type:luminance" maskUnits="userSpaceOnUse" x="314" y="190" width="14" height="25">
<path d="M314.544 206.883L326.692 214.005C327.053 214.217 327.527 214.323 328 214.323V198L314 190.232V206.091H314.002C313.993 206.377 314.173 206.665 314.544 206.883Z" fill="white"/>
</mask>
<g mask="url(#mask8_646_17)">
<path fill-rule="evenodd" clip-rule="evenodd" d="M328.074 197.106V217.057L309.265 207.082L310.531 186.427L328.074 197.106Z" fill="#4281EA"/>
</g>
<path fill-rule="evenodd" clip-rule="evenodd" d="M326.692 198.11L314.545 190.988C313.819 190.562 313.819 189.871 314.544 189.444L326.682 182.285C326.923 182.143 327.214 182.048 327.522 182H328.478C328.782 182.047 329.069 182.141 329.308 182.281L341.456 189.404C341.811 189.612 341.992 189.883 342 190.156C342 190.169 342 190.181 342 190.194C341.992 190.467 341.811 190.739 341.457 190.948L329.318 198.106C328.593 198.534 327.418 198.535 326.692 198.11Z" fill="#40D0F2"/>
<mask id="mask9_646_17" style="mask-type:luminance" maskUnits="userSpaceOnUse" x="1128" y="152" width="72" height="67">
<path fill-rule="evenodd" clip-rule="evenodd" d="M1199.22 152.14H1128V218.479H1199.22V152.14Z" fill="white"/>
</mask>
<g mask="url(#mask9_646_17)">
<path fill-rule="evenodd" clip-rule="evenodd" d="M1128 158.616L1134.5 159.5L1160.26 152.94C1162.1 151.878 1165.09 151.873 1166.94 152.93L1193.5 161L1199.22 158.616V198.023H1199.22C1199.19 198.7 1198.74 199.373 1197.84 199.891L1166.96 217.68C1165.12 218.742 1162.13 218.746 1160.28 217.689L1129.38 199.991C1128.44 199.449 1127.98 198.734 1128 198.023H1128V158.616Z" fill="#40B4FF"/>
<mask id="mask10_646_17" style="mask-type:luminance" maskUnits="userSpaceOnUse" x="1128" y="152" width="72" height="67">
<path fill-rule="evenodd" clip-rule="evenodd" d="M1128 158.616L1134 161.5L1160.26 152.94C1162.1 151.878 1165.09 151.873 1166.94 152.93L1194 162L1199.22 158.616V198.023H1199.22C1199.19 198.7 1198.74 199.373 1197.84 199.891L1166.96 217.68C1165.12 218.742 1162.13 218.746 1160.28 217.689L1129.38 199.991C1128.44 199.449 1127.98 198.734 1128 198.023H1128V158.616Z" fill="white"/>
</mask>
<g mask="url(#mask10_646_17)">
<path fill-rule="evenodd" clip-rule="evenodd" d="M1164.21 175.544V225.121L1116.37 200.332L1119.59 149.008L1164.21 175.544Z" fill="#4281EA"/>
</g>
</g>
<mask id="mask11_646_17" style="mask-type:luminance" maskUnits="userSpaceOnUse" x="1128" y="138" width="72" height="42">
<path fill-rule="evenodd" clip-rule="evenodd" d="M1199.22 138.16H1128V179.073H1199.22V138.16Z" fill="white"/>
</mask>
<g mask="url(#mask11_646_17)">
<path fill-rule="evenodd" clip-rule="evenodd" d="M1129.38 160.494L1160.28 178.193C1162.13 179.249 1165.12 179.245 1166.96 178.183L1197.84 160.394C1199.68 159.332 1199.68 157.615 1197.84 156.558L1166.94 138.859C1165.09 137.802 1162.1 137.807 1160.26 138.869L1129.38 156.657C1127.54 157.719 1127.54 159.437 1129.38 160.494Z" fill="#40D0F2"/>
</g>
<mask id="mask12_646_17" style="mask-type:luminance" maskUnits="userSpaceOnUse" x="1176" y="177" width="15" height="24">
<path fill-rule="evenodd" clip-rule="evenodd" d="M1189.28 177.81L1178.11 184.284C1177.44 184.671 1176.9 185.608 1176.9 186.379V199.28C1176.9 200.051 1177.44 200.362 1178.11 199.975L1189.28 193.501C1189.95 193.115 1190.49 192.177 1190.49 191.406L1190.49 178.505C1190.49 177.959 1190.22 177.644 1189.82 177.644C1189.66 177.644 1189.48 177.697 1189.28 177.81Z" fill="white"/>
</mask>
<g mask="url(#mask12_646_17)">
<path fill-rule="evenodd" clip-rule="evenodd" d="M1180.88 171.322L1173.96 183.283L1190.9 193.043L1197.82 181.082L1180.88 171.322Z" fill="#AAB8CC"/>
</g>
<mask id="mask13_646_17" style="mask-type:luminance" maskUnits="userSpaceOnUse" x="1176" y="177" width="15" height="24">
<path fill-rule="evenodd" clip-rule="evenodd" d="M1189.28 177.81L1178.11 184.284C1177.44 184.671 1176.9 185.608 1176.9 186.379V199.28C1176.9 200.051 1177.44 200.362 1178.11 199.975L1189.28 193.501C1189.95 193.115 1190.49 192.177 1190.49 191.406L1190.49 178.505C1190.49 177.959 1190.22 177.644 1189.82 177.644C1189.66 177.644 1189.48 177.697 1189.28 177.81Z" fill="white"/>
</mask>
<g mask="url(#mask13_646_17)">
<path fill-rule="evenodd" clip-rule="evenodd" d="M1173.96 183.283L1167.04 195.245L1183.98 205.005L1190.9 193.043L1173.96 183.283Z" fill="white"/>
</g>
<mask id="mask14_646_17" style="mask-type:luminance" maskUnits="userSpaceOnUse" x="1138" y="177" width="15" height="23">
<path fill-rule="evenodd" clip-rule="evenodd" d="M1140.1 177.55L1151.27 184.025C1151.94 184.411 1152.48 185.349 1152.48 186.119V199.021C1152.48 199.791 1151.94 200.102 1151.27 199.716L1140.1 193.241C1139.43 192.855 1138.89 191.917 1138.89 191.147L1138.89 178.245C1138.89 177.7 1139.16 177.384 1139.56 177.384C1139.72 177.384 1139.91 177.438 1140.1 177.55Z" fill="white"/>
</mask>
<g mask="url(#mask14_646_17)">
<path fill-rule="evenodd" clip-rule="evenodd" d="M1148.5 171.062L1155.42 183.024L1138.48 192.784L1131.56 180.822L1148.5 171.062Z" fill="#AAB8CC"/>
</g>
<mask id="mask15_646_17" style="mask-type:luminance" maskUnits="userSpaceOnUse" x="1138" y="177" width="15" height="23">
<path fill-rule="evenodd" clip-rule="evenodd" d="M1140.1 177.55L1151.27 184.025C1151.94 184.411 1152.48 185.349 1152.48 186.119V199.021C1152.48 199.791 1151.94 200.102 1151.27 199.716L1140.1 193.241C1139.43 192.855 1138.89 191.917 1138.89 191.147L1138.89 178.245C1138.89 177.7 1139.16 177.384 1139.56 177.384C1139.72 177.384 1139.91 177.438 1140.1 177.55Z" fill="white"/>
</mask>
<g mask="url(#mask15_646_17)">
<path fill-rule="evenodd" clip-rule="evenodd" d="M1155.42 183.023L1162.34 194.985L1145.4 204.745L1138.48 192.784L1155.42 183.023Z" fill="white"/>
</g>
<mask id="mask16_646_17" style="mask-type:luminance" maskUnits="userSpaceOnUse" x="1149" y="151" width="28" height="16">
<path fill-rule="evenodd" clip-rule="evenodd" d="M1164.31 151.309L1176.46 158.23C1177.18 158.644 1177.18 159.315 1176.46 159.731L1164.32 166.687C1163.59 167.103 1162.42 167.104 1161.69 166.691L1149.54 159.77C1148.82 159.356 1148.82 158.685 1149.54 158.269L1161.68 151.313C1162.05 151.104 1162.52 151 1163 151C1163.47 151 1163.95 151.103 1164.31 151.309Z" fill="white"/>
</mask>
<g mask="url(#mask16_646_17)">
<path fill-rule="evenodd" clip-rule="evenodd" d="M1163 171.099H1147.99V150.047H1163V171.099Z" fill="white"/>
<path fill-rule="evenodd" clip-rule="evenodd" d="M1178.01 171.099H1163V150.047H1178.01V171.099Z" fill="#AAB8CC"/>
</g>
<path opacity="0.2" fill-rule="evenodd" clip-rule="evenodd" d="M1177 159.84V96L1163 104.212L1149 96V159.84L1163 168L1177 159.84Z" fill="url(#paint4_linear_646_17)"/>
<g filter="url(#filter2_f_646_17)">
<path fill-rule="evenodd" clip-rule="evenodd" d="M1149.54 103.56L1161.69 110.682C1162.42 111.107 1163.59 111.106 1164.32 110.678L1176.46 103.52C1177.18 103.092 1177.18 102.401 1176.46 101.976L1164.31 94.8532C1163.58 94.4279 1162.41 94.4297 1161.68 94.8571L1149.54 102.016C1148.82 102.443 1148.82 103.134 1149.54 103.56Z" fill="#08DDEB"/>
</g>
<path fill-rule="evenodd" clip-rule="evenodd" d="M1149 85.2323L1150.99 86.8398C1154.59 85.532 1163 92.5 1163 92.5C1163 92.5 1171.32 86.2822 1177 85.2323V101.091H1177C1176.99 101.363 1176.81 101.634 1176.46 101.843L1164.32 109.001C1163.59 109.429 1162.42 109.43 1161.69 109.005L1149.54 101.883C1149.17 101.665 1148.99 101.377 1149 101.091H1149V85.2323Z" fill="#40B4FF"/>
<mask id="mask17_646_17" style="mask-type:luminance" maskUnits="userSpaceOnUse" x="1149" y="85" width="14" height="25">
<path d="M1149.54 101.883L1161.69 109.005C1162.05 109.217 1162.53 109.323 1163 109.323V93L1149 85.2323V101.091H1149C1148.99 101.377 1149.17 101.665 1149.54 101.883Z" fill="white"/>
</mask>
<g mask="url(#mask17_646_17)">
<path fill-rule="evenodd" clip-rule="evenodd" d="M1163.07 92.106V112.057L1144.26 102.082L1145.53 81.4274L1163.07 92.106Z" fill="#4281EA"/>
</g>
<path fill-rule="evenodd" clip-rule="evenodd" d="M1161.69 93.1102L1149.54 85.9877C1148.82 85.5624 1148.82 84.8712 1149.54 84.4437L1161.68 77.2852C1161.92 77.1431 1162.21 77.048 1162.52 77H1163.48C1163.78 77.0475 1164.07 77.1412 1164.31 77.2811L1176.46 84.4037C1176.81 84.6097 1176.99 84.8781 1177 85.1486C1177 85.1663 1177 85.1842 1177 85.2019C1176.99 85.4722 1176.81 85.7407 1176.46 85.9475L1164.32 93.1062C1163.59 93.5336 1162.42 93.5354 1161.69 93.1102Z" fill="#40D0F2"/>
<mask id="mask18_646_17" style="mask-type:luminance" maskUnits="userSpaceOnUse" x="1001" y="479" width="72" height="67">
<path fill-rule="evenodd" clip-rule="evenodd" d="M1072.22 479.14H1001V545.479H1072.22V479.14Z" fill="white"/>
</mask>
<g mask="url(#mask18_646_17)">
<path fill-rule="evenodd" clip-rule="evenodd" d="M1001 485.616L1007.5 486.5L1033.26 479.94C1035.1 478.878 1038.09 478.873 1039.94 479.93L1066.5 488L1072.22 485.616V525.023H1072.22C1072.19 525.7 1071.74 526.373 1070.84 526.891L1039.96 544.68C1038.12 545.742 1035.13 545.746 1033.28 544.689L1002.38 526.991C1001.44 526.449 1000.98 525.734 1001 525.023H1001V485.616Z" fill="#40B4FF"/>
<mask id="mask19_646_17" style="mask-type:luminance" maskUnits="userSpaceOnUse" x="1001" y="479" width="72" height="67">
<path fill-rule="evenodd" clip-rule="evenodd" d="M1001 485.616L1007 488.5L1033.26 479.94C1035.1 478.878 1038.09 478.873 1039.94 479.93L1067 489L1072.22 485.616V525.023H1072.22C1072.19 525.7 1071.74 526.373 1070.84 526.891L1039.96 544.68C1038.12 545.742 1035.13 545.746 1033.28 544.689L1002.38 526.991C1001.44 526.449 1000.98 525.734 1001 525.023H1001V485.616Z" fill="white"/>
</mask>
<g mask="url(#mask19_646_17)">
<path fill-rule="evenodd" clip-rule="evenodd" d="M1037.21 502.544V552.121L989.368 527.332L992.59 476.008L1037.21 502.544Z" fill="#4281EA"/>
</g>
</g>
<mask id="mask20_646_17" style="mask-type:luminance" maskUnits="userSpaceOnUse" x="1001" y="465" width="72" height="42">
<path fill-rule="evenodd" clip-rule="evenodd" d="M1072.22 465.16H1001V506.073H1072.22V465.16Z" fill="white"/>
</mask>
<g mask="url(#mask20_646_17)">
<path fill-rule="evenodd" clip-rule="evenodd" d="M1002.38 487.494L1033.28 505.193C1035.13 506.249 1038.12 506.245 1039.96 505.183L1070.84 487.394C1072.68 486.332 1072.68 484.615 1070.84 483.558L1039.94 465.859C1038.09 464.802 1035.1 464.807 1033.26 465.869L1002.38 483.657C1000.54 484.719 1000.54 486.437 1002.38 487.494Z" fill="#40D0F2"/>
</g>
<mask id="mask21_646_17" style="mask-type:luminance" maskUnits="userSpaceOnUse" x="1049" y="504" width="15" height="24">
<path fill-rule="evenodd" clip-rule="evenodd" d="M1062.28 504.81L1051.11 511.284C1050.44 511.671 1049.9 512.608 1049.9 513.379V526.28C1049.9 527.051 1050.44 527.362 1051.11 526.975L1062.28 520.501C1062.95 520.115 1063.49 519.177 1063.49 518.406L1063.49 505.505C1063.49 504.959 1063.22 504.644 1062.82 504.644C1062.66 504.644 1062.48 504.697 1062.28 504.81Z" fill="white"/>
</mask>
<g mask="url(#mask21_646_17)">
<path fill-rule="evenodd" clip-rule="evenodd" d="M1053.88 498.322L1046.96 510.283L1063.9 520.043L1070.82 508.082L1053.88 498.322Z" fill="#AAB8CC"/>
</g>
<mask id="mask22_646_17" style="mask-type:luminance" maskUnits="userSpaceOnUse" x="1049" y="504" width="15" height="24">
<path fill-rule="evenodd" clip-rule="evenodd" d="M1062.28 504.81L1051.11 511.284C1050.44 511.671 1049.9 512.608 1049.9 513.379V526.28C1049.9 527.051 1050.44 527.362 1051.11 526.975L1062.28 520.501C1062.95 520.115 1063.49 519.177 1063.49 518.406L1063.49 505.505C1063.49 504.959 1063.22 504.644 1062.82 504.644C1062.66 504.644 1062.48 504.697 1062.28 504.81Z" fill="white"/>
</mask>
<g mask="url(#mask22_646_17)">
<path fill-rule="evenodd" clip-rule="evenodd" d="M1046.96 510.283L1040.04 522.245L1056.98 532.005L1063.9 520.043L1046.96 510.283Z" fill="white"/>
</g>
<mask id="mask23_646_17" style="mask-type:luminance" maskUnits="userSpaceOnUse" x="1011" y="504" width="15" height="23">
<path fill-rule="evenodd" clip-rule="evenodd" d="M1013.1 504.55L1024.27 511.025C1024.94 511.411 1025.48 512.349 1025.48 513.119V526.021C1025.48 526.791 1024.94 527.102 1024.27 526.716L1013.1 520.241C1012.43 519.855 1011.89 518.917 1011.89 518.147L1011.89 505.245C1011.89 504.7 1012.16 504.384 1012.56 504.384C1012.72 504.384 1012.91 504.438 1013.1 504.55Z" fill="white"/>
</mask>
<g mask="url(#mask23_646_17)">
<path fill-rule="evenodd" clip-rule="evenodd" d="M1021.5 498.062L1028.42 510.024L1011.48 519.784L1004.56 507.822L1021.5 498.062Z" fill="#AAB8CC"/>
</g>
<mask id="mask24_646_17" style="mask-type:luminance" maskUnits="userSpaceOnUse" x="1011" y="504" width="15" height="23">
<path fill-rule="evenodd" clip-rule="evenodd" d="M1013.1 504.55L1024.27 511.025C1024.94 511.411 1025.48 512.349 1025.48 513.119V526.021C1025.48 526.791 1024.94 527.102 1024.27 526.716L1013.1 520.241C1012.43 519.855 1011.89 518.917 1011.89 518.147L1011.89 505.245C1011.89 504.7 1012.16 504.384 1012.56 504.384C1012.72 504.384 1012.91 504.438 1013.1 504.55Z" fill="white"/>
</mask>
<g mask="url(#mask24_646_17)">
<path fill-rule="evenodd" clip-rule="evenodd" d="M1028.42 510.023L1035.34 521.985L1018.4 531.745L1011.48 519.784L1028.42 510.023Z" fill="white"/>
</g>
<mask id="mask25_646_17" style="mask-type:luminance" maskUnits="userSpaceOnUse" x="1022" y="478" width="28" height="16">
<path fill-rule="evenodd" clip-rule="evenodd" d="M1037.31 478.309L1049.46 485.23C1050.18 485.644 1050.18 486.315 1049.46 486.731L1037.32 493.687C1036.59 494.103 1035.42 494.104 1034.69 493.691L1022.54 486.77C1021.82 486.356 1021.82 485.685 1022.54 485.269L1034.68 478.313C1035.05 478.104 1035.52 478 1036 478C1036.47 478 1036.95 478.103 1037.31 478.309Z" fill="white"/>
</mask>
<g mask="url(#mask25_646_17)">
<path fill-rule="evenodd" clip-rule="evenodd" d="M1036 498.099H1020.99V477.047H1036V498.099Z" fill="white"/>
<path fill-rule="evenodd" clip-rule="evenodd" d="M1051.01 498.099H1036V477.047H1051.01V498.099Z" fill="#AAB8CC"/>
</g>
<path opacity="0.2" fill-rule="evenodd" clip-rule="evenodd" d="M1050 486.84V423L1036 431.212L1022 423V486.84L1036 495L1050 486.84Z" fill="url(#paint5_linear_646_17)"/>
<g filter="url(#filter3_f_646_17)">
<path fill-rule="evenodd" clip-rule="evenodd" d="M1022.54 430.56L1034.69 437.682C1035.42 438.107 1036.59 438.106 1037.32 437.678L1049.46 430.52C1050.18 430.092 1050.18 429.401 1049.46 428.976L1037.31 421.853C1036.58 421.428 1035.41 421.43 1034.68 421.857L1022.54 429.016C1021.82 429.443 1021.82 430.134 1022.54 430.56Z" fill="#08DDEB"/>
</g>
<path fill-rule="evenodd" clip-rule="evenodd" d="M1022 412.232L1023.99 413.84C1027.59 412.532 1036 419.5 1036 419.5C1036 419.5 1044.32 413.282 1050 412.232V428.091H1050C1049.99 428.363 1049.81 428.634 1049.46 428.843L1037.32 436.001C1036.59 436.429 1035.42 436.43 1034.69 436.005L1022.54 428.883C1022.17 428.665 1021.99 428.377 1022 428.091H1022V412.232Z" fill="#40B4FF"/>
<mask id="mask26_646_17" style="mask-type:luminance" maskUnits="userSpaceOnUse" x="1022" y="412" width="14" height="25">
<path d="M1022.54 428.883L1034.69 436.005C1035.05 436.217 1035.53 436.323 1036 436.323V420L1022 412.232V428.091H1022C1021.99 428.377 1022.17 428.665 1022.54 428.883Z" fill="white"/>
</mask>
<g mask="url(#mask26_646_17)">
<path fill-rule="evenodd" clip-rule="evenodd" d="M1036.07 419.106V439.057L1017.26 429.082L1018.53 408.427L1036.07 419.106Z" fill="#4281EA"/>
</g>
<path fill-rule="evenodd" clip-rule="evenodd" d="M1034.69 420.11L1022.54 412.988C1021.82 412.562 1021.82 411.871 1022.54 411.444L1034.68 404.285C1034.92 404.143 1035.21 404.048 1035.52 404H1036.48C1036.78 404.047 1037.07 404.141 1037.31 404.281L1049.46 411.404C1049.81 411.61 1049.99 411.878 1050 412.149C1050 412.166 1050 412.184 1050 412.202C1049.99 412.472 1049.81 412.741 1049.46 412.948L1037.32 420.106C1036.59 420.534 1035.42 420.535 1034.69 420.11Z" fill="#40D0F2"/>
<path opacity="0.1" d="M2.00024 468L309 306" stroke="url(#paint6_linear_646_17)" stroke-width="4" stroke-linecap="round" stroke-linejoin="round"/>
<path d="M561.617 278.268L577.047 287.277" stroke="url(#paint7_linear_646_17)" stroke-width="4" stroke-linecap="round" stroke-linejoin="round"/>
<path opacity="0.1" d="M1060 500.5L1362 321" stroke="url(#paint8_linear_646_17)" stroke-width="4" stroke-linecap="round" stroke-linejoin="round"/>
<path d="M406 492.909L446.413 470" stroke="url(#paint9_linear_646_17)" stroke-width="4" stroke-linecap="round" stroke-linejoin="round"/>
<path d="M983.199 319.343V307.435" stroke="url(#paint10_linear_646_17)" stroke-width="4" stroke-linecap="round" stroke-linejoin="round"/>
<path opacity="0.1" d="M695.19 331.006L877.002 227.5L983.434 292.235L1147 194M983 543.5L983.199 292.535M689.595 353.153L861 454L764.24 523.055L856.925 575.507L728.694 649.36L624.208 583.975L601 598M856.63 575.506L892.578 596.476L1021 522M230.001 590L660.432 352.101M474.001 455L601.225 534.365L686.501 480M601.111 535.17V597.893" stroke="url(#paint11_linear_646_17)" stroke-width="4" stroke-linecap="round" stroke-linejoin="round"/>
<mask id="mask27_646_17" style="mask-type:luminance" maskUnits="userSpaceOnUse" x="182" y="561" width="72" height="67">
<path fill-rule="evenodd" clip-rule="evenodd" d="M253.22 561.14H182V627.479H253.22V561.14Z" fill="white"/>
</mask>
<g mask="url(#mask27_646_17)">
<path fill-rule="evenodd" clip-rule="evenodd" d="M182 567.616L188.5 568.5L214.258 561.94C216.102 560.878 219.092 560.873 220.937 561.93L247.5 570L253.22 567.616V607.023H253.215C253.193 607.7 252.736 608.373 251.838 608.891L220.962 626.68C219.118 627.742 216.128 627.746 214.283 626.689L183.385 608.991C182.439 608.449 181.981 607.734 182.004 607.023H182V567.616Z" fill="#40B4FF"/>
<mask id="mask28_646_17" style="mask-type:luminance" maskUnits="userSpaceOnUse" x="182" y="561" width="72" height="67">
<path fill-rule="evenodd" clip-rule="evenodd" d="M182 567.616L188 570.5L214.258 561.94C216.102 560.878 219.092 560.873 220.937 561.93L248 571L253.22 567.616V607.023H253.215C253.193 607.7 252.736 608.373 251.838 608.891L220.962 626.68C219.118 627.742 216.128 627.746 214.283 626.689L183.385 608.991C182.439 608.449 181.981 607.734 182.004 607.023H182V567.616Z" fill="white"/>
</mask>
<g mask="url(#mask28_646_17)">
<path fill-rule="evenodd" clip-rule="evenodd" d="M218.212 584.544V634.121L170.368 609.332L173.59 558.008L218.212 584.544Z" fill="#4281EA"/>
</g>
</g>
<mask id="mask29_646_17" style="mask-type:luminance" maskUnits="userSpaceOnUse" x="182" y="547" width="72" height="42">
<path fill-rule="evenodd" clip-rule="evenodd" d="M253.22 547.16H182V588.073H253.22V547.16Z" fill="white"/>
</mask>
<g mask="url(#mask29_646_17)">
<path fill-rule="evenodd" clip-rule="evenodd" d="M183.385 569.494L214.283 587.193C216.128 588.249 219.118 588.245 220.962 587.183L251.838 569.394C253.681 568.332 253.68 566.615 251.835 565.558L220.937 547.859C219.092 546.802 216.102 546.807 214.258 547.869L183.382 565.657C181.539 566.719 181.54 568.437 183.385 569.494Z" fill="#40D0F2"/>
</g>
<mask id="mask30_646_17" style="mask-type:luminance" maskUnits="userSpaceOnUse" x="230" y="586" width="15" height="24">
<path fill-rule="evenodd" clip-rule="evenodd" d="M243.283 586.81L232.111 593.284C231.444 593.671 230.903 594.608 230.903 595.379V608.28C230.903 609.051 231.444 609.362 232.111 608.975L243.283 602.501C243.95 602.115 244.491 601.177 244.491 600.406L244.491 587.505C244.491 586.959 244.22 586.644 243.824 586.644C243.662 586.644 243.478 586.697 243.283 586.81Z" fill="white"/>
</mask>
<g mask="url(#mask30_646_17)">
<path fill-rule="evenodd" clip-rule="evenodd" d="M234.881 580.322L227.96 592.283L244.902 602.043L251.823 590.082L234.881 580.322Z" fill="#AAB8CC"/>
</g>
<mask id="mask31_646_17" style="mask-type:luminance" maskUnits="userSpaceOnUse" x="230" y="586" width="15" height="24">
<path fill-rule="evenodd" clip-rule="evenodd" d="M243.283 586.81L232.111 593.284C231.444 593.671 230.903 594.608 230.903 595.379V608.28C230.903 609.051 231.444 609.362 232.111 608.975L243.283 602.501C243.95 602.115 244.491 601.177 244.491 600.406L244.491 587.505C244.491 586.959 244.22 586.644 243.824 586.644C243.662 586.644 243.478 586.697 243.283 586.81Z" fill="white"/>
</mask>
<g mask="url(#mask31_646_17)">
<path fill-rule="evenodd" clip-rule="evenodd" d="M227.96 592.283L221.04 604.245L237.981 614.005L244.902 602.043L227.96 592.283Z" fill="white"/>
</g>
<mask id="mask32_646_17" style="mask-type:luminance" maskUnits="userSpaceOnUse" x="192" y="586" width="15" height="23">
<path fill-rule="evenodd" clip-rule="evenodd" d="M194.1 586.55L205.273 593.025C205.94 593.411 206.481 594.349 206.481 595.119V608.021C206.481 608.791 205.94 609.102 205.273 608.716L194.1 602.241C193.433 601.855 192.892 600.917 192.892 600.147L192.892 587.245C192.892 586.7 193.164 586.384 193.559 586.384C193.722 586.384 193.906 586.438 194.1 586.55Z" fill="white"/>
</mask>
<g mask="url(#mask32_646_17)">
<path fill-rule="evenodd" clip-rule="evenodd" d="M202.502 580.062L209.423 592.024L192.482 601.784L185.561 589.822L202.502 580.062Z" fill="#AAB8CC"/>
</g>
<mask id="mask33_646_17" style="mask-type:luminance" maskUnits="userSpaceOnUse" x="192" y="586" width="15" height="23">
<path fill-rule="evenodd" clip-rule="evenodd" d="M194.1 586.55L205.273 593.025C205.94 593.411 206.481 594.349 206.481 595.119V608.021C206.481 608.791 205.94 609.102 205.273 608.716L194.1 602.241C193.433 601.855 192.892 600.917 192.892 600.147L192.892 587.245C192.892 586.7 193.164 586.384 193.559 586.384C193.722 586.384 193.906 586.438 194.1 586.55Z" fill="white"/>
</mask>
<g mask="url(#mask33_646_17)">
<path fill-rule="evenodd" clip-rule="evenodd" d="M209.423 592.023L216.344 603.985L199.403 613.745L192.482 601.784L209.423 592.023Z" fill="white"/>
</g>
<mask id="mask34_646_17" style="mask-type:luminance" maskUnits="userSpaceOnUse" x="203" y="560" width="28" height="16">
<path fill-rule="evenodd" clip-rule="evenodd" d="M218.308 560.309L230.456 567.23C231.181 567.644 231.181 568.315 230.457 568.731L218.318 575.687C217.593 576.103 216.417 576.104 215.692 575.691L203.544 568.77C202.819 568.356 202.819 567.685 203.543 567.269L215.682 560.313C216.046 560.104 216.523 560 217 560C217.473 560 217.946 560.103 218.308 560.309Z" fill="white"/>
</mask>
<g mask="url(#mask34_646_17)">
<path fill-rule="evenodd" clip-rule="evenodd" d="M217 580.099H201.994V559.047H217V580.099Z" fill="white"/>
<path fill-rule="evenodd" clip-rule="evenodd" d="M232.006 580.099H217V559.047H232.006V580.099Z" fill="#AAB8CC"/>
</g>
<path opacity="0.2" fill-rule="evenodd" clip-rule="evenodd" d="M231 568.84V505L216.997 513.212L203 505V568.84L216.997 577L231 568.84Z" fill="url(#paint12_linear_646_17)"/>
<g filter="url(#filter4_f_646_17)">
<path fill-rule="evenodd" clip-rule="evenodd" d="M203.544 512.56L215.692 519.682C216.417 520.107 217.593 520.106 218.318 519.678L230.457 512.52C231.181 512.092 231.181 511.401 230.456 510.976L218.308 503.853C217.583 503.428 216.407 503.43 215.682 503.857L203.543 511.016C202.819 511.443 202.819 512.134 203.544 512.56Z" fill="#08DDEB"/>
</g>
<path fill-rule="evenodd" clip-rule="evenodd" d="M203 494.232L204.994 495.84C208.586 494.532 217 501.5 217 501.5C217 501.5 225.315 495.282 231 494.232V510.091H230.998C230.99 510.363 230.81 510.634 230.457 510.843L218.318 518.001C217.593 518.429 216.417 518.43 215.692 518.005L203.544 510.883C203.173 510.665 202.993 510.377 203.002 510.091H203V494.232Z" fill="#40B4FF"/>
<mask id="mask35_646_17" style="mask-type:luminance" maskUnits="userSpaceOnUse" x="203" y="494" width="14" height="25">
<path d="M203.544 510.883L215.692 518.005C216.053 518.217 216.527 518.323 217 518.323V502L203 494.232V510.091H203.002C202.993 510.377 203.173 510.665 203.544 510.883Z" fill="white"/>
</mask>
<g mask="url(#mask35_646_17)">
<path fill-rule="evenodd" clip-rule="evenodd" d="M217.074 501.106V521.057L198.265 511.082L199.531 490.427L217.074 501.106Z" fill="#4281EA"/>
</g>
<path fill-rule="evenodd" clip-rule="evenodd" d="M215.692 502.11L203.545 494.988C202.819 494.562 202.819 493.871 203.544 493.444L215.682 486.285C215.923 486.143 216.214 486.048 216.522 486H217.478C217.782 486.047 218.069 486.141 218.308 486.281L230.456 493.404C230.811 493.612 230.992 493.883 231 494.156C231 494.169 231 494.181 231 494.194C230.992 494.467 230.811 494.739 230.457 494.948L218.318 502.106C217.593 502.534 216.418 502.535 215.692 502.11Z" fill="#40D0F2"/>
<path d="M601.111 535.17V558.987" stroke="url(#paint13_linear_646_17)" stroke-width="4" stroke-linecap="round" stroke-linejoin="round"/>
<path opacity="0.1" d="M201.5 605L2 718" stroke="url(#paint14_linear_646_17)" stroke-width="4" stroke-linecap="round" stroke-linejoin="round"/>
<path d="M819.816 598.563L855.874 576.311L819.816 554.389" stroke="url(#paint15_linear_646_17)" stroke-width="4" stroke-linecap="round" stroke-linejoin="round"/>
<defs>
<filter id="filter0_f_646_17" x="477.226" y="287.226" width="408.548" height="270.548" filterUnits="userSpaceOnUse" color-interpolation-filters="sRGB">
<feFlood flood-opacity="0" result="BackgroundImageFix"/>
<feBlend mode="normal" in="SourceGraphic" in2="BackgroundImageFix" result="shape"/>
<feGaussianBlur stdDeviation="20.3871" result="effect1_foregroundBlur_646_17"/>
</filter>
<filter id="filter1_f_646_17" x="311.282" y="196.817" width="33.4363" height="21.9012" filterUnits="userSpaceOnUse" color-interpolation-filters="sRGB">
<feFlood flood-opacity="0" result="BackgroundImageFix"/>
<feBlend mode="normal" in="SourceGraphic" in2="BackgroundImageFix" result="shape"/>
<feGaussianBlur stdDeviation="1.35914" result="effect1_foregroundBlur_646_17"/>
</filter>
<filter id="filter2_f_646_17" x="1146.28" y="91.8171" width="33.4366" height="21.9012" filterUnits="userSpaceOnUse" color-interpolation-filters="sRGB">
<feFlood flood-opacity="0" result="BackgroundImageFix"/>
<feBlend mode="normal" in="SourceGraphic" in2="BackgroundImageFix" result="shape"/>
<feGaussianBlur stdDeviation="1.35914" result="effect1_foregroundBlur_646_17"/>
</filter>
<filter id="filter3_f_646_17" x="1019.28" y="418.817" width="33.4366" height="21.9012" filterUnits="userSpaceOnUse" color-interpolation-filters="sRGB">
<feFlood flood-opacity="0" result="BackgroundImageFix"/>
<feBlend mode="normal" in="SourceGraphic" in2="BackgroundImageFix" result="shape"/>
<feGaussianBlur stdDeviation="1.35914" result="effect1_foregroundBlur_646_17"/>
</filter>
<filter id="filter4_f_646_17" x="200.282" y="500.817" width="33.4363" height="21.9012" filterUnits="userSpaceOnUse" color-interpolation-filters="sRGB">
<feFlood flood-opacity="0" result="BackgroundImageFix"/>
<feBlend mode="normal" in="SourceGraphic" in2="BackgroundImageFix" result="shape"/>
<feGaussianBlur stdDeviation="1.35914" result="effect1_foregroundBlur_646_17"/>
</filter>
<linearGradient id="paint0_linear_646_17" x1="609.318" y1="144.895" x2="611.202" y2="157.251" gradientUnits="userSpaceOnUse">
<stop stop-color="#4FD7F3"/>
<stop offset="1" stop-color="#40B4FE"/>
</linearGradient>
<linearGradient id="paint1_linear_646_17" x1="1332.14" y1="77.8145" x2="1271.63" y2="194.11" gradientUnits="userSpaceOnUse">
<stop stop-color="white"/>
<stop offset="1" stop-color="#A9A9A9"/>
</linearGradient>
<linearGradient id="paint2_linear_646_17" x1="861.377" y1="42.7338" x2="701.263" y2="408.386" gradientUnits="userSpaceOnUse">
<stop stop-color="white"/>
<stop offset="1" stop-color="#A9A9A9"/>
</linearGradient>
<linearGradient id="paint3_linear_646_17" x1="328" y1="201" x2="328" y2="273" gradientUnits="userSpaceOnUse">
<stop offset="0.220994" stop-color="#9AF6FF"/>
<stop offset="1" stop-color="#9AF6FF" stop-opacity="0"/>
</linearGradient>
<linearGradient id="paint4_linear_646_17" x1="1163" y1="96" x2="1163" y2="168" gradientUnits="userSpaceOnUse">
<stop offset="0.220994" stop-color="#9AF6FF"/>
<stop offset="1" stop-color="#9AF6FF" stop-opacity="0"/>
</linearGradient>
<linearGradient id="paint5_linear_646_17" x1="1036" y1="423" x2="1036" y2="495" gradientUnits="userSpaceOnUse">
<stop offset="0.220994" stop-color="#9AF6FF"/>
<stop offset="1" stop-color="#9AF6FF" stop-opacity="0"/>
</linearGradient>
<linearGradient id="paint6_linear_646_17" x1="54.1597" y1="326.162" x2="136.489" y2="503.661" gradientUnits="userSpaceOnUse">
<stop stop-color="white"/>
<stop offset="1" stop-color="#A9A9A9"/>
</linearGradient>
<linearGradient id="paint7_linear_646_17" x1="564.239" y1="279.389" x2="569.111" y2="288.883" gradientUnits="userSpaceOnUse">
<stop stop-color="#4FD7F3"/>
<stop offset="1" stop-color="#40B4FE"/>
</linearGradient>
<linearGradient id="paint8_linear_646_17" x1="1111.31" y1="343.34" x2="1209.39" y2="531.082" gradientUnits="userSpaceOnUse">
<stop stop-color="white"/>
<stop offset="1" stop-color="#A9A9A9"/>
</linearGradient>
<linearGradient id="paint9_linear_646_17" x1="412.866" y1="472.851" x2="425.041" y2="497.285" gradientUnits="userSpaceOnUse">
<stop stop-color="#4FD7F3"/>
<stop offset="1" stop-color="#40B4FE"/>
</linearGradient>
<linearGradient id="paint10_linear_646_17" x1="982.413" y1="308.917" x2="985.844" y2="309.698" gradientUnits="userSpaceOnUse">
<stop stop-color="#4FD7F3"/>
<stop offset="1" stop-color="#40B4FE"/>
</linearGradient>
<linearGradient id="paint11_linear_646_17" x1="991.202" y1="250.672" x2="768.926" y2="759.916" gradientUnits="userSpaceOnUse">
<stop stop-color="white"/>
<stop offset="1" stop-color="#A9A9A9"/>
</linearGradient>
<linearGradient id="paint12_linear_646_17" x1="217" y1="505" x2="217" y2="577" gradientUnits="userSpaceOnUse">
<stop offset="0.220994" stop-color="#9AF6FF"/>
<stop offset="1" stop-color="#9AF6FF" stop-opacity="0"/>
</linearGradient>
<linearGradient id="paint13_linear_646_17" x1="600.324" y1="538.134" x2="603.887" y2="538.54" gradientUnits="userSpaceOnUse">
<stop stop-color="#4FD7F3"/>
<stop offset="1" stop-color="#40B4FE"/>
</linearGradient>
<linearGradient id="paint14_linear_646_17" x1="35.8951" y1="619.063" x2="95.9202" y2="739.626" gradientUnits="userSpaceOnUse">
<stop stop-color="white"/>
<stop offset="1" stop-color="#A9A9A9"/>
</linearGradient>
<linearGradient id="paint15_linear_646_17" x1="825.942" y1="559.887" x2="855.268" y2="587.12" gradientUnits="userSpaceOnUse">
<stop stop-color="#4FD7F3"/>
<stop offset="1" stop-color="#40B4FE"/>
</linearGradient>
</defs>
</svg>
