<svg width="20" height="20" viewBox="0 0 20 20" fill="none" xmlns="http://www.w3.org/2000/svg">
<path fill-rule="evenodd" clip-rule="evenodd" d="M5.97498 7.90283H2.28784V19.7773H5.97498V7.90283ZM6.27649 4.1416C6.27649 2.96094 5.31702 2 4.13831 2C2.95264 2 2 2.96094 2 4.1416C2 5.32227 2.95264 6.2832 4.13831 6.2832C5.31702 6.2832 6.27649 5.32227 6.27649 4.1416ZM11.821 7.90283H8.29834V19.7778H11.9786V13.9023C11.9786 12.3579 12.2665 10.8545 14.1854 10.8545C16.077 10.8545 16.0975 12.6255 16.0975 14.0054V19.7778H19.7778V13.2705C19.7778 10.0723 19.0857 7.61475 15.3574 7.61475C13.5618 7.61475 12.3624 8.59619 11.869 9.52979H11.821V7.90283Z" fill="#0077B5"/>
</svg>
