<svg width="66" height="66" viewBox="0 0 66 66" fill="none" xmlns="http://www.w3.org/2000/svg">
<path d="M59.6944 15.3469C63.0473 20.4068 65 26.4754 65 33C65 39.5236 63.0479 45.5912 59.696 50.6507" fill="white"/>
<path d="M15.3498 6.30353C20.4091 2.95194 26.4765 1 32.9999 1C39.5237 1 45.5916 2.95226 50.6511 6.30436" fill="white"/>
<path d="M6.30278 50.649C2.95158 45.5899 1 39.5229 1 33.0002C1 26.4765 2.9521 20.4088 6.30403 15.3493" fill="white"/>
<path d="M50.6507 59.6959C45.5912 63.0478 39.5235 65 32.9999 65C26.4761 65 20.4081 63.0477 15.3486 59.6955" fill="white"/>
<path d="M59.6944 15.3469C63.0473 20.4068 65 26.4754 65 33C65 39.5236 63.0479 45.5912 59.696 50.6507L50.6507 59.6959C45.5912 63.0478 39.5235 65 32.9999 65C26.4761 65 20.4081 63.0477 15.3486 59.6955L6.30278 50.649C2.95158 45.5899 1 39.5229 1 33.0002C1 26.4765 2.9521 20.4088 6.30403 15.3493L15.3498 6.30353C20.4091 2.95194 26.4765 1 32.9999 1C39.5237 1 45.5916 2.95226 50.6511 6.30436L59.6944 15.3469Z" fill="white"/>
<path d="M45.3078 29.6633H20.6924V46.2924H45.3078V29.6633Z" stroke="#353B63" stroke-miterlimit="10" stroke-linecap="round" stroke-linejoin="round"/>
<path d="M41.0636 29.6633V23.4941C41.0636 18.684 37.4534 14.7847 33 14.7847C28.5465 14.7847 24.9363 18.684 24.9363 23.4941V29.6633H41.0636Z" stroke="#353B63" stroke-miterlimit="10" stroke-linecap="round" stroke-linejoin="round"/>
<path d="M59.6943 15.3469C63.0472 20.4068 64.9999 26.4754 64.9999 33C64.9999 39.5236 63.0478 45.5912 59.6958 50.6507" stroke="#353B63" stroke-width="2" stroke-miterlimit="10" stroke-linecap="round" stroke-linejoin="round"/>
<path d="M15.3499 6.30353C20.4092 2.95194 26.4766 1 33 1C39.5238 1 45.5917 2.95226 50.6512 6.30436" stroke="#353B63" stroke-width="2" stroke-miterlimit="10" stroke-linecap="round" stroke-linejoin="round"/>
<path d="M6.30278 50.6491C2.95158 45.59 1 39.523 1 33.0002C1 26.4765 2.9521 20.4089 6.30403 15.3494" stroke="#353B63" stroke-width="2" stroke-miterlimit="10" stroke-linecap="round" stroke-linejoin="round"/>
<path d="M50.6508 59.6959C45.5913 63.0479 39.5236 65 33 65C26.4762 65 20.4082 63.0478 15.3486 59.6956" stroke="#353B63" stroke-width="2" stroke-miterlimit="10" stroke-linecap="round" stroke-linejoin="round"/>
<path d="M16.7539 10.3539C16.7539 13.8885 13.8885 16.7539 10.3539 16.7539C6.81925 16.7539 3.95386 13.8885 3.95386 10.3539C3.95386 6.8192 6.81925 3.95386 10.3539 3.95386C13.8885 3.95386 16.7539 6.8192 16.7539 10.3539Z" fill="#40B4FF" stroke="#353B63" stroke-width="2" stroke-miterlimit="10" stroke-linecap="round" stroke-linejoin="round"/>
<path d="M55.6461 62.0464C59.1807 62.0464 62.0461 59.181 62.0461 55.6463C62.0461 52.1117 59.1807 49.2463 55.6461 49.2463C52.1115 49.2463 49.2461 52.1117 49.2461 55.6463C49.2461 59.181 52.1115 62.0464 55.6461 62.0464Z" fill="#40B4FF" stroke="#353B63" stroke-width="2" stroke-miterlimit="10" stroke-linecap="round" stroke-linejoin="round"/>
<path d="M55.6461 16.7539C59.1807 16.7539 62.0461 13.8885 62.0461 10.3539C62.0461 6.81924 59.1807 3.95386 55.6461 3.95386C52.1115 3.95386 49.2461 6.81924 49.2461 10.3539C49.2461 13.8885 52.1115 16.7539 55.6461 16.7539Z" fill="#40B4FF" stroke="#353B63" stroke-width="2" stroke-miterlimit="10" stroke-linecap="round" stroke-linejoin="round"/>
<path d="M10.3539 62.0464C6.81925 62.0464 3.95386 59.181 3.95386 55.6463C3.95386 52.1117 6.81925 49.2463 10.3539 49.2463C13.8885 49.2463 16.7539 52.1117 16.7539 55.6463C16.7539 59.181 13.8885 62.0464 10.3539 62.0464Z" fill="#40B4FF" stroke="#353B63" stroke-width="2" stroke-miterlimit="10" stroke-linecap="round" stroke-linejoin="round"/>
</svg>
