<svg width="214" height="41" viewBox="0 0 214 41" fill="none" xmlns="http://www.w3.org/2000/svg">
<path d="M0 20.9361L12.9428 34.0212L25.8856 20.9361L12.9428 7.85095L0 20.9361Z" fill="#C6C6C6"/>
<path d="M31.4938 0L11.217 20.5L31.4938 41L51.7711 20.5L31.4938 0Z" fill="#C6C6C6"/>
<path d="M164.762 22.0968C165.534 21.3463 165.92 20.4391 165.92 19.3744C165.92 18.3098 165.534 17.4019 164.762 16.6521C163.989 15.9016 163.054 15.526 161.959 15.526C160.862 15.526 159.929 15.9016 159.156 16.6521C158.383 17.4019 157.997 18.3098 157.997 19.3744C157.997 20.4391 158.383 21.3463 159.156 22.0968C159.929 22.8473 160.862 23.2222 161.959 23.2222C163.054 23.2222 163.989 22.8473 164.762 22.0968ZM161.959 27.0706C159.773 27.0706 157.907 26.3181 156.358 24.8138C154.809 23.3102 154.035 21.4978 154.035 19.3744C154.035 17.2518 154.809 15.4386 156.358 13.9344C157.907 12.4301 159.773 11.6783 161.959 11.6783C164.145 11.6783 166.011 12.4301 167.56 13.9344C169.108 15.4386 169.882 17.2518 169.882 19.3744C169.882 21.4978 169.108 23.3102 167.56 24.8138C166.011 26.3181 164.145 27.0706 161.959 27.0706Z" fill="#C6C6C6"/>
<path d="M180.405 19.0859V13.6025C180.405 13.0702 180.598 12.6172 180.984 12.241C181.37 11.8661 181.837 11.6786 182.386 11.6786C182.933 11.6786 183.4 11.8661 183.786 12.241C184.173 12.6172 184.366 13.0702 184.366 13.6025V25.1464C184.366 25.6787 184.173 26.1324 183.786 26.5079C183.4 26.8828 182.933 27.0709 182.386 27.0709C181.837 27.0709 181.372 26.8815 180.989 26.5026C180.857 26.3812 180.748 26.2498 180.662 26.1083H180.653L176.443 19.663V25.1464C176.443 25.6787 176.249 26.1324 175.863 26.5079C175.478 26.8828 175.01 27.0709 174.462 27.0709C173.914 27.0709 173.447 26.8828 173.061 26.5079C172.675 26.1324 172.482 25.6787 172.482 25.1464V13.6025C172.482 13.0702 172.675 12.6172 173.061 12.241C173.447 11.8661 173.914 11.6786 174.462 11.6786C175.01 11.6786 175.479 11.8648 175.869 12.2363C175.993 12.3651 176.1 12.4992 176.186 12.6406H176.195L180.405 19.0859Z" fill="#C6C6C6"/>
<path d="M195.642 17.4508C196.189 17.4508 196.657 17.6383 197.043 18.0138C197.429 18.3881 197.623 18.8423 197.623 19.3747C197.623 19.907 197.429 20.3606 197.043 20.7355C196.657 21.1104 196.189 21.2985 195.642 21.2985H191.68V23.2224H197.623C198.171 23.2224 198.638 23.4099 199.025 23.7848C199.411 24.1603 199.604 24.6139 199.604 25.1463C199.604 25.6786 199.411 26.1322 199.025 26.5078C198.638 26.8834 198.171 27.0708 197.623 27.0708H189.7C189.151 27.0708 188.684 26.8834 188.298 26.5078C187.912 26.1322 187.719 25.6786 187.719 25.1463V13.6024C187.719 13.0707 187.912 12.6171 188.298 12.2409C188.684 11.866 189.151 11.6785 189.7 11.6785H197.623C198.171 11.6785 198.638 11.866 199.025 12.2409C199.411 12.6171 199.604 13.0707 199.604 13.6024C199.604 14.1347 199.411 14.589 199.025 14.9639C198.638 15.3395 198.171 15.5263 197.623 15.5263H191.68V17.4508H195.642Z" fill="#C6C6C6"/>
<path d="M206.076 20.1054L205.611 19.4416L202.362 14.8054C202.197 14.5352 202.115 14.135 202.115 13.6026C202.115 13.0703 202.308 12.6167 202.694 12.2411C203.081 11.8656 203.548 11.6781 204.096 11.6781C204.643 11.6781 205.113 11.8642 205.502 12.2364C205.627 12.3645 205.733 12.5026 205.819 12.65L205.829 12.6407L208.057 15.8827L210.285 12.6407L210.296 12.65C210.381 12.5026 210.487 12.3645 210.612 12.2364C211.001 11.8642 211.471 11.6781 212.019 11.6781C212.567 11.6781 213.034 11.8656 213.42 12.2411C213.806 12.6167 214 13.0703 214 13.6026C214 14.135 213.918 14.5352 213.752 14.8054L210.504 19.4416L210.039 20.1054V25.1465C210.039 25.6782 209.845 26.1318 209.458 26.508C209.072 26.8829 208.605 27.0704 208.057 27.0704C207.508 27.0704 207.042 26.8829 206.655 26.508C206.269 26.1318 206.076 25.6782 206.076 25.1465V20.1054Z" fill="#C6C6C6"/>
<path d="M82.2079 25.1425C82.2079 25.6755 82.0149 26.1284 81.6289 26.504C81.2429 26.8796 80.7759 27.067 80.2278 27.067C79.6798 27.067 79.2134 26.8796 78.8275 26.504C78.4415 26.1284 78.2478 25.6755 78.2478 25.1425V13.6046C78.2478 13.0736 78.4415 12.62 78.8275 12.2444C79.2134 11.8702 79.6798 11.6821 80.2278 11.6821C80.7759 11.6821 81.2429 11.8702 81.6289 12.2444C82.0149 12.62 82.2079 13.0736 82.2079 13.6046V25.1425Z" fill="#C6C6C6"/>
<path d="M98.2152 14.038C98.2674 14.0767 98.321 14.1174 98.3732 14.1627C98.7557 14.5416 98.9473 14.9966 98.9473 15.5282C98.9473 16.0599 98.7543 16.5135 98.3684 16.8884C97.9824 17.2647 97.5154 17.4514 96.968 17.4514C96.4199 17.4514 95.9543 17.262 95.571 16.8844C95.5257 16.8457 95.4824 16.7997 95.4433 16.749C95.3966 16.723 95.354 16.6923 95.3142 16.6529C94.5422 15.9031 93.6089 15.5282 92.5134 15.5282C91.4173 15.5282 90.4832 15.9031 89.7113 16.6529C88.9393 17.4034 88.5526 18.31 88.5526 19.374C88.5526 20.4393 88.9393 21.3459 89.7113 22.0957C90.4832 22.8455 91.4173 23.2204 92.5134 23.2204C93.6089 23.2204 94.5422 22.8455 95.3142 22.0957C95.354 22.057 95.3938 22.0263 95.433 21.9996C95.4728 21.9549 95.5188 21.9062 95.571 21.8555C95.9543 21.4826 96.4199 21.2978 96.968 21.2978C97.5154 21.2978 97.9824 21.4846 98.3684 21.8595C98.7543 22.2344 98.9473 22.6887 98.9473 23.2204C98.9473 23.7527 98.7557 24.205 98.3732 24.5759C98.3072 24.6399 98.2413 24.698 98.1754 24.7493C98.1554 24.7687 98.1362 24.788 98.1163 24.8074C96.5648 26.313 94.6974 27.0668 92.5134 27.0668C90.3287 27.0668 88.462 26.315 86.9146 24.8107C85.3666 23.3084 84.5933 21.496 84.5933 19.374C84.5933 17.2526 85.3666 15.4402 86.9146 13.9372C88.462 12.4343 90.3287 11.6825 92.5134 11.6825C94.6974 11.6825 96.5648 12.4316 98.1163 13.9319C98.1486 13.9639 98.1815 13.9993 98.2152 14.038Z" fill="#C6C6C6"/>
<path d="M108.262 15.5283H105.292V17.4515H108.262C108.533 17.4515 108.766 17.3568 108.961 17.1666C109.155 16.9785 109.252 16.7524 109.252 16.4889C109.252 16.2267 109.155 16.0006 108.961 15.8125C108.766 15.623 108.533 15.5283 108.262 15.5283ZM106.203 21.2972H105.292V25.1423C105.292 25.6753 105.099 26.1283 104.713 26.5038C104.327 26.8794 103.86 27.0668 103.312 27.0668C102.765 27.0668 102.297 26.8794 101.912 26.5038C101.526 26.1283 101.333 25.6753 101.333 25.1423V13.6044C101.333 13.0734 101.526 12.6198 101.912 12.2442C102.297 11.8707 102.765 11.6819 103.312 11.6819H108.262C109.628 11.6819 110.794 12.1515 111.761 13.0908C112.728 14.03 113.213 15.1627 113.213 16.4889C113.213 17.8164 112.73 18.9478 111.767 19.8837C111.43 20.2112 111.067 20.4834 110.678 20.7015L112.965 24.1817H112.954C113.126 24.4699 113.213 24.7907 113.213 25.1423C113.213 25.6753 113.019 26.1283 112.632 26.5038C112.246 26.8794 111.78 27.0668 111.232 27.0668C110.684 27.0668 110.219 26.8774 109.836 26.4978C109.704 26.3784 109.595 26.245 109.509 26.1049H109.5L106.203 21.2972Z" fill="#C6C6C6"/>
<path d="M126.318 22.0957C127.089 21.3459 127.475 20.4393 127.475 19.374C127.475 18.31 127.089 17.4034 126.318 16.6529C125.546 15.9031 124.613 15.5282 123.517 15.5282C122.421 15.5282 121.487 15.9031 120.715 16.6529C119.943 17.4034 119.557 18.31 119.557 19.374C119.557 20.4393 119.943 21.3459 120.715 22.0957C121.487 22.8455 122.421 23.2204 123.517 23.2204C124.613 23.2204 125.546 22.8455 126.318 22.0957ZM123.517 27.0668C121.333 27.0668 119.466 26.315 117.919 24.8107C116.371 23.3084 115.597 21.496 115.597 19.374C115.597 17.2526 116.371 15.4395 117.919 13.9372C119.466 12.4343 121.333 11.6825 123.517 11.6825C125.701 11.6825 127.567 12.4343 129.113 13.9372C130.661 15.4395 131.435 17.2526 131.435 19.374C131.435 21.496 130.661 23.3084 129.113 24.8107C127.567 26.315 125.701 27.0668 123.517 27.0668Z" fill="#C6C6C6"/>
<path d="M74.3851 11.8635C73.5898 11.6166 72.7231 11.8988 72.2395 12.5599L67.0192 19.705L61.7982 12.5599C61.316 11.8988 60.4486 11.6173 59.6526 11.8635C58.8587 12.1096 58.3188 12.8254 58.3188 13.6366V25.1091C58.3188 26.1377 59.1767 26.9702 60.235 26.9702C61.2934 26.9702 62.1519 26.1377 62.1519 25.1091V19.4769L65.3887 23.9077C65.7768 24.438 66.3976 24.7102 67.0199 24.6902C67.6421 24.7102 68.2616 24.438 68.649 23.9077L71.8865 19.4769V25.1091C71.8865 26.1377 72.7443 26.9702 73.8027 26.9702C74.8611 26.9702 75.7196 26.1377 75.7196 25.1091V13.6366C75.7196 12.8254 75.1804 12.1096 74.3851 11.8635Z" fill="#C6C6C6"/>
<path d="M150.102 11.8644C149.306 11.6176 148.439 11.8998 147.956 12.5609L142.736 19.706L137.514 12.5609C137.032 11.8998 136.165 11.6183 135.369 11.8644C134.575 12.1106 134.035 12.8264 134.035 13.6375V25.1101C134.035 26.1387 134.893 26.9712 135.951 26.9712C137.01 26.9712 137.868 26.1387 137.868 25.1101V19.4779L141.105 23.9086C141.493 24.439 142.113 24.7111 142.736 24.6911C143.358 24.7111 143.978 24.439 144.365 23.9086L147.603 19.4779V25.1101C147.603 26.1387 148.46 26.9712 149.519 26.9712C150.577 26.9712 151.435 26.1387 151.435 25.1101V13.6375C151.435 12.8264 150.896 12.1106 150.102 11.8644Z" fill="#C6C6C6"/>
</svg>
