<svg width="40" height="28" viewBox="0 0 40 28" fill="none" xmlns="http://www.w3.org/2000/svg">
<path d="M36.8837 13.2377C38.1478 11.8837 38.9237 10.0686 38.9237 8.07483C38.9237 3.89804 35.5245 0.5 31.3464 0.5H8.24748C4.06943 0.5 0.670303 3.89804 0.670303 8.07483C0.670303 10.0686 1.44612 11.8837 2.71023 13.2377C1.05476 14.6283 0 16.7116 0 19.0373V19.9253C0 24.102 3.39905 27.5 7.5771 27.5H32.0169C36.1948 27.5 39.594 24.102 39.594 19.9253V19.0373C39.594 16.7116 38.5392 14.6283 36.8837 13.2377ZM8.24748 4.68689H31.3464C33.2151 4.68689 34.7354 6.20672 34.7354 8.07483C34.7354 9.94293 33.2151 11.4626 31.3464 11.4626H25.6396V6.25977H21.4514V11.4626H18.1699V6.25977H13.9817V11.4626H8.24748C6.37878 11.4626 4.85853 9.94293 4.85853 8.07483C4.85853 6.20672 6.37878 4.68689 8.24748 4.68689ZM35.4057 19.9253C35.4057 21.7934 33.8854 23.3131 32.0169 23.3131H25.6396V17.2966H21.4514V23.3131H18.1699V17.2966H13.9817V23.3131H7.5771C5.70848 23.3131 4.18823 21.7934 4.18823 19.9253V19.0373C4.18823 17.1692 5.70848 15.6495 7.5771 15.6495H8.24748H31.3464H32.0169C33.8854 15.6495 35.4057 17.1692 35.4057 19.0373V19.9253Z" fill="white"/>
</svg>
