<svg width="160" height="41" viewBox="0 0 160 41" fill="none" xmlns="http://www.w3.org/2000/svg">
<path d="M147.616 39.9375C145.257 39.9375 142.99 39.9375 140.666 39.9375C140.642 39.7091 140.608 39.492 140.608 39.275C140.608 30.4 140.608 21.5364 140.596 12.6614C140.596 12.136 140.712 11.9304 141.293 11.9418C143.176 11.9761 145.048 11.9646 146.931 11.9418C147.43 11.9304 147.663 12.0217 147.628 12.5929C147.57 13.4609 147.616 14.3404 147.616 15.22C147.616 15.4027 147.64 15.5855 147.663 15.9053C147.965 15.6197 148.174 15.437 148.372 15.2428C149.813 13.8836 151.336 12.6157 153.277 11.9646C154.986 11.3935 156.729 11.3478 158.484 11.759C158.996 11.8847 159.24 12.0789 159.089 12.7071C158.659 14.4547 158.333 16.2365 157.973 18.007C157.926 18.2011 157.868 18.3953 157.845 18.4981C156.752 18.3725 155.753 18.1669 154.742 18.1669C152.638 18.1669 150.871 19.1149 149.267 20.3713C147.628 21.6506 147.64 21.662 147.64 23.718C147.64 28.8923 147.64 34.0779 147.64 39.2522C147.616 39.4692 147.616 39.6748 147.616 39.9375Z" fill="#C6C6C6"/>
<path d="M108.457 16.0881C109.596 14.1806 111.293 13.0612 113.269 12.3188C116.803 10.9938 120.452 10.9938 124.137 11.3822C125.695 11.5421 127.182 11.8962 128.577 12.5815C131.134 13.8379 132.355 16.0082 132.738 18.7152C132.843 19.4805 132.878 20.2686 132.878 21.0453C132.889 27.179 132.889 33.3013 132.889 39.435C132.889 39.5835 132.889 39.732 132.889 39.9262C132.692 39.9376 132.529 39.9604 132.366 39.9604C130.6 39.9604 128.845 39.949 127.078 39.9718C126.578 39.9833 126.45 39.8119 126.473 39.355C126.508 38.6583 126.485 37.9615 126.485 37.1163C126.206 37.3105 126.02 37.4247 125.857 37.5618C122.87 40.0404 119.453 41.1597 115.536 40.68C111.642 40.2003 108.934 37.9044 108.202 34.1237C107.678 31.4395 107.946 28.801 109.713 26.5165C110.933 24.9403 112.653 24.095 114.536 23.5239C116.849 22.8158 119.232 22.633 121.626 22.3931C122.94 22.2675 124.253 22.1647 125.555 22.0276C125.683 22.0162 125.892 21.8449 125.892 21.7421C125.915 20.7027 125.962 19.6518 125.485 18.6581C125.125 17.9042 124.521 17.4017 123.73 17.1732C121.01 16.3622 118.302 16.3166 115.745 17.6986C115.106 18.0413 114.641 18.6809 114.071 19.1607C113.955 19.2635 113.688 19.3663 113.583 19.2977C111.886 18.2469 110.201 17.1846 108.457 16.0881ZM125.869 26.9277C125.485 26.9506 125.148 26.962 124.811 26.9849C124.277 27.0305 123.73 27.0877 123.196 27.1448C121.487 27.3275 119.778 27.476 118.128 28.0357C116.012 28.7553 114.885 30.5257 115.245 32.6959C115.443 33.9181 116.082 34.8205 117.349 35.0603C118.221 35.2317 119.162 35.3002 120.046 35.186C122.022 34.9461 123.649 33.9067 125.241 32.7987C125.729 32.4561 125.939 32.0906 125.915 31.4852C125.869 30.1716 125.904 28.8581 125.904 27.5445C125.904 27.3618 125.881 27.179 125.869 26.9277Z" fill="#C6C6C6"/>
<path d="M86.724 0.21698H79.8223L79.824 39.8961H86.724V0.21698Z" fill="#C6C6C6"/>
<path d="M101.693 0.21698H94.7908L94.7925 39.8961H101.693V0.21698Z" fill="#C6C6C6"/>
<path d="M54.5249 27.7158C54.7109 29.966 55.0015 32.0448 56.8728 33.484C57.6865 34.1122 58.6396 34.3978 59.6508 34.5463C61.65 34.8432 63.6492 34.8775 65.5322 34.078C66.4272 33.6896 67.1944 33.0157 68.1359 32.3989C69.705 33.4954 71.4253 34.6948 73.1804 35.9169C72.2738 37.2191 71.1928 38.2128 69.8794 38.9781C67.7755 40.2117 65.4509 40.6114 63.0565 40.7142C60.9061 40.8056 58.7558 40.7828 56.652 40.2916C52.7233 39.3893 49.9105 37.1962 48.4924 33.4269C47.1674 29.9317 47.0976 26.3109 47.5626 22.6786C47.7601 21.1709 48.1321 19.6404 48.69 18.224C49.957 15.0144 52.2933 12.8442 55.7105 11.8619C58.9999 10.9138 62.3242 10.8339 65.6136 11.7476C69.612 12.8556 71.9018 15.5969 72.9479 19.469C73.6686 22.1646 73.4826 24.8945 73.5175 27.7044C67.1711 27.7158 60.8945 27.7158 54.5249 27.7158ZM54.5947 22.8386C54.8039 22.9414 54.8388 22.9756 54.8736 22.9756C58.628 22.987 62.3823 22.987 66.1366 22.9985C66.4737 22.9985 66.5202 22.8157 66.4853 22.553C66.3807 21.7991 66.3575 21.0339 66.1599 20.3028C65.7879 18.8979 64.9859 17.7785 63.5911 17.1732C62.0104 16.4764 60.3598 16.4993 58.7093 16.8876C57.2564 17.2303 56.1987 18.1098 55.6524 19.4462C55.2107 20.5199 54.9434 21.6963 54.5947 22.8386Z" fill="#C6C6C6"/>
<path d="M36.7529 11.9532C38.7289 11.9532 40.6467 11.9532 42.5646 11.9532C43.355 11.9532 43.355 11.9532 43.355 12.7528C43.355 14.1006 43.3434 15.4598 43.3666 16.8077C43.3782 17.2303 43.2271 17.3673 42.7971 17.3559C40.9954 17.3331 39.1938 17.3559 37.3922 17.3331C36.8924 17.3217 36.7181 17.4587 36.7181 17.9727C36.7529 22.4845 36.7413 26.9962 36.7762 31.4966C36.7762 32.0905 36.9157 32.7073 37.09 33.2784C37.4736 34.5463 38.8684 35.323 40.3213 35.0945C41.286 34.946 42.2508 34.7176 43.2039 34.5006C43.541 34.4206 43.7618 34.4206 43.8432 34.809C44.1686 36.3738 44.4941 37.9272 44.8428 39.4806C44.9241 39.8462 44.8079 39.9604 44.4941 40.0403C42.1578 40.6 39.7982 40.9541 37.3806 40.6685C36.1253 40.5201 34.8816 40.3601 33.7309 39.8347C31.5573 38.841 30.4763 37.0363 30.0579 34.8204C29.8487 33.6668 29.7208 32.4789 29.7092 31.3138C29.6743 26.9163 29.6976 22.5187 29.6976 18.1212C29.6976 17.3445 29.6976 17.3445 28.8839 17.3445C28.1052 17.3445 27.338 17.3331 26.5593 17.3559C26.1989 17.3673 26.0943 17.2417 26.0943 16.899C26.1176 15.437 26.1176 13.9635 26.0943 12.5015C26.0827 12.0675 26.2454 11.9418 26.6639 11.9532C27.4775 11.9761 28.2911 11.9304 29.1048 11.9761C29.5813 11.9989 29.6976 11.8504 29.6976 11.3936C29.6743 9.20051 29.6976 7.01887 29.6743 4.82582C29.6743 4.33467 29.7905 4.17476 30.3252 4.17476C32.2431 4.20902 34.1609 4.20902 36.0788 4.17476C36.6018 4.16333 36.7413 4.34609 36.7413 4.82582C36.7181 7.05314 36.7297 9.28046 36.7297 11.5078C36.7181 11.6334 36.7413 11.7591 36.7529 11.9532Z" fill="#C6C6C6"/>
<path d="M0 35.8713C1.11584 35.0945 2.20843 34.3407 3.2894 33.5868C3.81245 33.2213 4.3355 32.8786 4.85855 32.5017C5.09102 32.3304 5.25375 32.3532 5.43972 32.5817C7.26459 34.8318 9.77523 35.2202 12.4835 35.0831C13.6109 35.026 14.7151 34.9232 15.6915 34.2493C16.9236 33.4041 17.0631 31.508 15.9123 30.7313C15.3893 30.3772 14.8081 30.0802 14.2153 29.8975C12.3905 29.3606 10.5307 28.9152 8.69426 28.4012C6.81128 27.8643 4.96316 27.2133 3.44051 25.9568C1.03448 23.9694 0.232467 21.3537 0.6974 18.3725C1.1972 15.1286 3.25453 13.0955 6.29985 11.9875C9.01971 10.9938 11.8326 11.0281 14.657 11.3365C16.4935 11.5421 18.2603 12.0104 19.8875 12.8899C21.2358 13.6095 22.3401 14.6032 23.2002 15.9282C22.619 16.3394 22.0495 16.7277 21.4799 17.1275C20.4338 17.8585 19.3993 18.5781 18.3649 19.3091C18.144 19.469 17.9813 19.5718 17.7488 19.2749C15.9705 16.9904 13.4831 16.5678 10.7865 16.8305C10.0774 16.899 9.35678 17.1389 8.70588 17.4473C7.93874 17.8128 7.45056 18.4753 7.46218 19.3662C7.4738 20.2686 7.93874 20.9882 8.77562 21.2966C10.2169 21.8334 11.6815 22.2903 13.1692 22.7015C15.1917 23.2726 17.2142 23.8323 19.1204 24.7346C22.0727 26.1396 23.793 29.1208 23.607 32.3532C23.3629 36.7736 20.2827 39.3893 16.1913 40.303C12.96 41.0226 9.72873 40.897 6.53232 40.1546C4.05654 39.572 1.87136 38.4184 0.31383 36.3396C0.20922 36.1911 0.127857 36.054 0 35.8713Z" fill="#C6C6C6"/>
</svg>
