<svg width="76" height="64" viewBox="0 0 76 64" fill="none" xmlns="http://www.w3.org/2000/svg">
<path d="M56.1024 50.6701H0.897638C0.403937 50.6701 0 50.2661 0 49.7724V7.89764C0 7.40394 0.403937 7 0.897638 7H56.1024C56.5961 7 57 7.40394 57 7.89764V49.7724C57 50.311 56.5961 50.6701 56.1024 50.6701ZM1.79528 48.8748H55.2047V8.79528H1.79528V48.8748Z" fill="#353B63"/>
<path d="M52.0182 41.7834H5.70004C5.43075 41.7834 5.25122 41.6039 5.25122 41.3346V12.3409C5.25122 12.0716 5.43075 11.8921 5.70004 11.8921H52.0182C52.2874 11.8921 52.467 12.0716 52.467 12.3409V41.3346C52.467 41.6039 52.2426 41.7834 52.0182 41.7834ZM6.14886 40.8858H51.5693V12.7897H6.14886V40.8858Z" fill="#353B63"/>
<path d="M42.0992 64.0001H14.9008C14.4071 64.0001 14.0032 63.5961 14.0032 63.1024V58.6591C14.0032 58.1654 14.4071 57.7615 14.9008 57.7615H42.0544C42.5481 57.7615 42.952 58.1654 42.952 58.6591V63.1024C42.9969 63.5961 42.5929 64.0001 42.0992 64.0001ZM15.7984 62.2048H41.1567V59.5568H15.7984V62.2048Z" fill="#353B63"/>
<path d="M37.3864 59.5567H19.6132C19.299 59.5567 19.0297 59.422 18.8951 59.1527C18.7156 58.9283 18.6707 58.6142 18.8053 58.3449L22.1266 49.5031C22.2612 49.1441 22.5754 48.9197 22.9794 48.9197H34.0652C34.4242 48.9197 34.7833 49.1441 34.9179 49.5031L38.2392 58.3449C38.329 58.6142 38.2841 58.9283 38.1494 59.1527C37.9699 59.422 37.7006 59.5567 37.3864 59.5567ZM20.9148 57.7614H36.0849L33.4368 50.6701H23.5628L20.9148 57.7614Z" fill="#353B63"/>
<path d="M28.5001 47.3938C27.1985 47.3938 26.1663 46.3166 26.1663 45.0599C26.1663 43.7584 27.2434 42.7261 28.5001 42.7261C29.8017 42.7261 30.834 43.8032 30.834 45.0599C30.834 46.3615 29.8017 47.3938 28.5001 47.3938ZM28.5001 43.5788C27.6922 43.5788 27.0639 44.2521 27.0639 45.015C27.0639 45.8229 27.7371 46.4513 28.5001 46.4513C29.308 46.4513 29.9363 45.778 29.9363 45.015C29.9363 44.2521 29.308 43.5788 28.5001 43.5788Z" fill="#353B63"/>
<path d="M28.3299 35.0409C28.2794 35.0409 28.1784 35.0409 28.1279 34.9906C20.0502 31.3622 21.0095 20.9811 21.06 20.8803C21.06 20.6283 21.2619 20.4772 21.5143 20.4268C26.4114 19.9732 27.825 17.3528 27.926 17.252C28.027 17.1008 28.1784 17 28.3804 17C28.5823 17 28.7338 17.1008 28.8347 17.252C28.8852 17.3528 30.2988 19.9732 35.2464 20.4268C35.4988 20.4268 35.7008 20.6283 35.7008 20.8803C35.7008 20.9811 36.7105 31.3622 28.6328 34.9906C28.4813 35.0409 28.4309 35.0409 28.3299 35.0409ZM22.0192 21.4346C21.9182 23.2992 21.9687 31.0094 28.3299 33.9827C34.6911 30.9591 34.7416 23.2488 34.6406 21.4346C30.9046 20.9811 29.0872 19.3181 28.3299 18.411C27.5726 19.3181 25.7551 20.9811 22.0192 21.4346Z" fill="#353B63"/>
<path d="M58 36C48.0606 36 40 27.9394 40 18C40 8.06061 48.0606 0 58 0C67.9394 0 76 8.06061 76 18C76 27.9394 67.9394 36 58 36Z" fill="#40B4FF"/>
<path d="M59.0932 25.133C57.9388 25.133 56.9971 24.2443 56.9971 23.1549C56.9971 22.0655 57.9388 21.1768 59.0932 21.1768C60.2476 21.1768 61.1893 22.0655 61.1893 23.1549C61.159 24.2443 60.2476 25.133 59.0932 25.133ZM59.0932 21.7788C58.273 21.7788 57.6046 22.4095 57.6046 23.1836C57.6046 23.9576 58.273 24.5883 59.0932 24.5883C59.9134 24.5883 60.5818 23.9576 60.5818 23.1836C60.5514 22.4095 59.9134 21.7788 59.0932 21.7788Z" fill="#353B63"/>
<path d="M63.2549 14.1532C62.2828 14.1532 61.4929 13.4078 61.4929 12.4904C61.4929 11.573 62.2828 10.8276 63.2549 10.8276C64.227 10.8276 65.0169 11.573 65.0169 12.4904C65.0169 13.4078 64.227 14.1532 63.2549 14.1532ZM63.2549 11.3723C62.6169 11.3723 62.1005 11.8597 62.1005 12.4617C62.1005 13.0638 62.6169 13.5512 63.2549 13.5512C63.8928 13.5512 64.4093 13.0638 64.4093 12.4617C64.4093 11.8597 63.8928 11.3723 63.2549 11.3723Z" fill="#353B63"/>
<path d="M70.0293 20.546C69.0572 20.546 68.2673 19.8006 68.2673 18.8832C68.2673 17.9658 69.0572 17.2205 70.0293 17.2205C71.0014 17.2205 71.7913 17.9658 71.7913 18.8832C71.7913 19.8006 71.0014 20.546 70.0293 20.546ZM70.0293 17.7652C69.3913 17.7652 68.8749 18.2525 68.8749 18.8546C68.8749 19.4566 69.3913 19.944 70.0293 19.944C70.6673 19.944 71.1837 19.4566 71.1837 18.8546C71.1837 18.2812 70.6673 17.7652 70.0293 17.7652Z" fill="#353B63"/>
<path d="M50.1315 20.6035C48.9771 20.6035 48.0354 19.7148 48.0354 18.6253C48.0354 17.5359 48.9771 16.6472 50.1315 16.6472C51.2859 16.6472 52.2277 17.5359 52.2277 18.6253C52.1973 19.7148 51.2859 20.6035 50.1315 20.6035ZM50.1315 17.2493C49.3113 17.2493 48.643 17.88 48.643 18.654C48.643 19.4281 49.3113 20.0588 50.1315 20.0588C50.9518 20.0588 51.6201 19.4281 51.6201 18.654C51.5897 17.88 50.9518 17.2493 50.1315 17.2493Z" fill="#353B63"/>
<path d="M42.6823 26.0573C42.6215 26.0573 42.5607 26.0287 42.5 26C42.3785 25.914 42.3481 25.742 42.4392 25.6273L48.4836 19.6847C48.5748 19.5413 48.757 19.5127 48.9089 19.5987C49.0608 19.6847 49.0912 19.8567 49.0001 20L42.9253 25.9427C42.8645 26.0287 42.7734 26.0573 42.6823 26.0573Z" fill="#353B63"/>
<path d="M57.4525 22.7822C57.3918 22.7822 57.3614 22.7822 57.3007 22.7536L51.4983 19.772C51.3464 19.686 51.2857 19.514 51.3768 19.3707C51.4679 19.2273 51.6502 19.17 51.8021 19.256L57.6348 22.2375C57.7867 22.3235 57.8475 22.4955 57.7563 22.6389C57.6652 22.7249 57.5741 22.7822 57.4525 22.7822Z" fill="#353B63"/>
<path d="M59.7614 21.8934C59.7311 21.8934 59.7007 21.8934 59.6703 21.8648C59.5184 21.8074 59.4273 21.6354 59.488 21.4921L62.5563 13.6656C62.617 13.5222 62.7993 13.4362 62.9512 13.4935C63.1031 13.5509 63.1942 13.7229 63.1335 13.8662L60.0348 21.6928C59.9741 21.8074 59.8829 21.8934 59.7614 21.8934Z" fill="#353B63"/>
<path d="M69.0574 18.1092C68.9662 18.1092 68.9055 18.0805 68.8447 18.0232L64.0753 13.6656C63.9538 13.5509 63.9538 13.3789 64.0753 13.2642C64.1968 13.1496 64.3791 13.1496 64.5006 13.2642L69.3004 17.6219C69.4219 17.7365 69.4219 17.9085 69.3004 18.0232C69.2396 18.0805 69.1485 18.1092 69.0574 18.1092Z" fill="#353B63"/>
<path d="M70.7889 17.9946C70.7585 17.9946 70.7281 17.9946 70.6674 17.9659C70.5155 17.9086 70.4243 17.7365 70.4851 17.5932L73 10.5C73.0608 10.3567 73.243 10.2707 73.3949 10.328C73.5468 10.3854 73.638 10.5574 73.5772 10.7007L71.0623 17.7939C71.0319 17.9086 70.9104 17.9946 70.7889 17.9946Z" fill="#353B63"/>
<path d="M58 36C48.0606 36 40 27.9394 40 18C40 8.06061 48.0606 0 58 0C67.9394 0 76 8.06061 76 18C76 27.9394 67.9394 36 58 36ZM58 2.42424C49.4545 2.42424 42.4242 9.39394 42.4242 18C42.4242 26.6061 49.3939 33.5758 58 33.5758C66.6061 33.5758 73.5758 26.6061 73.5758 18C73.5758 9.39394 66.6061 2.42424 58 2.42424Z" fill="#353B63"/>
</svg>
