<svg width="70" height="65" viewBox="0 0 70 65" fill="none" xmlns="http://www.w3.org/2000/svg">
<path d="M43.9999 45.5306C43.5495 45.5306 43.181 45.1621 43.181 44.7117V37.3416C43.181 36.8912 43.5495 36.5227 43.9999 36.5227C44.4503 36.5227 44.8188 36.8912 44.8188 37.3416V44.7117C44.8188 45.1621 44.4503 45.5306 43.9999 45.5306Z" fill="#353B63"/>
<path d="M49.7324 51.9999H38.2679C37.8175 51.9999 37.449 51.6314 37.449 51.181V44.7117C37.449 44.2613 37.8175 43.8928 38.2679 43.8928H49.7324C50.1828 43.8928 50.5513 44.2613 50.5513 44.7117V51.181C50.5513 51.6314 50.1828 51.9999 49.7324 51.9999ZM39.0868 50.3621H48.9135V45.5306H39.0868V50.3621Z" fill="#353B63"/>
<path d="M64.5952 48.7655H49.7322C49.2818 48.7655 48.9133 48.397 48.9133 47.9466C48.9133 47.4962 49.2818 47.1277 49.7322 47.1277H64.5952C65.0456 47.1277 65.4141 47.4962 65.4141 47.9466C65.4141 48.397 65.0456 48.7655 64.5952 48.7655Z" fill="#353B63"/>
<path d="M38.2676 48.7655H7.40459C6.9542 48.7655 6.58569 48.397 6.58569 47.9466C6.58569 47.4962 6.9542 47.1277 7.40459 47.1277H38.2676C38.718 47.1277 39.0865 47.4962 39.0865 47.9466C39.0865 48.397 38.718 48.7655 38.2676 48.7655Z" fill="#353B63"/>
<path d="M69.1811 38.2017H18.8189C18.3685 38.2017 18 37.8332 18 37.3828V25.1812C18 24.7308 18.3685 24.3623 18.8189 24.3623H69.1811C69.6315 24.3623 70 24.7308 70 25.1812V37.3828C70 37.8332 69.6315 38.2017 69.1811 38.2017ZM19.6378 36.5639H68.3622V26.0001H19.6378V36.5639Z" fill="#353B63"/>
<path d="M24.1829 33.6159C23.9372 33.6159 23.7734 33.4521 23.7734 33.2064V29.3167C23.7734 29.071 23.9372 28.9072 24.1829 28.9072C24.4286 28.9072 24.5923 29.071 24.5923 29.3167V33.2064C24.5923 33.4521 24.3876 33.6159 24.1829 33.6159Z" fill="#353B63"/>
<path d="M29.3827 33.6159C29.137 33.6159 28.9733 33.4521 28.9733 33.2064V29.3167C28.9733 29.071 29.137 28.9072 29.3827 28.9072C29.6284 28.9072 29.7922 29.071 29.7922 29.3167V33.2064C29.7922 33.4521 29.5874 33.6159 29.3827 33.6159Z" fill="#353B63"/>
<path d="M63.8172 31.6912H51.6565C51.4108 31.6912 51.2471 31.5274 51.2471 31.2818C51.2471 31.0361 51.4108 30.8723 51.6565 30.8723H63.8172C64.0628 30.8723 64.2266 31.0361 64.2266 31.2818C64.2266 31.5274 64.0628 31.6912 63.8172 31.6912Z" fill="#353B63"/>
<path d="M69.1811 26.0001H18.8189C18.3685 26.0001 18 25.6316 18 25.1812V13.0206C18 12.5702 18.3685 12.2017 18.8189 12.2017H69.1811C69.6315 12.2017 70 12.5702 70 13.0206V25.1812C70 25.6316 69.6315 26.0001 69.1811 26.0001ZM19.6378 24.3623H68.3622V13.8395H19.6378V24.3623Z" fill="#353B63"/>
<path d="M24.1829 21.4552C23.9372 21.4552 23.7734 21.2915 23.7734 21.0458V17.156C23.7734 16.9104 23.9372 16.7466 24.1829 16.7466C24.4286 16.7466 24.5923 16.9104 24.5923 17.156V21.0458C24.5923 21.2505 24.3876 21.4552 24.1829 21.4552Z" fill="#353B63"/>
<path d="M29.3827 21.4552C29.137 21.4552 28.9733 21.2915 28.9733 21.0458V17.156C28.9733 16.9104 29.137 16.7466 29.3827 16.7466C29.6284 16.7466 29.7922 16.9104 29.7922 17.156V21.0458C29.7922 21.2505 29.5874 21.4552 29.3827 21.4552Z" fill="#353B63"/>
<path d="M63.8172 19.49H51.6565C51.4108 19.49 51.2471 19.3263 51.2471 19.0806C51.2471 18.8349 51.4108 18.6711 51.6565 18.6711H63.8172C64.0628 18.6711 64.2266 18.8349 64.2266 19.0806C64.2266 19.3263 64.0628 19.49 63.8172 19.49Z" fill="#353B63"/>
<path d="M69.1811 13.8394H18.8189C18.3685 13.8394 18 13.4709 18 13.0205V0.818898C18 0.368504 18.3685 0 18.8189 0H69.1811C69.6315 0 70 0.368504 70 0.818898V13.0205C70 13.4709 69.6315 13.8394 69.1811 13.8394ZM19.6378 12.2016H68.3622V1.6378H19.6378V12.2016Z" fill="#353B63"/>
<path d="M24.1829 9.25358C23.9372 9.25358 23.7734 9.0898 23.7734 8.84413V4.95437C23.7734 4.7087 23.9372 4.54492 24.1829 4.54492C24.4286 4.54492 24.5923 4.7087 24.5923 4.95437V8.84413C24.5923 9.0898 24.3876 9.25358 24.1829 9.25358Z" fill="#353B63"/>
<path d="M29.3827 9.25358C29.137 9.25358 28.9733 9.0898 28.9733 8.84413V4.95437C28.9733 4.7087 29.137 4.54492 29.3827 4.54492C29.6284 4.54492 29.7922 4.7087 29.7922 4.95437V8.84413C29.7922 9.0898 29.5874 9.25358 29.3827 9.25358Z" fill="#353B63"/>
<path d="M63.8172 7.32915H51.6565C51.4108 7.32915 51.2471 7.16537 51.2471 6.9197C51.2471 6.67403 51.4108 6.51025 51.6565 6.51025H63.8172C64.0628 6.51025 64.2266 6.67403 64.2266 6.9197C64.2266 7.12443 64.0628 7.32915 63.8172 7.32915Z" fill="#353B63"/>
<path d="M36.3435 9.25365C35.0333 9.25365 34.0096 8.18909 34.0096 6.9198C34.0096 5.60956 35.0742 4.58594 36.3435 4.58594C37.6537 4.58594 38.6774 5.6505 38.6774 6.9198C38.6774 8.18909 37.6537 9.25365 36.3435 9.25365ZM36.3435 5.40484C35.4837 5.40484 34.8285 6.1009 34.8285 6.9198C34.8285 7.77964 35.5246 8.43476 36.3435 8.43476C37.2033 8.43476 37.8585 7.73869 37.8585 6.9198C37.8585 6.05995 37.2033 5.40484 36.3435 5.40484Z" fill="#353B63"/>
<path d="M43.7544 9.25341C42.4442 9.25341 41.4205 8.18884 41.4205 6.91955C41.4205 5.60932 42.4851 4.58569 43.7544 4.58569C45.0646 4.58569 46.0882 5.65026 46.0882 6.91955C46.0882 8.18884 45.0237 9.25341 43.7544 9.25341ZM43.7544 5.40459C42.8945 5.40459 42.2394 6.10065 42.2394 6.91955C42.2394 7.77939 42.9355 8.43451 43.7544 8.43451C44.6142 8.43451 45.2694 7.73845 45.2694 6.91955C45.2694 6.05971 44.5733 5.40459 43.7544 5.40459Z" fill="#353B63"/>
<path d="M36.3435 21.4553C35.0333 21.4553 34.0096 20.3907 34.0096 19.1215C34.0096 17.8112 35.0742 16.7876 36.3435 16.7876C37.6537 16.7876 38.6774 17.8522 38.6774 19.1215C38.6774 20.3907 37.6537 21.4553 36.3435 21.4553ZM36.3435 17.5656C35.4837 17.5656 34.8285 18.2616 34.8285 19.0805C34.8285 19.9404 35.5246 20.5955 36.3435 20.5955C37.2033 20.5955 37.8585 19.8994 37.8585 19.0805C37.8585 18.2616 37.2033 17.5656 36.3435 17.5656Z" fill="#353B63"/>
<path d="M43.7544 21.4551C42.4442 21.4551 41.4205 20.3905 41.4205 19.1212C41.4205 17.811 42.4851 16.7874 43.7544 16.7874C45.0646 16.7874 46.0882 17.8519 46.0882 19.1212C46.0882 20.3905 45.0237 21.4551 43.7544 21.4551ZM43.7544 17.5653C42.8945 17.5653 42.2394 18.2614 42.2394 19.0803C42.2394 19.9401 42.9355 20.5952 43.7544 20.5952C44.6142 20.5952 45.2694 19.8992 45.2694 19.0803C45.2694 18.2614 44.5733 17.5653 43.7544 17.5653Z" fill="#353B63"/>
<path d="M36.3435 33.6157C35.0333 33.6157 34.0096 32.5511 34.0096 31.2819C34.0096 29.9716 35.0742 28.948 36.3435 28.948C37.6537 28.948 38.6774 30.0126 38.6774 31.2819C38.6774 32.5921 37.6537 33.6157 36.3435 33.6157ZM36.3435 29.7669C35.4837 29.7669 34.8285 30.463 34.8285 31.2819C34.8285 32.1417 35.5246 32.7968 36.3435 32.7968C37.2033 32.7968 37.8585 32.1008 37.8585 31.2819C37.8585 30.422 37.2033 29.7669 36.3435 29.7669Z" fill="#353B63"/>
<path d="M43.7544 33.6157C42.4442 33.6157 41.4205 32.5511 41.4205 31.2819C41.4205 29.9716 42.4851 28.948 43.7544 28.948C45.0646 28.948 46.0882 30.0126 46.0882 31.2819C46.0882 32.5921 45.0237 33.6157 43.7544 33.6157ZM43.7544 29.7669C42.8945 29.7669 42.2394 30.463 42.2394 31.2819C42.2394 32.1417 42.9355 32.7968 43.7544 32.7968C44.6142 32.7968 45.2694 32.1008 45.2694 31.2819C45.2694 30.422 44.5733 29.7669 43.7544 29.7669Z" fill="#353B63"/>
<path d="M24.996 60.1244L17.996 48L11.9338 51.5L18.9338 63.6244L20.3495 59.0764L24.996 60.1244Z" fill="#40B4FF" stroke="#353B63" stroke-linecap="round" stroke-linejoin="round"/>
<path d="M1.00008 59.9505L8.00008 47.8262L14.0623 51.3262L7.06226 63.4505L5.64655 58.9026L1.00008 59.9505Z" fill="#40B4FF" stroke="#353B63" stroke-linecap="round" stroke-linejoin="round"/>
<path d="M13.0213 54C11.8906 54 10.9518 53.3249 10.6318 52.2817C10.4825 51.7703 10.0771 51.3816 9.56507 51.2384C9.0317 51.0747 8.49832 51.1566 8.05029 51.4839C7.15422 52.1385 5.98079 52.1589 5.06339 51.5248C4.14599 50.8906 3.80463 49.8065 4.18866 48.7836C4.38067 48.2927 4.29533 47.7608 3.97531 47.3312C3.65528 46.9017 3.14324 46.6766 2.60987 46.6766C1.47912 46.6971 0.519042 46.0629 0.156347 45.0197C-0.206347 43.9969 0.156347 42.9331 1.09509 42.3194C1.54312 42.0126 1.79914 41.5421 1.79914 41.0102C1.79914 40.4784 1.54312 40.0079 1.09509 39.701C0.156347 39.0873 -0.227682 38.0236 0.135012 36.9803C0.476372 35.9371 1.43645 35.3029 2.58853 35.3234C3.14324 35.3438 3.63395 35.0983 3.95397 34.6688C4.274 34.2392 4.35934 33.7073 4.16732 33.2164C3.78329 32.1935 4.12465 31.1094 5.04206 30.4752C5.95946 29.8411 7.13288 29.8615 8.02895 30.5161C8.45565 30.8434 9.01036 30.9253 9.54373 30.7616C10.0771 30.598 10.4611 30.2093 10.6105 29.7183C10.9305 28.6751 11.8692 28 13 28C14.1308 28 15.0695 28.6751 15.3895 29.7183C15.5389 30.2297 15.9442 30.6184 16.4563 30.7616C16.9896 30.9253 17.523 30.8434 17.971 30.5161C18.8671 29.8615 20.0405 29.8411 20.9579 30.4752C21.8753 31.1094 22.2167 32.1935 21.8327 33.2164C21.6407 33.7073 21.726 34.2392 22.046 34.6688C22.3661 35.0983 22.8781 35.3234 23.4115 35.3234C24.5422 35.3029 25.5023 35.9371 25.865 36.9803C26.2063 38.0236 25.8437 39.0873 24.9049 39.701C24.4569 40.0079 24.2009 40.4784 24.2009 41.0102C24.2009 41.5421 24.4569 42.0126 24.9049 42.3194C25.8437 42.9331 26.2277 43.9969 25.865 45.0401C25.5236 46.0834 24.5636 46.7175 23.4115 46.6971C22.8568 46.6766 22.3661 46.9221 22.046 47.3517C21.726 47.7813 21.6407 48.3131 21.8327 48.8041C22.2167 49.8269 21.8753 50.9111 20.9579 51.5452C20.0405 52.1794 18.8671 52.1589 17.971 51.5043C17.5443 51.177 16.9896 51.0952 16.4563 51.2589C15.9229 51.4225 15.5389 51.8112 15.3895 52.3021C15.0908 53.3249 14.1521 54 13.0213 54Z" fill="#40B4FF"/>
<path d="M13.0213 54C11.8906 54 10.9518 53.3249 10.6318 52.2817C10.4825 51.7703 10.0771 51.3816 9.56507 51.2384C9.0317 51.0747 8.49832 51.1566 8.05029 51.4839C7.15422 52.1385 5.98079 52.1589 5.06339 51.5248C4.14599 50.8906 3.80463 49.8065 4.18866 48.7836C4.38067 48.2927 4.29533 47.7608 3.97531 47.3312C3.65528 46.9017 3.14324 46.6766 2.60987 46.6766C1.47912 46.6971 0.519042 46.0629 0.156347 45.0197C-0.206347 43.9969 0.156347 42.9331 1.09509 42.3194C1.54312 42.0126 1.79914 41.5421 1.79914 41.0102C1.79914 40.4784 1.54312 40.0079 1.09509 39.701C0.156347 39.0873 -0.227682 38.0236 0.135012 36.9803C0.476372 35.9371 1.43645 35.3029 2.58853 35.3234C3.14324 35.3438 3.63395 35.0983 3.95397 34.6688C4.274 34.2392 4.35934 33.7073 4.16732 33.2164C3.78329 32.1935 4.12465 31.1094 5.04206 30.4752C5.95946 29.8411 7.13288 29.8615 8.02895 30.5161C8.45565 30.8434 9.01036 30.9253 9.54373 30.7616C10.0771 30.598 10.4611 30.2093 10.6105 29.7183C10.9305 28.6751 11.8692 28 13 28C14.1308 28 15.0695 28.6751 15.3895 29.7183C15.5389 30.2297 15.9442 30.6184 16.4563 30.7616C16.9896 30.9253 17.523 30.8434 17.971 30.5161C18.8671 29.8615 20.0405 29.8411 20.9579 30.4752C21.8753 31.1094 22.2167 32.1935 21.8327 33.2164C21.6407 33.7073 21.726 34.2392 22.046 34.6688C22.3661 35.0983 22.8781 35.3234 23.4115 35.3234C24.5422 35.3029 25.5023 35.9371 25.865 36.9803C26.2063 38.0236 25.8437 39.0873 24.9049 39.701C24.4569 40.0079 24.2009 40.4784 24.2009 41.0102C24.2009 41.5421 24.4569 42.0126 24.9049 42.3194C25.8437 42.9331 26.2277 43.9969 25.865 45.0401C25.5236 46.0834 24.5636 46.7175 23.4115 46.6971C22.8568 46.6766 22.3661 46.9221 22.046 47.3517C21.726 47.7813 21.6407 48.3131 21.8327 48.8041C22.2167 49.8269 21.8753 50.9111 20.9579 51.5452C20.0405 52.1794 18.8671 52.1589 17.971 51.5043C17.5443 51.177 16.9896 51.0952 16.4563 51.2589C15.9229 51.4225 15.5389 51.8112 15.3895 52.3021C15.0908 53.3249 14.1521 54 13.0213 54ZM9.05303 50.3383C9.30905 50.3383 9.56507 50.3792 9.82109 50.4611C10.6105 50.7065 11.2079 51.2998 11.4425 52.0566C11.6986 52.8954 12.424 53.1817 13.0213 53.1817C13.6187 53.1817 14.3441 52.8749 14.6001 52.0566C14.8348 51.2998 15.4322 50.7065 16.2216 50.4611C17.011 50.2156 17.8644 50.3588 18.5258 50.8497C19.2511 51.3816 20.0192 51.2179 20.4886 50.8702C20.9793 50.5429 21.3846 49.8883 21.0646 49.07C20.7873 48.3336 20.9153 47.4949 21.406 46.8607C21.8967 46.2266 22.6647 45.8584 23.4968 45.8788C23.5181 45.8788 23.5395 45.8788 23.5608 45.8788C24.4355 45.8788 24.9262 45.3265 25.1183 44.7947C25.3103 44.2628 25.2249 43.5059 24.4782 43.0149C23.7955 42.5649 23.3901 41.8285 23.3901 41.0307C23.3901 40.2329 23.7955 39.4965 24.4782 39.0464C25.2249 38.5555 25.2889 37.7986 25.1183 37.2667C24.9262 36.7349 24.4142 36.1621 23.5181 36.1825C22.6861 36.203 21.918 35.8348 21.4273 35.2006C20.9366 34.5665 20.8086 33.7278 21.086 32.9913C21.3846 32.1731 20.9793 31.5185 20.5099 31.1912C20.0192 30.8639 19.2511 30.6798 18.5471 31.2116C17.8857 31.7026 17.0323 31.8253 16.2429 31.6003C15.4535 31.3548 14.8561 30.7616 14.6215 30.0047C14.3441 29.1456 13.6187 28.8387 13.0213 28.8387C12.424 28.8387 11.6986 29.1456 11.4425 29.9638C11.2079 30.7207 10.6105 31.3139 9.82109 31.5594C9.0317 31.8049 8.1783 31.6617 7.51691 31.1707C6.79152 30.6389 6.02346 30.8025 5.5541 31.1503C5.06339 31.4776 4.65803 32.1322 4.97805 32.9504C5.25541 33.6869 5.1274 34.5256 4.63669 35.1597C4.14599 35.7939 3.37793 36.1621 2.54586 36.1416C1.6498 36.1212 1.11642 36.6939 0.945741 37.2258C0.775061 37.7577 0.839066 38.5146 1.58579 39.0055C2.26851 39.4555 2.67387 40.192 2.67387 40.9898C2.67387 41.7876 2.26851 42.524 1.58579 42.974C0.839066 43.465 0.775061 44.2219 0.945741 44.7537C1.13776 45.2856 1.6498 45.8584 2.54586 45.8379C3.37793 45.8175 4.14599 46.1857 4.63669 46.8198C5.1274 47.454 5.25541 48.2927 4.97805 49.0291C4.67936 49.8474 5.08473 50.502 5.5541 50.8293C6.0448 51.1566 6.81286 51.3407 7.51691 50.8088C7.96495 50.502 8.49832 50.3383 9.05303 50.3383Z" fill="#353B63"/>
</svg>
