<svg width="18" height="18" viewBox="0 0 18 18" fill="none" xmlns="http://www.w3.org/2000/svg">
<path id="Vector" d="M9.82111 9.16423L17.517 1.31387C17.6458 1.18248 17.7102 1.02372 17.7102 0.837591C17.7102 0.651461 17.6458 0.481752 17.517 0.328466C17.3667 0.197081 17.2004 0.131388 17.0179 0.131388C16.8354 0.131388 16.6798 0.197081 16.551 0.328466L8.8551 8.17883L1.15921 0.197081C1.03041 0.0656929 0.874776 0 0.692308 0C0.509839 0 0.34347 0.0656929 0.193202 0.197081C0.0644007 0.328466 0 0.487226 0 0.673357C0 0.859489 0.0644007 1.0292 0.193202 1.18248L7.88909 9.03285L0.193202 16.8832C0.0644007 17.0146 0 17.1734 0 17.3595C0 17.5456 0.0644007 17.7153 0.193202 17.8686C0.257603 17.9343 0.332737 17.9726 0.418605 17.9836C0.504472 17.9945 0.611807 18 0.740608 18C0.890877 18 1.00358 17.9945 1.07871 17.9836C1.15385 17.9726 1.22361 17.9343 1.28801 17.8686L8.9839 10.0182L16.6798 17.8686C16.7442 17.9343 16.8193 17.9726 16.9052 17.9836C16.9911 17.9945 17.0984 18 17.2272 18C17.3775 18 17.4902 17.9945 17.5653 17.9836C17.6404 17.9726 17.7102 17.9343 17.7746 17.8686C17.9249 17.7153 18 17.5456 18 17.3595C18 17.1734 17.9249 17.0146 17.7746 16.8832L9.82111 9.16423Z" fill="white"/>
</svg>
