<svg width="13" height="22" viewBox="0 0 13 22" fill="none" xmlns="http://www.w3.org/2000/svg">
<path d="M7.66797 21.5059H3.67188C3.51432 21.5059 3.389 21.4593 3.2959 21.3662C3.2028 21.2731 3.15625 21.1478 3.15625 20.9902V13.4922H0.664062C0.520833 13.4922 0.402669 13.4492 0.30957 13.3633C0.216471 13.2773 0.169922 13.1556 0.169922 12.998V9.00195C0.169922 8.8444 0.216471 8.72266 0.30957 8.63672C0.402669 8.55078 0.520833 8.50781 0.664062 8.50781H3.15625V5.99414C3.15625 5.24935 3.29948 4.54037 3.58594 3.86719C3.8724 3.19401 4.26628 2.60677 4.76758 2.10547C5.26888 1.60417 5.85612 1.21029 6.5293 0.923828C7.20247 0.637369 7.91146 0.494141 8.65625 0.494141H11.6641C11.8073 0.494141 11.9255 0.540689 12.0186 0.633789C12.1117 0.726889 12.1582 0.852213 12.1582 1.00977V5.00586C12.1582 5.14909 12.1117 5.26725 12.0186 5.36035C11.9255 5.45345 11.8073 5.5 11.6641 5.5H8.65625C8.61328 5.5 8.54883 5.5179 8.46289 5.55371C8.37695 5.58952 8.3125 5.60742 8.26953 5.60742C8.26953 5.65039 8.25163 5.71484 8.21582 5.80078C8.18001 5.88672 8.16211 5.95117 8.16211 5.99414V8.50781H11.6641C11.7643 8.50781 11.8431 8.52572 11.9004 8.56152C11.9577 8.59733 12.015 8.64388 12.0723 8.70117C12.1152 8.74414 12.1403 8.80859 12.1475 8.89453C12.1546 8.98047 12.1582 9.05208 12.1582 9.10938L11.1699 13.1055C11.1126 13.2057 11.0374 13.2952 10.9443 13.374C10.8512 13.4528 10.7546 13.4922 10.6543 13.4922H8.16211V20.9902C8.16211 21.1478 8.11556 21.2731 8.02246 21.3662C7.92936 21.4593 7.8112 21.5059 7.66797 21.5059ZM4.16602 20.4961H7.17383V12.998C7.17383 12.8548 7.2168 12.7367 7.30273 12.6436C7.38867 12.5505 7.51042 12.5039 7.66797 12.5039H10.2676L11.0625 9.49609H7.66797C7.51042 9.49609 7.38867 9.44954 7.30273 9.35645C7.2168 9.26335 7.17383 9.14518 7.17383 9.00195V5.99414C7.17383 5.79362 7.21322 5.60026 7.29199 5.41406C7.37077 5.22787 7.46029 5.05599 7.56055 4.89844C7.66081 4.75521 7.81836 4.65137 8.0332 4.58691C8.24805 4.52246 8.45573 4.49023 8.65625 4.49023H11.1699V1.50391H8.65625C8.05469 1.50391 7.48535 1.61849 6.94824 1.84766C6.41113 2.07682 5.91341 2.39193 5.45508 2.79297C5.05404 3.2513 4.73893 3.74902 4.50977 4.28613C4.2806 4.82324 4.16602 5.39258 4.16602 5.99414V9.00195C4.16602 9.14518 4.11947 9.26335 4.02637 9.35645C3.93327 9.44954 3.8151 9.49609 3.67188 9.49609H1.1582V12.5039H3.67188C3.8151 12.5039 3.93327 12.5505 4.02637 12.6436C4.11947 12.7367 4.16602 12.8548 4.16602 12.998V20.4961Z" fill="#1E1E1E"/>
</svg>
