<svg width="22" height="22" viewBox="0 0 22 22" fill="none" xmlns="http://www.w3.org/2000/svg">
<path d="M20.6035 9.30273C20.5605 9.14518 20.4925 8.98047 20.3994 8.80859C20.3063 8.63672 20.2096 8.50065 20.1094 8.40039C20.0091 8.25716 19.8838 8.13542 19.7334 8.03516C19.583 7.9349 19.4076 7.85612 19.207 7.79883C19.0495 7.75586 18.8812 7.71289 18.7021 7.66992C18.5231 7.62695 18.3548 7.60547 18.1973 7.60547H12.998V3.99609C12.998 3.55208 12.9085 3.11165 12.7295 2.6748C12.5505 2.23796 12.3105 1.84766 12.0098 1.50391C11.6517 1.14583 11.2686 0.888021 10.8604 0.730469C10.4521 0.572916 9.9974 0.494141 9.49609 0.494141C9.39583 0.494141 9.30273 0.519205 9.2168 0.569336C9.13086 0.619467 9.05925 0.694662 9.00195 0.794922L5.19922 9.49609H2.51367C2.1556 9.49609 1.82617 9.56413 1.52539 9.7002C1.22461 9.83626 0.952474 10.0046 0.708984 10.2051C0.451172 10.4056 0.268555 10.667 0.161133 10.9893C0.0537109 11.3115 0 11.6517 0 12.0098V18.9922C0 19.3503 0.0680339 19.6797 0.204102 19.9805C0.340169 20.2812 0.508464 20.5534 0.708984 20.7969C0.909505 21.0547 1.1709 21.2373 1.49316 21.3447C1.81543 21.4521 2.1556 21.5059 2.51367 21.5059H16.8008C17.1016 21.5059 17.3952 21.4557 17.6816 21.3555C17.9681 21.2552 18.2116 21.1048 18.4121 20.9043C18.6556 20.7038 18.8525 20.4782 19.0029 20.2275C19.1533 19.9769 19.2572 19.7012 19.3145 19.4004L20.7109 10.3984C20.7109 10.1979 20.7074 10.0153 20.7002 9.85059C20.693 9.68587 20.6608 9.50325 20.6035 9.30273ZM5.00586 20.4961H2.51367C2.31315 20.4961 2.11621 20.4567 1.92285 20.3779C1.72949 20.2992 1.55404 20.2096 1.39648 20.1094C1.25326 20.0091 1.15299 19.848 1.0957 19.626C1.03841 19.404 1.00977 19.1927 1.00977 18.9922V12.0098C1.00977 11.8092 1.04915 11.6123 1.12793 11.4189C1.20671 11.2256 1.29622 11.0501 1.39648 10.8926C1.49674 10.7493 1.65788 10.6491 1.87988 10.5918C2.10189 10.5345 2.31315 10.5059 2.51367 10.5059H5.00586V20.4961ZM19.7012 10.2051L18.3047 19.207C18.2617 19.4076 18.2044 19.583 18.1328 19.7334C18.0612 19.8838 17.9538 20.0091 17.8105 20.1094C17.653 20.2096 17.4954 20.2992 17.3379 20.3779C17.1803 20.4567 17.0013 20.4961 16.8008 20.4961H6.01562V10.0977L9.79688 1.50391C10.0547 1.54688 10.3197 1.62207 10.5918 1.72949C10.8639 1.83691 11.1003 1.99088 11.3008 2.19141C11.5586 2.44922 11.7412 2.72852 11.8486 3.0293C11.9561 3.33008 12.0098 3.65234 12.0098 3.99609V7.99219C12.0098 8.14974 12.0563 8.27507 12.1494 8.36816C12.2425 8.46126 12.3607 8.50781 12.5039 8.50781H18.1973C18.2975 8.50781 18.3978 8.51139 18.498 8.51855C18.5983 8.52572 18.6986 8.55078 18.7988 8.59375C18.8991 8.65104 18.9958 8.70833 19.0889 8.76562C19.182 8.82292 19.2572 8.90169 19.3145 9.00195C19.3574 9.10221 19.404 9.20247 19.4541 9.30273C19.5042 9.403 19.5579 9.50325 19.6152 9.60352C19.6582 9.70378 19.6833 9.80404 19.6904 9.9043C19.6976 10.0046 19.7012 10.1048 19.7012 10.2051Z" fill="#1E1E1E"/>
</svg>
