<svg width="23" height="22" viewBox="0 0 23 22" fill="none" xmlns="http://www.w3.org/2000/svg">
<g clip-path="url(#clip0_80_2070)">
<path d="M17.6797 8.61523C17.1354 8.07096 16.4909 7.64486 15.7461 7.33691C15.0013 7.02897 14.2422 6.875 13.4688 6.875C12.681 6.875 11.9183 7.02897 11.1807 7.33691C10.443 7.64486 9.79492 8.07096 9.23633 8.61523C8.69206 9.1595 8.26595 9.80404 7.95801 10.5488C7.65006 11.2936 7.49609 12.0527 7.49609 12.8262V19.25C7.49609 19.3932 7.53906 19.5042 7.625 19.583C7.71094 19.6618 7.82552 19.7012 7.96875 19.7012H11.6211C11.7643 19.7012 11.8789 19.6618 11.9648 19.583C12.0508 19.5042 12.0938 19.3932 12.0938 19.25V12.8262C12.0938 12.6543 12.1296 12.4788 12.2012 12.2998C12.2728 12.1208 12.3587 11.9596 12.459 11.8164C12.7311 11.5443 13.0605 11.4082 13.4473 11.4082C13.834 11.4082 14.1419 11.5443 14.3711 11.8164C14.5143 11.9596 14.611 12.1208 14.6611 12.2998C14.7113 12.4788 14.7363 12.6543 14.7363 12.8262V19.25C14.7363 19.3932 14.7793 19.5042 14.8652 19.583C14.9512 19.6618 15.0658 19.7012 15.209 19.7012H18.8613C19.0046 19.7012 19.1191 19.6618 19.2051 19.583C19.291 19.5042 19.334 19.3932 19.334 19.25V12.8262C19.377 12.0527 19.248 11.2936 18.9473 10.5488C18.6465 9.80404 18.224 9.1595 17.6797 8.61523ZM18.4961 18.7988H15.7461V12.8262C15.7461 12.5111 15.6852 12.2174 15.5635 11.9453C15.4417 11.6732 15.2878 11.4225 15.1016 11.1934C14.7005 10.778 14.1706 10.5703 13.5117 10.5703C12.8529 10.5703 12.3158 10.778 11.9004 11.1934C11.6712 11.4225 11.5065 11.6732 11.4062 11.9453C11.306 12.2174 11.2559 12.5111 11.2559 12.8262V18.7988H8.50586V12.8262C8.50586 12.1387 8.63835 11.487 8.90332 10.8711C9.16829 10.2552 9.52995 9.7181 9.98828 9.25977C10.4466 8.80143 10.9837 8.44336 11.5996 8.18555C12.2155 7.92773 12.8672 7.79883 13.5547 7.79883C14.1992 7.79883 14.8402 7.92773 15.4775 8.18555C16.1149 8.44336 16.6628 8.80143 17.1211 9.25977C17.5794 9.7181 17.9411 10.2552 18.2061 10.8711C18.471 11.487 18.6035 12.1387 18.6035 12.8262V18.7988H18.4961ZM4.29492 7.79883H0.621094C0.492188 7.79883 0.384766 7.83822 0.298828 7.91699C0.212891 7.99577 0.169922 8.10677 0.169922 8.25V19.25C0.169922 19.3932 0.212891 19.5042 0.298828 19.583C0.384766 19.6618 0.492188 19.7012 0.621094 19.7012H4.29492C4.43815 19.7012 4.54915 19.6618 4.62793 19.583C4.70671 19.5042 4.74609 19.3932 4.74609 19.25V8.25C4.74609 8.10677 4.70671 7.99577 4.62793 7.91699C4.54915 7.83822 4.43815 7.79883 4.29492 7.79883ZM3.84375 18.7988H1.09375V8.70117H3.84375V18.7988ZM2.46875 1.375C1.82422 1.375 1.27995 1.59701 0.835938 2.04102C0.391927 2.48503 0.169922 3.0293 0.169922 3.67383C0.169922 4.30404 0.391927 4.84115 0.835938 5.28516C1.27995 5.72917 1.82422 5.95117 2.46875 5.95117C3.09896 5.95117 3.63607 5.72917 4.08008 5.28516C4.52409 4.84115 4.74609 4.30404 4.74609 3.67383C4.74609 3.0293 4.52409 2.48503 4.08008 2.04102C3.63607 1.59701 3.09896 1.375 2.46875 1.375ZM2.46875 5.04883C2.09635 5.04883 1.77409 4.90918 1.50195 4.62988C1.22982 4.35059 1.09375 4.0319 1.09375 3.67383C1.09375 3.30143 1.22982 2.97917 1.50195 2.70703C1.77409 2.4349 2.09635 2.29883 2.46875 2.29883C2.82682 2.29883 3.14551 2.4349 3.4248 2.70703C3.7041 2.97917 3.84375 3.30143 3.84375 3.67383C3.84375 4.0319 3.7041 4.35059 3.4248 4.62988C3.14551 4.90918 2.82682 5.04883 2.46875 5.04883Z" fill="#1E1E1E"/>
</g>
<defs>
<clipPath id="clip0_80_2070">
<rect width="22" height="22" fill="white" transform="matrix(1 0 0 -1 0.169922 22)"/>
</clipPath>
</defs>
</svg>
