<svg width="22" height="22" viewBox="0 0 22 22" fill="none" xmlns="http://www.w3.org/2000/svg">
<path d="M16.9512 3.20117H2.29883C1.6543 3.20117 1.11003 3.42318 0.666016 3.86719C0.222005 4.3112 0 4.85547 0 5.5V16.5C0 17.1445 0.222005 17.6888 0.666016 18.1328C1.11003 18.5768 1.6543 18.7988 2.29883 18.7988H16.9512C17.5957 18.7988 18.14 18.5768 18.584 18.1328C19.028 17.6888 19.25 17.1445 19.25 16.5V5.5C19.25 4.85547 19.028 4.3112 18.584 3.86719C18.14 3.42318 17.5957 3.20117 16.9512 3.20117ZM2.29883 4.125H16.9512C17.2806 4.125 17.5814 4.23242 17.8535 4.44727C18.1257 4.66211 18.2832 4.94857 18.3262 5.30664L9.625 11.3652L0.923828 5.30664C0.966797 4.94857 1.12435 4.66211 1.39648 4.44727C1.66862 4.23242 1.9694 4.125 2.29883 4.125ZM16.9512 17.875H2.29883C1.92643 17.875 1.60417 17.7389 1.33203 17.4668C1.0599 17.1947 0.923828 16.8724 0.923828 16.5V6.42383L9.3457 12.2891C9.38867 12.332 9.43522 12.3571 9.48535 12.3643C9.53548 12.3714 9.58203 12.375 9.625 12.375C9.66797 12.375 9.71452 12.3714 9.76465 12.3643C9.81478 12.3571 9.86133 12.332 9.9043 12.2891L18.3262 6.42383V16.5C18.3262 16.8724 18.1901 17.1947 17.918 17.4668C17.6458 17.7389 17.3236 17.875 16.9512 17.875Z" fill="#1E1E1E"/>
</svg>
