<svg width="23" height="22" viewBox="0 0 23 22" fill="none" xmlns="http://www.w3.org/2000/svg">
<g clip-path="url(#clip0_80_2072)">
<path d="M21.2093 2.83594C21.2093 2.75 21.2021 2.66406 21.1878 2.57812C21.1735 2.49219 21.1162 2.42773 21.0159 2.38477C20.93 2.3418 20.8404 2.32031 20.7473 2.32031C20.6543 2.32031 20.5647 2.3418 20.4788 2.38477C20.1064 2.6569 19.7125 2.89323 19.2972 3.09375C18.8818 3.29427 18.4449 3.48763 17.9866 3.67383C17.7145 3.38737 17.3994 3.1403 17.0413 2.93262C16.6832 2.72494 16.2965 2.57096 15.8811 2.4707C15.4228 2.38477 14.9645 2.34896 14.5061 2.36328C14.0478 2.3776 13.5895 2.47787 13.1311 2.66406C12.6728 2.85026 12.2646 3.08301 11.9065 3.3623C11.5485 3.6416 11.2548 3.98893 11.0257 4.4043C10.7535 4.76237 10.5494 5.16699 10.4134 5.61816C10.2773 6.06934 10.2093 6.55273 10.2093 7.06836V7.32617C9.52176 7.32617 8.84142 7.24023 8.16825 7.06836C7.49507 6.89648 6.8577 6.64583 6.25614 6.31641C5.56864 6.0013 4.93127 5.59668 4.34403 5.10254C3.75679 4.6084 3.234 4.03906 2.77567 3.39453C2.7327 3.35156 2.67183 3.30859 2.59305 3.26562C2.51428 3.22266 2.4534 3.20117 2.41044 3.20117C2.3245 3.20117 2.25288 3.22624 2.19559 3.27637C2.1383 3.3265 2.08817 3.39453 2.0452 3.48047C2.0452 3.52344 1.89481 4.00684 1.59403 4.93066C1.29325 5.85449 1.1715 6.96094 1.22879 8.25C1.24312 8.82292 1.32906 9.43164 1.48661 10.0762C1.64416 10.7207 1.90555 11.3688 2.27079 12.0205C2.63602 12.6722 3.12658 13.2988 3.74247 13.9004C4.35835 14.5163 5.13895 15.0749 6.08426 15.5762C5.25353 16.0345 4.38342 16.3747 3.47391 16.5967C2.56441 16.8187 1.62984 16.9082 0.670201 16.8652C0.584263 16.8652 0.498326 16.8939 0.412388 16.9512C0.326451 17.0085 0.261998 17.1016 0.219029 17.2305C0.161737 17.3737 0.154576 17.4919 0.197545 17.585C0.240513 17.6781 0.304967 17.7461 0.390904 17.7891C0.949498 18.0898 1.50809 18.3477 2.06669 18.5625C2.6396 18.7917 3.2161 18.985 3.79618 19.1426C4.37626 19.3001 4.95991 19.4219 5.54715 19.5078C6.12007 19.5794 6.69299 19.6152 7.2659 19.6152C8.36877 19.6152 9.44299 19.4792 10.4886 19.207C11.5341 18.9349 12.5367 18.5195 13.4964 17.9609C14.4417 17.4167 15.2796 16.7578 16.01 15.9844C16.7405 15.2253 17.3528 14.373 17.847 13.4277C18.3411 12.4824 18.7171 11.4583 18.9749 10.3555C19.2327 9.2526 19.3616 8.09245 19.3616 6.875C19.3616 6.78906 19.3616 6.69596 19.3616 6.5957C19.3616 6.49544 19.3616 6.3737 19.3616 6.23047C19.777 5.77214 20.1422 5.25293 20.4573 4.67285C20.7724 4.09277 21.0231 3.48047 21.2093 2.83594ZM18.4593 6.875C18.4593 7.99219 18.3375 9.06641 18.094 10.0977C17.8362 11.1146 17.4781 12.0635 17.0198 12.9443C16.5615 13.8252 15.9957 14.6309 15.3225 15.3613C14.6494 16.0775 13.8903 16.7005 13.0452 17.2305C12.2718 17.6888 11.4482 18.0469 10.5745 18.3047C9.71512 18.5482 8.83426 18.6986 7.93192 18.7559C7.02958 18.8132 6.11291 18.763 5.18192 18.6055C4.25093 18.4622 3.3271 18.2188 2.41044 17.875C3.28413 17.7891 4.12919 17.5885 4.94559 17.2734C5.762 16.9583 6.53544 16.5501 7.2659 16.0488C7.36616 15.9915 7.42346 15.9235 7.43778 15.8447C7.4521 15.766 7.45926 15.6764 7.45926 15.5762C7.45926 15.4902 7.4342 15.4186 7.38407 15.3613C7.33394 15.304 7.2659 15.2539 7.17997 15.2109C5.5758 14.5091 4.40132 13.6569 3.65653 12.6543C2.91174 11.6517 2.42834 10.6455 2.20633 9.63574C1.98433 8.62598 1.94494 7.66992 2.08817 6.76758C2.24572 5.87956 2.4176 5.1849 2.60379 4.68359C3.06213 5.22786 3.56343 5.71126 4.1077 6.13379C4.65197 6.55632 5.24637 6.92513 5.8909 7.24023C6.5784 7.61263 7.33752 7.88477 8.16825 8.05664C8.99898 8.22852 9.82971 8.29297 10.6604 8.25C10.8037 8.25 10.9147 8.20703 10.9934 8.12109C11.0722 8.03516 11.1116 7.92773 11.1116 7.79883V6.875C11.1116 6.5026 11.1617 6.13737 11.262 5.7793C11.3623 5.42122 11.527 5.08464 11.7561 4.76953C11.9853 4.4401 12.2431 4.16081 12.5296 3.93164C12.816 3.70247 13.1383 3.52344 13.4964 3.39453C13.8688 3.2513 14.2376 3.17611 14.6028 3.16895C14.9681 3.16178 15.3369 3.20833 15.7093 3.30859C16.0673 3.39453 16.4039 3.5306 16.719 3.7168C17.0341 3.903 17.3063 4.13216 17.5354 4.4043C17.5784 4.49023 17.6429 4.55469 17.7288 4.59766C17.8147 4.64062 17.9007 4.63346 17.9866 4.57617C18.316 4.49023 18.6419 4.37923 18.9641 4.24316C19.2864 4.1071 19.6051 3.94596 19.9202 3.75977C19.734 4.13216 19.5263 4.47949 19.2972 4.80176C19.068 5.12402 18.8173 5.44987 18.5452 5.7793C18.5022 5.82227 18.4628 5.88672 18.427 5.97266C18.3912 6.05859 18.402 6.14453 18.4593 6.23047C18.4593 6.33073 18.4593 6.44173 18.4593 6.56348C18.4593 6.68522 18.4593 6.78906 18.4593 6.875Z" fill="#1E1E1E"/>
</g>
<defs>
<clipPath id="clip0_80_2072">
<rect width="22" height="22" fill="white" transform="matrix(1 0 0 -1 0.169922 22)"/>
</clipPath>
</defs>
</svg>
