<svg width="71" height="65" viewBox="0 0 71 65" fill="none" xmlns="http://www.w3.org/2000/svg">
<path d="M40.366 4.5C36.307 4.5 32.4401 5.32107 28.9179 6.80358C29.703 8.41186 30.1555 10.2132 30.1555 12.1249C30.1555 18.8215 24.7485 24.25 18.078 24.25C16.2238 24.25 14.4739 23.818 12.9041 23.0685C11.5076 26.5215 10.7319 30.2939 10.7319 34.2499C10.7319 50.6805 23.9993 64 40.366 64C56.7323 64 70.0001 50.6805 70.0001 34.2499C70.0001 17.8194 56.7323 4.5 40.366 4.5Z" fill="white"/>
<path d="M40.3658 4.5C36.3069 4.5 32.4399 5.32107 28.9178 6.80358C29.7029 8.41186 30.1553 10.2132 30.1553 12.1249C30.1553 18.8215 24.7484 24.25 18.0779 24.25C16.2237 24.25 14.4737 23.818 12.904 23.0685C11.5075 26.5215 10.7318 30.2939 10.7318 34.2499C10.7318 50.6805 23.9992 64 40.3658 64C56.7321 64 70 50.6805 70 34.2499C70 17.8194 56.7321 4.5 40.3658 4.5Z" stroke="#353B63" stroke-width="2" stroke-miterlimit="10" stroke-linecap="round" stroke-linejoin="round"/>
<path d="M40.3657 24.25V34.25H54.0622" stroke="#353B63" stroke-miterlimit="10" stroke-linecap="round" stroke-linejoin="round"/>
<path d="M40.3657 4.50024V9.46108" stroke="#353B63" stroke-miterlimit="10" stroke-linecap="round" stroke-linejoin="round"/>
<path d="M40.3657 59.0391V63.9999" stroke="#353B63" stroke-miterlimit="10" stroke-linecap="round" stroke-linejoin="round"/>
<path d="M69.9999 34.2498H65.0583" stroke="#353B63" stroke-miterlimit="10" stroke-linecap="round" stroke-linejoin="round"/>
<path d="M15.6731 34.2498H10.7316" stroke="#353B63" stroke-miterlimit="10" stroke-linecap="round" stroke-linejoin="round"/>
<path d="M61.3202 13.2134L57.826 16.7213" stroke="#353B63" stroke-miterlimit="10" stroke-linecap="round" stroke-linejoin="round"/>
<path d="M22.9057 51.7783L19.4115 55.2862" stroke="#353B63" stroke-miterlimit="10" stroke-linecap="round" stroke-linejoin="round"/>
<path d="M61.3207 55.286L57.8264 51.7781" stroke="#353B63" stroke-miterlimit="10" stroke-linecap="round" stroke-linejoin="round"/>
<path d="M17.5 34C8.38889 34 1 26.6111 1 17.5C1 8.38889 8.38889 1 17.5 1C26.6111 1 34 8.38889 34 17.5C34 26.6111 26.6111 34 17.5 34Z" fill="#40B4FF"/>
<path d="M17.4933 34.9228C7.83369 34.9228 0 27.1034 0 17.4614C0 7.81943 7.83369 0 17.4933 0C27.1529 0 34.9865 7.81943 34.9865 17.4614C34.9865 27.1034 27.1529 34.9228 17.4933 34.9228ZM17.4933 2.35171C9.18838 2.35171 2.356 9.11286 2.356 17.4614C2.356 25.81 9.12948 32.5711 17.4933 32.5711C25.8571 32.5711 32.6305 25.81 32.6305 17.4614C32.6305 9.11286 25.8571 2.35171 17.4933 2.35171Z" fill="#353B63"/>
<path d="M17.0486 26V24.5031C15.174 24.3112 13.4914 23.5669 12 22.2669L13.4981 20.4829C14.6479 21.4809 15.8312 22.0767 17.0486 22.2669V18.2885C15.5022 17.9197 14.3707 17.4357 13.6526 16.8333C12.9345 16.2325 12.5745 15.3397 12.5745 14.1566C12.5745 12.9751 12.9887 12.0072 13.8162 11.2562C14.6438 10.5035 15.7218 10.0931 17.0486 10.0246V9H18.3622V10.0463C19.8669 10.1548 21.2899 10.6687 22.6309 11.5833L21.2965 13.4707C20.3938 12.8282 19.4152 12.4311 18.3622 12.2808V16.1357H18.424C19.9972 16.5046 21.1529 17.0052 21.8919 17.6327C22.6309 18.2618 23 19.1746 23 20.3711C23 21.5677 22.5758 22.5406 21.7274 23.2933C20.879 24.0442 19.7575 24.4547 18.3622 24.5231V26H17.0486ZM15.6015 12.7631C15.2533 13.0702 15.0788 13.454 15.0788 13.9113C15.0788 14.3702 15.2149 14.7306 15.4888 14.9976C15.7627 15.2646 16.2821 15.5216 17.0486 15.767V12.2191C16.4332 12.2742 15.9506 12.4561 15.6015 12.7631ZM19.9221 21.7546C20.3045 21.4408 20.4966 21.0437 20.4966 20.5647C20.4966 20.0875 20.3454 19.707 20.0448 19.4266C19.7442 19.1479 19.183 18.8843 18.3622 18.6373V22.3287C19.0185 22.2602 19.5388 22.07 19.9221 21.7546Z" fill="#353B63"/>
</svg>
