<svg width="148" height="41" viewBox="0 0 148 41" fill="none" xmlns="http://www.w3.org/2000/svg">
<path d="M10.1465 0.214689C12.0397 0.185324 13.9304 0.366024 15.7834 0.753437C17.138 1.02665 18.4339 1.53427 19.6121 2.2532C20.5404 2.8269 21.2984 3.63604 21.8083 4.59748C22.296 5.55639 22.5469 6.61707 22.5403 7.69164V8.81282C22.5376 9.59507 22.381 10.3692 22.0791 11.0916C21.7605 11.856 21.3232 12.566 20.7834 13.1956C20.1936 13.8826 19.5025 14.4766 18.7336 14.9575C17.8895 15.4877 16.9721 15.8924 16.0103 16.1587L25.0147 28.8848H19.8903L11.3324 16.8504H7.98687C7.2304 16.8504 6.36656 16.8212 5.39535 16.763V28.8921H0.812622V0.389418C2.32068 0.331175 3.86778 0.287492 5.45392 0.258371C7.04006 0.229249 8.60424 0.214689 10.1465 0.214689ZM10.0367 3.26517H7.79653C6.91317 3.26517 6.11278 3.28701 5.39535 3.33069V13.5014L8.25041 13.6324C8.93367 13.6616 9.58033 13.6761 10.1904 13.6761C12.9576 13.6761 14.9342 13.2393 16.1201 12.3657C16.6965 11.9528 17.1608 11.4041 17.4713 10.7687C17.7817 10.1333 17.9287 9.43126 17.899 8.72546V7.91006C17.9374 7.22391 17.7915 6.53996 17.4763 5.92841C17.1611 5.31685 16.688 4.7997 16.1055 4.43003C14.9 3.65346 12.8771 3.26517 10.0367 3.26517Z" fill="#C6C6C6"/>
<path d="M29.5608 9.46067C29.5432 8.15594 29.7716 6.85948 30.2343 5.63847C30.6735 4.51113 31.388 3.5103 32.3134 2.72631C33.3847 1.85397 34.6335 1.22306 35.9737 0.877095C37.7156 0.410983 39.5142 0.188009 41.3178 0.214579C43.1281 0.181136 44.9342 0.399226 46.6838 0.862534C48.024 1.20872 49.2727 1.8396 50.3442 2.71175C51.2696 3.49574 51.9841 4.49657 52.4232 5.62391C52.8854 6.84506 53.1139 8.14142 53.0967 9.44611V20.1628C53.1177 21.4749 52.8892 22.7792 52.4232 24.0069C51.9822 25.1332 51.268 26.1336 50.3442 26.919C49.273 27.7916 48.0241 28.4225 46.6838 28.7683C44.9342 29.2316 43.1281 29.4496 41.3178 29.4162C39.5075 29.4496 37.7014 29.2315 35.9518 28.7683C34.6114 28.4227 33.3625 27.7918 32.2914 26.919C31.3676 26.1336 30.6534 25.1332 30.2124 24.0069C29.7459 22.7793 29.5174 21.475 29.5389 20.1628L29.5608 9.46067ZM34.1436 20.556C34.0931 21.347 34.2304 22.1388 34.5446 22.8673C34.8587 23.5958 35.3407 24.2405 35.9518 24.7495C37.1572 25.7202 38.9459 26.2056 41.3178 26.2056C43.6897 26.2056 45.4784 25.7202 46.6838 24.7495C47.2922 24.2383 47.7723 23.5931 48.0862 22.8652C48.4001 22.1373 48.539 21.3466 48.492 20.556V9.06753C48.5371 8.28345 48.3993 7.49962 48.0895 6.77724C47.7796 6.05486 47.3061 5.41347 46.7058 4.90315C45.5199 3.93243 43.7214 3.44707 41.3105 3.44707C38.8995 3.44707 37.1011 3.93243 35.9152 4.90315C35.3147 5.40978 34.8413 6.04863 34.5325 6.76898C34.2238 7.48933 34.0881 8.27135 34.1362 9.05297L34.1436 20.556Z" fill="#C6C6C6"/>
<path d="M72.1085 0.214541C73.3615 0.215514 74.6133 0.293319 75.8566 0.447513L79.517 0.898897L79.4072 4.12411C78.5092 3.98335 77.394 3.83289 76.0616 3.67272C74.7375 3.51711 73.4052 3.43931 72.0719 3.43975C69.5926 3.43975 67.821 3.83289 66.7571 4.61917C65.6931 5.40546 65.1636 6.74505 65.1685 8.63795V20.9345C65.1685 22.7983 65.698 24.1233 66.7571 24.9096C67.8161 25.6959 69.5877 26.089 72.0719 26.089C73.4052 26.09 74.7375 26.0122 76.0616 25.8561C77.3891 25.7007 78.5043 25.5503 79.4072 25.4047L79.517 28.7173L75.8566 29.1686C74.6133 29.3228 73.3615 29.4006 72.1085 29.4016C70.295 29.4338 68.484 29.253 66.7131 28.8629C65.4197 28.5899 64.2041 28.0327 63.1553 27.2321C62.2682 26.517 61.5969 25.5722 61.2153 24.5019C60.7986 23.2837 60.5979 22.0027 60.6224 20.7161V8.90004C60.6224 5.98789 61.4862 3.80377 63.2139 2.34769C64.9415 0.891617 67.9064 0.180566 72.1085 0.214541Z" fill="#C6C6C6"/>
<path d="M86.5594 28.8921V0.731567H91.1422V14.3168L104.319 0.731567H109.444L95.9006 14.3604L110.842 28.9212H104.986L91.1422 14.9574V28.8921H86.5594Z" fill="#C6C6C6"/>
<path d="M0 40.7009V35.772H4.75843V36.3472H1.17131V37.9052H4.48024V38.4803H1.17131V40.1184H4.75843V40.7009H0Z" fill="#C6C6C6"/>
<path d="M18.2358 40.7009H16.8815L19.5315 38.16L17.0498 35.772H18.4554L20.3441 37.6504L22.2329 35.772H23.5286L21.0762 38.1746L23.6824 40.7009H22.2622L20.249 38.6842L18.2358 40.7009Z" fill="#C6C6C6"/>
<path d="M35.9443 40.7009V35.7211H37.0278H38.3309C39.1528 35.6758 39.9752 35.7997 40.7467 36.0851C40.9551 36.1615 41.136 36.2978 41.2664 36.4767C41.3968 36.6556 41.4707 36.869 41.4788 37.0898V37.2718C41.4745 37.5026 41.4031 37.7271 41.2732 37.9184C41.1432 38.1096 40.9604 38.2593 40.7467 38.3493C40.0112 38.6557 39.2147 38.7902 38.4187 38.7424H37.8038L37.0717 38.6915V40.7518L35.9443 40.7009ZM37.123 38.0726L37.855 38.1236H38.3821C39.6852 38.1236 40.3367 37.8081 40.3367 37.1772V37.0461C40.328 36.904 40.2776 36.7676 40.1917 36.6538C40.1058 36.5399 39.9883 36.4536 39.8536 36.4054C39.3533 36.2313 38.8234 36.1571 38.2943 36.187H37.5622H37.0864L37.123 38.0726Z" fill="#C6C6C6"/>
<path d="M57.7966 39.5287H54.473L53.88 40.6717H52.7087L55.4686 35.7429H56.9328L59.7 40.6717H58.3896L57.7966 39.5287ZM54.7658 38.9535H57.4965L56.1494 36.3253L54.7658 38.9535Z" fill="#C6C6C6"/>
<path d="M76.0616 40.7009L73.0821 36.5438V40.7009H71.9254V35.772H73.7995L76.7278 39.9291V35.772H77.8844V40.7009H76.0616Z" fill="#C6C6C6"/>
<path d="M94.1291 38.0217C94.392 38.066 94.6514 38.1293 94.9051 38.211C95.0917 38.2692 95.2673 38.3578 95.4248 38.4731C95.5511 38.5655 95.6519 38.6882 95.7177 38.8298C95.7801 38.9822 95.81 39.1458 95.8055 39.3103V39.4559C95.809 39.6591 95.753 39.8589 95.6444 40.0311C95.5127 40.217 95.3296 40.3612 95.1174 40.446C94.8162 40.5747 94.4983 40.6605 94.173 40.7009C93.7072 40.764 93.2375 40.7932 92.7674 40.7882C92.5478 40.7882 92.2574 40.7761 91.8963 40.7518C91.5351 40.7275 91.1618 40.6911 90.7762 40.6426V40.0675C91.152 40.116 91.5132 40.1524 91.8597 40.1767C92.2062 40.2009 92.499 40.2131 92.7381 40.2131C93.2327 40.2416 93.7285 40.1824 94.2023 40.0383C94.3186 40.0061 94.4217 39.938 94.4967 39.8438C94.5717 39.7496 94.6147 39.6342 94.6196 39.5141V39.2666C94.6228 39.188 94.6056 39.1099 94.5697 39.0397C94.5339 38.9696 94.4804 38.9098 94.4146 38.8662C94.1873 38.7425 93.9392 38.6611 93.6825 38.6259L92.2403 38.3711C91.9677 38.3273 91.6986 38.264 91.4351 38.1818C91.2484 38.1273 91.0725 38.0411 90.9153 37.927C90.7912 37.8341 90.693 37.7114 90.6298 37.5703C90.5673 37.4179 90.5374 37.2543 90.542 37.0898V37.0097C90.5402 36.8029 90.5987 36.6 90.7104 36.4256C90.8222 36.2511 90.9823 36.1127 91.1715 36.0268C91.8212 35.7555 92.5255 35.6384 93.2286 35.6847C93.4678 35.6847 93.763 35.6847 94.1144 35.6847L95.154 35.772V36.3399L94.1657 36.2525C93.8289 36.2525 93.5239 36.2525 93.2506 36.2525C92.852 36.2258 92.4524 36.2854 92.0793 36.4273C91.976 36.4707 91.8881 36.5438 91.8268 36.6371C91.7655 36.7305 91.7336 36.84 91.7352 36.9515V37.148C91.7344 37.2254 91.7494 37.3022 91.7791 37.3737C91.8162 37.4457 91.8751 37.5043 91.9475 37.5412C92.0552 37.6012 92.1711 37.6453 92.2916 37.6722C92.438 37.7086 92.6283 37.745 92.8553 37.7887L94.1291 38.0217Z" fill="#C6C6C6"/>
<path d="M108.287 40.7009V35.772H109.458V40.7009H108.287Z" fill="#C6C6C6"/>
<path d="M122.482 37.3009C122.48 37.0661 122.54 36.8349 122.658 36.6311C122.787 36.4194 122.968 36.244 123.185 36.1215C123.475 35.9643 123.789 35.8561 124.114 35.8011C125.023 35.6511 125.951 35.6511 126.86 35.8011C127.185 35.8562 127.499 35.9644 127.789 36.1215C128.006 36.244 128.187 36.4194 128.316 36.6311C128.434 36.8349 128.494 37.0661 128.492 37.3009V39.1719C128.495 39.4068 128.434 39.638 128.316 39.8417C128.187 40.0534 128.006 40.2288 127.789 40.3514C127.499 40.5087 127.185 40.6169 126.86 40.6717C125.951 40.8227 125.023 40.8227 124.114 40.6717C123.789 40.6172 123.474 40.5089 123.185 40.3514C122.968 40.2288 122.787 40.0534 122.658 39.8417C122.54 39.638 122.479 39.4068 122.482 39.1719V37.3009ZM123.653 39.2447C123.652 39.3974 123.694 39.5472 123.776 39.6763C123.858 39.8055 123.975 39.9084 124.114 39.9728C124.998 40.3089 125.976 40.3089 126.86 39.9728C126.999 39.9084 127.116 39.8055 127.198 39.6763C127.28 39.5472 127.323 39.3974 127.321 39.2447V37.2354C127.322 37.0837 127.28 36.9348 127.2 36.8059C127.12 36.677 127.004 36.5735 126.867 36.5073C126.436 36.3113 125.964 36.2238 125.491 36.2525C125.018 36.2255 124.546 36.313 124.114 36.5073C123.977 36.5728 123.861 36.6762 123.78 36.8052C123.7 36.9343 123.658 37.0835 123.661 37.2354L123.653 39.2447Z" fill="#C6C6C6"/>
<path d="M145.681 40.7009L142.701 36.5438V40.7009H141.545V35.772H143.419L146.347 39.9291V35.772H147.504V40.7009H145.681Z" fill="#C6C6C6"/>
</svg>
