<svg width="116" height="80" viewBox="0 0 116 80" fill="none" xmlns="http://www.w3.org/2000/svg">
<path d="M108.06 37.7409C111.763 33.7291 114.036 28.3509 114.036 22.4435C114.036 10.0683 104.078 0 91.8368 0H24.163C11.9224 0 1.96381 10.0683 1.96381 22.4435C1.96381 28.3509 4.23675 33.7291 7.9403 37.7409C3.09018 41.8612 3.00608e-08 48.0341 3.00608e-08 54.9253V57.5561C3.00608e-08 69.9317 9.95833 80 22.1989 80H93.8011C106.041 80 116 69.9317 116 57.5561V54.9253C116 48.0341 112.91 41.8613 108.06 37.7409ZM24.163 12.4056H91.8368C97.3116 12.4056 101.766 16.9083 101.766 22.4435C101.766 27.9786 97.3116 32.4813 91.8368 32.4813H75.1174V17.0655H62.8469V32.4813H53.2331V17.0655H40.9627V32.4813H24.163C18.6882 32.4813 14.2342 27.9786 14.2342 22.4435C14.2342 16.9083 18.6882 12.4056 24.163 12.4056ZM103.73 57.5561C103.73 63.0912 99.2754 67.5944 93.8011 67.5944H75.1174V49.7672H62.8469V67.5944H53.2331V49.7672H40.9627V67.5944H22.1989C16.7243 67.5944 12.2704 63.0912 12.2704 57.5561V54.9253C12.2704 49.3901 16.7243 44.8869 22.1989 44.8869H24.163H91.8368H93.8011C99.2754 44.8869 103.73 49.3901 103.73 54.9253V57.5561Z" fill="#4281EA"/>
</svg>
