<svg width="42" height="42" viewBox="0 0 42 42" fill="none" xmlns="http://www.w3.org/2000/svg">
<g filter="url(#filter0_f_517_3073)">
<path d="M21 1L22.0432 1.42778L23.1259 1.1133L24.1176 1.64954L25.2277 1.45193L26.1568 2.09055L27.2815 2.01205L28.1375 2.74581L29.2642 2.7873L30.0374 3.6079L31.1533 3.76892L31.8349 4.66705L32.9273 4.94577L33.5096 5.91125L34.5662 6.30452L35.0426 7.32642L36.0514 7.82977L36.4164 8.89652L37.3661 9.50425L37.6156 10.6038L38.4953 11.309L38.6265 12.4288L39.4262 13.2235L39.4377 14.3509L40.1484 15.2262L40.04 16.3484L40.6537 17.2942L40.4266 18.3986L40.9362 19.4043L40.5931 20.4782L40.9929 21.5324L40.5375 22.5638L40.8231 23.6545L40.2606 24.6317L40.4286 25.7465L39.7655 26.6584L39.814 27.7848L39.0577 28.621L38.9862 29.7461L38.1454 30.4972L37.9547 31.6084L37.0387 32.2658L36.731 33.3505L35.7504 33.9068L35.3291 34.9526L34.2949 35.4016L33.7649 36.3967L32.6888 36.7331L32.056 37.6663L30.9503 37.8865L30.2218 38.747L29.099 38.8484L28.2832 39.6267L27.1559 39.6082L26.2621 40.2954L25.1431 40.1571L24.1813 40.7454L23.0834 40.489L22.0644 40.9717L21 40.6L19.9356 40.9717L18.9166 40.489L17.8187 40.7454L16.8569 40.1571L15.7379 40.2954L14.8441 39.6082L13.7168 39.6267L12.901 38.8484L11.7781 38.747L11.0498 37.8865L9.944 37.6663L9.3112 36.7331L8.23512 36.3967L7.70509 35.4016L6.67087 34.9526L6.24961 33.9068L5.26897 33.3505L4.96127 32.2658L4.04531 31.6084L3.85464 30.4972L3.01376 29.7461L2.94228 28.621L2.18599 27.7848L2.23453 26.6584L1.5714 25.7465L1.73939 24.6317L1.17694 23.6545L1.46248 22.5638L1.00709 21.5324L1.40695 20.4782L1.06376 19.4043L1.5734 18.3986L1.34632 17.2942L1.95997 16.3484L1.85156 15.2262L2.56227 14.3509L2.57376 13.2235L3.37348 12.4288L3.50474 11.309L4.3844 10.6038L4.63394 9.50425L5.58359 8.89652L5.94858 7.82977L6.95745 7.32642L7.43376 6.30452L8.49041 5.91125L9.07265 4.94577L10.1651 4.66705L10.8467 3.76892L11.9626 3.6079L12.7358 2.7873L13.8625 2.74581L14.7185 2.01205L15.8432 2.09055L16.7723 1.45193L17.8824 1.64954L18.8741 1.1133L19.9568 1.42778L21 1Z" fill="url(#paint0_linear_517_3073)"/>
</g>
<path d="M21.0002 0L22.026 0.426861L23.0908 0.109562L24.0664 0.641308L25.1585 0.437048L26.0731 1.06785L27.1806 0.97887L28.0243 1.70182L29.135 1.72909L29.8985 2.53627L31.0002 2.67949L31.6752 3.56206L32.7559 3.81966L33.3349 4.76794L34.3829 5.1371L34.8595 6.14071L35.8631 6.61739L36.2323 7.66532L37.1806 8.2443L37.4382 9.32508L38.3208 10L38.464 11.1018L39.2712 11.8653L39.2984 12.976L40.0214 13.8197L39.9324 14.9271L40.5632 15.8418L40.3589 16.9339L40.8907 17.9094L40.5734 18.9742L41.0002 20L40.5734 21.0258L40.8907 22.0906L40.3589 23.0661L40.5632 24.1582L39.9324 25.0729L40.0214 26.1803L39.2984 27.024L39.2712 28.1347L38.464 28.8982L38.3208 30L37.4382 30.6749L37.1806 31.7557L36.2323 32.3347L35.8631 33.3826L34.8595 33.8593L34.3829 34.8629L33.3349 35.2321L32.7559 36.1803L31.6752 36.4379L31.0002 37.3205L29.8985 37.4637L29.135 38.2709L28.0243 38.2982L27.1806 39.0211L26.0731 38.9321L25.1585 39.563L24.0664 39.3587L23.0908 39.8904L22.026 39.5731L21.0002 40L19.9745 39.5731L18.9097 39.8904L17.9341 39.3587L16.842 39.563L15.9274 38.9321L14.8199 39.0211L13.9762 38.2982L12.8655 38.2709L12.102 37.4637L11.0002 37.3205L10.3253 36.4379L9.24454 36.1803L8.66556 35.2321L7.61763 34.8629L7.14095 33.8593L6.13735 33.3826L5.76818 32.3347L4.8199 31.7557L4.5623 30.6749L3.67974 30L3.53652 28.8982L2.72933 28.1347L2.70207 27.024L1.97911 26.1803L2.0681 25.0729L1.43729 24.1582L1.64155 23.0661L1.10981 22.0906L1.4271 21.0258L1.00024 20L1.4271 18.9742L1.10981 17.9094L1.64155 16.9339L1.43729 15.8418L2.0681 14.9271L1.97911 13.8197L2.70207 12.976L2.72933 11.8653L3.53652 11.1018L3.67974 10L4.5623 9.32508L4.8199 8.2443L5.76818 7.66532L6.13735 6.61739L7.14095 6.14071L7.61763 5.1371L8.66556 4.76794L9.24454 3.81966L10.3253 3.56206L11.0002 2.67949L12.102 2.53627L12.8655 1.72909L13.9762 1.70182L14.8199 0.97887L15.9274 1.06785L16.842 0.437048L17.9341 0.641308L18.9097 0.109562L19.9745 0.426861L21.0002 0Z" fill="url(#paint1_linear_517_3073)"/>
<path fill-rule="evenodd" clip-rule="evenodd" d="M22.0261 0.426758L21.0002 0L19.9746 0.426758L18.9097 0.109619L17.9341 0.641357L16.842 0.437012L15.9275 1.06787L14.8198 0.97876L13.9763 1.7019L12.8655 1.729L12.1021 2.53638L11.0002 2.67944L10.3254 3.56201L9.24463 3.81958L8.66553 4.76782L7.61768 5.13721L7.14087 6.14062L6.13745 6.61743L5.76831 7.66528L4.81982 8.24438L4.56226 9.32495L3.67969 10L3.53662 11.1018L2.72925 11.8652L2.70215 12.9761L1.979 13.8196L2.06812 14.927L1.43726 15.8418L1.6416 16.9338L1.10986 17.9094L1.427 18.9741L1.00024 20L1.427 21.0256L1.10986 22.0906L1.6416 23.0662L1.43726 24.1582L2.06812 25.0728L1.979 26.1802L2.70215 27.0239L2.72925 28.1348L3.53662 28.8982L3.67969 30L4.56226 30.6748L4.81982 31.7556L5.76831 32.3347L6.13745 33.3826L7.14087 33.8591L7.61768 34.8628L8.66553 35.2319L9.24463 36.1802L10.3254 36.4377L11.0002 37.3203L12.1021 37.4636L12.8655 38.2708L13.9763 38.2981L14.8198 39.021L15.9275 38.9321L16.842 39.5627L17.9341 39.3586L18.9097 39.8904L19.9746 39.573L21.0002 40L22.0261 39.573L23.0908 39.8904L24.0664 39.3586L25.1584 39.5627L26.0732 38.9321L27.1807 39.021L28.0244 38.2981L29.135 38.2708L29.8984 37.4636L31.0002 37.3203L31.6753 36.4377L32.7561 36.1802L33.335 35.2319L34.3831 34.8628L34.8596 33.8591L35.8633 33.3826L36.2324 32.3347L37.1807 31.7556L37.4382 30.6748L38.3208 30L38.4641 28.8982L39.2712 28.1348L39.2986 27.0239L40.0215 26.1802L39.9324 25.0728L40.5632 24.1582L40.3591 23.0662L40.8909 22.0906L40.5735 21.0256L41.0002 20L40.5735 18.9741L40.8909 17.9094L40.3591 16.9338L40.5632 15.8418L39.9324 14.927L40.0215 13.8196L39.2986 12.9761L39.2712 11.8652L38.4641 11.1018L38.3208 10L37.4382 9.32495L37.1807 8.24438L36.2324 7.66528L35.8633 6.61743L34.8596 6.14062L34.3831 5.13721L33.335 4.76782L32.7561 3.81958L31.6753 3.56201L31.0002 2.67944L29.8984 2.53638L29.135 1.729L28.0244 1.7019L27.1807 0.97876L26.0732 1.06787L25.1584 0.437012L24.0664 0.641357L23.0908 0.109619L22.0261 0.426758ZM21.9939 1.03882L21 1.0127L20.0063 1.03882L19.0154 1.1167L18.0298 1.24658L17.0525 1.42773L16.0857 1.65967L15.1326 1.94189L14.1956 2.27393L13.2771 2.6543L12.3799 3.08228L11.5063 3.5564L10.6587 4.07593L9.8396 4.63892L9.05103 5.24414L8.29492 5.88965L7.57397 6.57397L6.88965 7.29492L6.24414 8.05078L5.63892 8.8396L5.07593 9.65869L4.55664 10.5063L4.08228 11.3799L3.6543 12.2771L3.27393 13.1956L2.94189 14.1326L2.65967 15.0857L2.42773 16.0522L2.24658 17.0298L2.1167 18.0154L2.03882 19.0063L2.0127 20L2.03882 20.9937L2.1167 21.9846L2.24658 22.9702L2.42773 23.9478L2.65967 24.9143L2.94189 25.8674L3.27393 26.8044L3.6543 27.7229L4.08228 28.6201L4.55664 29.4937L5.07593 30.3413L5.63892 31.1604L6.24414 31.949L6.88965 32.7051L7.57397 33.426L8.29492 34.1104L9.05103 34.7559L9.8396 35.3611L10.6587 35.9241L11.5063 36.4434L12.3799 36.9177L13.2771 37.3457L14.1956 37.7261L15.1326 38.0581L16.0857 38.3403L17.0525 38.5723L18.0298 38.7534L19.0154 38.8833L20.0063 38.9612L21 38.9873L21.9939 38.9612L22.9849 38.8833L23.9705 38.7534L24.9478 38.5723L25.9143 38.3403L26.8674 38.0581L27.8044 37.7261L28.7229 37.3457L29.6201 36.9177L30.4939 36.4434L31.3413 35.9241L32.1606 35.3611L32.9492 34.7559L33.7051 34.1104L34.4263 33.426L35.1104 32.7051L35.7561 31.949L36.3613 31.1604L36.9243 30.3413L37.4436 29.4937L37.918 28.6201L38.3459 27.7229L38.7263 26.8044L39.0581 25.8674L39.3406 24.9143L39.5725 23.9478L39.7537 22.9702L39.8835 21.9846L39.9614 20.9937L39.9875 20L39.9614 19.0063L39.8835 18.0154L39.7537 17.0298L39.5725 16.0522L39.3406 15.0857L39.0581 14.1326L38.7263 13.1956L38.3459 12.2771L37.918 11.3799L37.4436 10.5063L36.9243 9.65869L36.3613 8.8396L35.7561 8.05078L35.1104 7.29492L34.4263 6.57397L33.7051 5.88965L32.9492 5.24414L32.1606 4.63892L31.3413 4.07593L30.4939 3.5564L29.6201 3.08228L28.7229 2.6543L27.8044 2.27393L26.8674 1.94189L25.9143 1.65967L24.9478 1.42773L23.9705 1.24658L22.9849 1.1167L21.9939 1.03882Z" fill="url(#paint2_linear_517_3073)"/>
<path d="M30.5628 20.1047C31.2332 19.4027 31.6447 18.4615 31.6447 17.4277C31.6447 15.2619 29.8419 13.5 27.6259 13.5H15.3746C13.1586 13.5 11.3558 15.2619 11.3558 17.4277C11.3558 18.4615 11.7672 19.4027 12.4377 20.1047C11.5597 20.8258 11.0002 21.906 11.0002 23.1119V23.5724C11.0002 25.7381 12.803 27.5 15.019 27.5H27.9815C30.1974 27.5 32.0002 25.7381 32.0002 23.5724V23.1119C32.0002 21.906 31.4408 20.8258 30.5628 20.1047ZM15.3746 15.671H27.6259C28.617 15.671 29.4234 16.459 29.4234 17.4277C29.4234 18.3963 28.617 19.1843 27.6259 19.1843H24.5991V16.4865H22.3777V19.1843H20.6373V16.4865H18.4159V19.1843H15.3746C14.3834 19.1843 13.5771 18.3963 13.5771 17.4277C13.5771 16.459 14.3834 15.671 15.3746 15.671ZM29.7789 23.5724C29.7789 24.541 28.9725 25.329 27.9815 25.329H24.5991V22.2093H22.3777V25.329H20.6373V22.2093H18.4159V25.329H15.019C14.0279 25.329 13.2216 24.541 13.2216 23.5724V23.1119C13.2216 22.1433 14.0279 21.3553 15.019 21.3553H15.3746H27.6259H27.9815C28.9725 21.3553 29.7789 22.1433 29.7789 23.1119V23.5724Z" fill="white"/>
<defs>
<filter id="filter0_f_517_3073" x="0.00708008" y="0" width="41.9858" height="41.9717" filterUnits="userSpaceOnUse" color-interpolation-filters="sRGB">
<feFlood flood-opacity="0" result="BackgroundImageFix"/>
<feBlend mode="normal" in="SourceGraphic" in2="BackgroundImageFix" result="shape"/>
<feGaussianBlur stdDeviation="0.5" result="effect1_foregroundBlur_517_3073"/>
</filter>
<linearGradient id="paint0_linear_517_3073" x1="21" y1="1" x2="21" y2="41" gradientUnits="userSpaceOnUse">
<stop stop-color="#4281EA"/>
<stop offset="1" stop-color="#2528B7"/>
</linearGradient>
<linearGradient id="paint1_linear_517_3073" x1="21.0002" y1="0" x2="21.0002" y2="40" gradientUnits="userSpaceOnUse">
<stop stop-color="#4281EA"/>
<stop offset="1" stop-color="#2528B7"/>
</linearGradient>
<linearGradient id="paint2_linear_517_3073" x1="1245.4" y1="1214.8" x2="1245.4" y2="1230.8" gradientUnits="userSpaceOnUse">
<stop stop-color="white" stop-opacity="0.2"/>
<stop offset="1" stop-opacity="0.12"/>
</linearGradient>
</defs>
</svg>
