<svg width="66" height="66" viewBox="0 0 66 66" fill="none" xmlns="http://www.w3.org/2000/svg">
<path d="M47.9089 44.5643C50.108 44.5643 51.8286 44.5643 52.802 44.5643C59.5387 44.5643 65 39.1031 65 32.3663C65 27.4126 62.0453 23.1516 57.8036 21.2416C58.1562 20.1013 58.3465 18.8897 58.3465 17.6336C58.3465 10.8969 52.8853 5.43567 46.1485 5.43567C45.028 5.43567 43.9441 5.58979 42.9134 5.87264C39.5236 2.84372 35.0522 1 30.1485 1C19.5621 1 10.9801 9.58198 10.9801 20.1683C10.9801 20.2367 10.9846 20.304 10.9853 20.3723C5.30548 21.4136 1 26.3856 1 32.3663C1 39.1031 6.46123 44.5643 13.198 44.5643C14.0601 44.5643 15.8005 44.5643 18.0954 44.5643" fill="white"/>
<path d="M47.9089 44.5643C50.108 44.5643 51.8286 44.5643 52.802 44.5643C59.5387 44.5643 65 39.1031 65 32.3663C65 27.4126 62.0453 23.1516 57.8036 21.2416C58.1562 20.1013 58.3465 18.8897 58.3465 17.6336C58.3465 10.8969 52.8853 5.43567 46.1485 5.43567C45.028 5.43567 43.9441 5.58979 42.9134 5.87264C39.5236 2.84372 35.0522 1 30.1485 1C19.5621 1 10.9801 9.58198 10.9801 20.1683C10.9801 20.2367 10.9846 20.304 10.9853 20.3723C5.30548 21.4136 1 26.3856 1 32.3663C1 39.1031 6.46123 44.5643 13.198 44.5643C14.0601 44.5643 15.8005 44.5643 18.0954 44.5643" stroke="#353B63" stroke-width="2" stroke-miterlimit="10" stroke-linecap="round" stroke-linejoin="round"/>
<path d="M47.7885 35.0809C39.6745 35.3468 33 29 33 29C33 29 26.3255 35.3468 18.2115 35.0809C18.2115 35.0809 15.0705 58.2183 33 65C50.9295 58.2183 47.7885 35.0809 47.7885 35.0809Z" fill="#40B4FF" stroke="#353B63" stroke-width="2" stroke-miterlimit="10" stroke-linecap="round" stroke-linejoin="round"/>
<path d="M33 29.8254V64.0574" stroke="#353B63" stroke-miterlimit="10" stroke-linecap="round" stroke-linejoin="round"/>
<path d="M46.6577 46.9414H19.3425" stroke="#353B63" stroke-miterlimit="10" stroke-linecap="round" stroke-linejoin="round"/>
</svg>
