<svg width="176" height="94" viewBox="0 0 176 94" fill="none" xmlns="http://www.w3.org/2000/svg">
<path d="M59.6882 74.9998H37.4488C37.0142 74.9998 36.5795 74.7842 36.2898 74.425C36 74.0657 35.9276 73.5628 36.0724 73.1317L40.3465 58.6182C40.5638 57.9715 41.0709 57.6123 41.7228 57.6123H55.4866C56.1386 57.6123 56.7181 58.0434 56.863 58.6182L61.137 73.1317C61.2819 73.5628 61.2095 74.0657 60.9197 74.425C60.6299 74.7842 60.1953 74.9998 59.6882 74.9998ZM39.4047 72.1258H57.8047L54.4 60.4863H42.8095L39.4047 72.1258Z" fill="#353B63"/>
<path d="M81.9999 74.9998H59.6881C59.2534 74.9998 58.8188 74.7842 58.529 74.425C58.2393 74.0657 58.1668 73.5628 58.3117 73.1317L62.5857 58.6182C62.803 57.9715 63.3101 57.6123 63.9621 57.6123H77.7259C78.3778 57.6123 78.9574 58.0434 79.1023 58.6182L83.3763 73.1317C83.5212 73.5628 83.4487 74.0657 83.1589 74.425C82.8692 74.7842 82.4345 74.9998 81.9999 74.9998ZM61.644 72.1258H80.044L76.6393 60.4863H65.0487L61.644 72.1258Z" fill="#353B63"/>
<path d="M104.239 74.9997H82C81.5653 74.9997 81.1307 74.7842 80.8409 74.4249C80.5511 74.0657 80.4787 73.5627 80.6236 73.1316L84.8976 58.69C85.1149 58.0433 85.622 57.6841 86.274 57.6841H100.038C100.69 57.6841 101.269 58.1152 101.414 58.69L105.688 73.2035C105.833 73.6346 105.761 74.1375 105.471 74.4968C105.181 74.7842 104.746 74.9997 104.239 74.9997ZM83.9559 72.1257H102.356L98.9512 60.4862H87.3606L83.9559 72.1257Z" fill="#353B63"/>
<path d="M126.551 74.9998H104.239C103.805 74.9998 103.37 74.7842 103.08 74.425C102.791 74.0657 102.718 73.5628 102.863 73.1317L107.137 58.6182C107.354 57.9715 107.861 57.6123 108.513 57.6123H122.277C122.929 57.6123 123.509 58.0434 123.654 58.6182L127.928 73.1317C128.072 73.5628 128 74.0657 127.71 74.425C127.42 74.7842 126.986 74.9998 126.551 74.9998ZM106.195 72.1258H124.595L121.191 60.4863H109.6L106.195 72.1258Z" fill="#353B63"/>
<path d="M70.8441 60.4861H48.6047C48.1701 60.4861 47.7354 60.2706 47.4456 59.9113C47.1559 59.5521 47.0834 59.0491 47.2283 58.618L51.5023 44.1045C51.7197 43.4579 52.2268 43.0986 52.8787 43.0986H66.6425C67.2945 43.0986 67.874 43.5297 68.0189 44.1045L72.2929 58.618C72.4378 59.0491 72.3653 59.5521 72.0756 59.9113C71.7134 60.2706 71.3512 60.4861 70.8441 60.4861ZM50.4882 57.6121H68.9606L65.5559 45.9726H53.9653L50.4882 57.6121Z" fill="#353B63"/>
<path d="M93.1559 60.4861H70.8441C70.4094 60.4861 69.9748 60.2706 69.685 59.9113C69.3953 59.5521 69.3228 59.0491 69.4677 58.618L73.7417 44.1045C73.959 43.4579 74.4661 43.0986 75.1181 43.0986H88.8819C89.5339 43.0986 90.1134 43.5297 90.2583 44.1045L94.5323 58.618C94.6772 59.0491 94.6047 59.5521 94.315 59.9113C94.0252 60.2706 93.5905 60.4861 93.1559 60.4861ZM72.8 57.6121H91.2L87.7953 46.0444H76.2047L72.8 57.6121Z" fill="#353B63"/>
<path d="M115.395 60.4861H93.156C92.7213 60.4861 92.2867 60.2706 91.9969 59.9113C91.7072 59.5521 91.6347 59.0491 91.7796 58.618L96.0536 44.1045C96.2709 43.4579 96.778 43.0986 97.43 43.0986H111.194C111.846 43.0986 112.425 43.5297 112.57 44.1045L116.844 58.618C116.989 59.0491 116.917 59.5521 116.627 59.9113C116.265 60.2706 115.902 60.4861 115.395 60.4861ZM95.0394 57.6121H113.439L110.035 45.9726H98.4442L95.0394 57.6121Z" fill="#353B63"/>
<path d="M81.9999 46.0447H59.6881C59.2534 46.0447 58.8188 45.8292 58.529 45.4699C58.2393 45.1107 58.1668 44.6077 58.3117 44.1766L62.5857 29.6631C62.803 29.0165 63.3101 28.6572 63.9621 28.6572H77.7259C78.3778 28.6572 78.9574 29.0883 79.1023 29.6631L83.3763 44.1766C83.5212 44.6077 83.4487 45.1107 83.1589 45.4699C82.8692 45.8292 82.4345 46.0447 81.9999 46.0447ZM61.644 43.1707H80.044L76.6393 31.5312H65.0487L61.644 43.1707Z" fill="#353B63"/>
<path d="M104.239 46.0447H82C81.5653 46.0447 81.1307 45.8292 80.8409 45.4699C80.5511 45.1107 80.4787 44.6077 80.6236 44.1766L84.8976 29.6631C85.1149 29.0165 85.622 28.6572 86.274 28.6572H100.038C100.69 28.6572 101.269 29.0883 101.414 29.6631L105.688 44.1766C105.833 44.6077 105.761 45.1107 105.471 45.4699C105.181 45.8292 104.746 46.0447 104.239 46.0447ZM83.9559 43.1707H102.356L98.9512 31.5312H87.3606L83.9559 43.1707Z" fill="#353B63"/>
<path d="M93.1559 31.3156H70.8441C70.4094 31.3156 69.9748 31.1001 69.685 30.7408C69.3953 30.3816 69.3228 29.8786 69.4677 29.4475L73.7417 15.0059C73.959 14.3592 74.4661 14 75.1181 14H88.8819C89.5339 14 90.1134 14.4311 90.2583 15.0059L94.5323 29.5194C94.6772 29.9505 94.6047 30.4534 94.315 30.8127C94.0252 31.1001 93.5905 31.3156 93.1559 31.3156ZM72.8 28.4417H91.2L87.7953 16.8021H76.2047L72.8 28.4417Z" fill="#353B63"/>
<ellipse cx="115.82" cy="66.1072" rx="19.9528" ry="20.0222" fill="#40B4FF"/>
<path d="M123.308 65.3034C123.862 64.6486 124.202 63.7707 124.202 62.8065C124.202 60.7865 122.712 59.1431 120.881 59.1431H110.759C108.929 59.1431 107.439 60.7865 107.439 62.8065C107.439 63.7707 107.779 64.6486 108.333 65.3034C107.607 65.9759 107.145 66.9835 107.145 68.1082V68.5377C107.145 70.5576 108.635 72.201 110.466 72.201H121.175C123.006 72.201 124.496 70.5576 124.496 68.5377V68.1082C124.496 66.9835 124.033 65.9759 123.308 65.3034ZM110.759 61.168H120.881C121.7 61.168 122.367 61.903 122.367 62.8065C122.367 63.7099 121.7 64.4449 120.881 64.4449H118.381V61.9287H116.545V64.4449H115.107V61.9287H113.272V64.4449H110.759C109.94 64.4449 109.274 63.7099 109.274 62.8065C109.274 61.903 109.94 61.168 110.759 61.168ZM122.66 68.5377C122.66 69.4412 121.994 70.1761 121.175 70.1761H118.381V67.2664H116.545V70.1761H115.107V67.2664H113.272V70.1761H110.466C109.647 70.1761 108.981 69.4412 108.981 68.5377V68.1082C108.981 67.2047 109.647 66.4698 110.466 66.4698H110.759H120.881H121.175C121.994 66.4698 122.66 67.2047 122.66 68.1082V68.5377Z" fill="#353B63"/>
<path d="M116 87C113.624 87 111.247 86.6107 109.016 85.7833C104.118 84.0313 100.044 80.5759 97.5704 76.0012L97.4734 75.8552C95.873 72.8378 95 69.4311 95 65.9757C95 65.5863 95 65.197 95.0485 64.8076V64.6616C95.291 60.7196 96.649 56.9235 98.9769 53.7115L99.0739 53.5655C103.002 48.2121 109.356 45 116 45C117.503 45 119.055 45.146 120.559 45.4867H120.607L120.704 45.5353L120.51 46.5087L120.704 45.584C130.307 47.774 137 56.1935 137 66.0243C137 77.5585 127.591 87 116 87ZM116 46.9467C109.986 46.9467 104.215 49.8667 100.674 54.6848L100.577 54.8308C98.4919 57.7509 97.2309 61.1576 97.037 64.759V64.905C97.037 65.2457 96.9885 65.635 96.9885 65.9757C96.9885 69.0904 97.7644 72.1564 99.2194 74.9305L99.3164 75.0765C101.596 79.2132 105.282 82.3766 109.695 83.9339C111.732 84.664 113.866 85.0046 116.049 85.0046C126.573 85.0046 135.109 76.4392 135.109 65.9757C135.109 57.0695 129.046 49.4287 120.316 47.4334H120.219C118.764 47.0927 117.358 46.9467 116 46.9467Z" fill="#353B63"/>
<rect x="32" y="9" width="12" height="12" rx="6" fill="#40B4FF"/>
<rect x="109" y="12" width="6" height="6" rx="3" fill="#40B4FF"/>
<rect x="44" y="41" width="6" height="6" rx="3" fill="#40B4FF"/>
</svg>
