<svg width="59" height="68" viewBox="0 0 59 68" fill="none" xmlns="http://www.w3.org/2000/svg">
<path d="M16.7467 64.4083C16.5578 64.3923 16.3753 64.3005 16.2371 64.1364L1.99651 47.2276C1.85825 47.0634 1.76742 46.789 1.82449 46.5652C1.88157 46.3414 2.01421 46.1241 2.25053 46.0299C8.98513 42.9065 13.9449 37.3841 18.7752 32.0413C23.6875 26.6292 28.7703 21.003 35.7822 17.7507C36.0973 17.6251 36.4719 17.695 36.6793 17.9413L50.9198 34.8501C51.0581 35.0143 51.1489 35.2887 51.0918 35.5125C51.0348 35.7362 50.9021 35.9536 50.6658 36.0478C43.9312 39.1712 38.9715 44.6936 34.1411 50.0364C29.2256 55.4863 24.1428 61.1125 17.1309 64.3648C17.0144 64.393 16.86 64.418 16.7467 64.4083Z" fill="white"/>
<path d="M16.7467 64.4083C16.5578 64.3923 16.3753 64.3005 16.2371 64.1364L1.99651 47.2276C1.85825 47.0634 1.76742 46.789 1.82449 46.5652C1.88157 46.3414 2.01421 46.1241 2.25053 46.0299C8.98513 42.9065 13.9449 37.3841 18.7752 32.0413C23.6875 26.6292 28.7703 21.003 35.7822 17.7507C36.0973 17.6251 36.4719 17.695 36.6793 17.9413L50.9198 34.8501C51.0581 35.0143 51.1489 35.2887 51.0918 35.5125C51.0348 35.7362 50.9021 35.9536 50.6658 36.0478C43.9312 39.1712 38.9715 44.6936 34.1411 50.0364C29.2256 55.4863 24.1428 61.1125 17.1309 64.3648C17.0144 64.393 16.86 64.418 16.7467 64.4083ZM3.76656 46.997L17.0047 62.7156C23.4781 59.5319 28.3084 54.1891 33.0125 48.9879C37.7167 43.7867 42.588 38.4093 49.1498 35.0806L35.9116 19.362C29.4382 22.5458 24.6079 27.8886 19.9038 33.0898C15.1964 38.3288 10.3251 43.7062 3.76656 46.997Z" fill="#353B63"/>
<path d="M17.422 57.4083C17.2331 57.3923 17.0506 57.3005 16.9124 57.1364L2.6718 40.2276C2.53354 40.0634 2.44271 39.789 2.49979 39.5652C2.55686 39.3414 2.6895 39.1241 2.92583 39.0299C9.66042 35.9065 14.6202 30.3841 19.4505 25.0413C24.3628 19.6292 29.4456 14.003 36.4575 10.7507C36.7726 10.6251 37.1472 10.695 37.3546 10.9413L51.5951 27.8501C51.7334 28.0143 51.8242 28.2887 51.7671 28.5125C51.7101 28.7362 51.5774 28.9536 51.3411 29.0478C44.6065 32.1712 39.6467 37.6936 34.8164 43.0364C29.9009 48.4863 24.8181 54.1125 17.8062 57.3648C17.6897 57.393 17.5353 57.418 17.422 57.4083Z" fill="white"/>
<path d="M17.422 57.4083C17.2331 57.3923 17.0506 57.3005 16.9124 57.1364L2.6718 40.2276C2.53354 40.0634 2.44271 39.789 2.49979 39.5652C2.55686 39.3414 2.6895 39.1241 2.92583 39.0299C9.66042 35.9065 14.6202 30.3841 19.4505 25.0413C24.3628 19.6292 29.4456 14.003 36.4575 10.7507C36.7726 10.6251 37.1472 10.695 37.3546 10.9413L51.5951 27.8501C51.7334 28.0143 51.8242 28.2887 51.7671 28.5125C51.7101 28.7362 51.5774 28.9536 51.3411 29.0478C44.6065 32.1712 39.6467 37.6936 34.8164 43.0364C29.9009 48.4863 24.8181 54.1125 17.8062 57.3648C17.6897 57.393 17.5353 57.418 17.422 57.4083ZM4.44185 39.997L17.68 55.7156C24.1534 52.5319 28.9837 47.1891 33.6878 41.9879C38.392 36.7867 43.2633 31.4093 49.8251 28.0806L36.5869 12.362C30.1135 15.5458 25.2832 20.8886 20.5791 26.0898C15.8717 31.3288 11.0004 36.7062 4.44185 39.997Z" fill="#353B63"/>
<path d="M18.0008 49.4083C17.8119 49.3923 17.6295 49.3005 17.4912 49.1364L3.25066 32.2276C3.1124 32.0634 3.02157 31.789 3.07864 31.5652C3.13572 31.3414 3.26836 31.1241 3.50469 31.0299C10.2393 27.9065 15.199 22.3841 20.0294 17.0413C24.9417 11.6292 30.0244 6.00298 37.0363 2.75071C37.3514 2.62509 37.726 2.69504 37.9334 2.94128L52.174 19.8501C52.3122 20.0143 52.4031 20.2887 52.346 20.5125C52.2889 20.7362 52.1563 20.9536 51.9199 21.0478C45.1854 24.1712 40.2256 29.6936 35.3953 35.0364C30.4797 40.4863 25.397 46.1125 18.3851 49.3648C18.2685 49.393 18.1142 49.418 18.0008 49.4083Z" fill="white"/>
<path d="M18.0008 49.4083C17.8119 49.3923 17.6295 49.3005 17.4912 49.1364L3.25066 32.2276C3.1124 32.0634 3.02157 31.789 3.07864 31.5652C3.13572 31.3414 3.26836 31.1241 3.50469 31.0299C10.2393 27.9065 15.199 22.3841 20.0294 17.0413C24.9417 11.6292 30.0244 6.00298 37.0363 2.75071C37.3514 2.62509 37.726 2.69504 37.9334 2.94128L52.174 19.8501C52.3122 20.0143 52.4031 20.2887 52.346 20.5125C52.2889 20.7362 52.1563 20.9536 51.9199 21.0478C45.1854 24.1712 40.2256 29.6936 35.3953 35.0364C30.4797 40.4863 25.397 46.1125 18.3851 49.3648C18.2685 49.393 18.1142 49.418 18.0008 49.4083ZM5.02071 31.997L18.2589 47.7156C24.7322 44.5319 29.5626 39.1891 34.2667 33.9879C38.9708 28.7867 43.8422 23.4093 50.4039 20.0806L37.1657 4.36202C30.6924 7.54576 25.8621 12.8886 21.1579 18.0898C16.4506 23.3288 11.5793 28.7062 5.02071 31.997Z" fill="#353B63"/>
<path d="M27.021 34.2454C24.943 34.0687 22.9327 33.0977 21.4809 31.3739C20.0638 29.6913 19.4031 27.6157 19.5896 25.4216C19.7729 23.2653 20.7777 21.2932 22.4586 19.8739C24.1394 18.4546 26.2125 17.7926 28.4038 17.9788C30.595 18.1651 32.5266 19.1676 33.9438 20.8503C36.8472 24.2977 36.4098 29.4424 32.9662 32.3503C31.2443 33.8042 29.0989 34.422 27.021 34.2454ZM28.3395 18.7354C26.3749 18.5684 24.4593 19.1676 22.9425 20.4485C21.4256 21.7293 20.5124 23.5187 20.3452 25.4858C20.178 27.4529 20.776 29.3708 22.0549 30.8893C24.6818 34.0084 29.3288 34.4034 32.4445 31.7725C35.5602 29.1416 35.9557 24.4886 33.3288 21.3695C32.0877 19.8542 30.304 18.9024 28.3395 18.7354Z" fill="#353B63"/>
<path d="M27.1288 21.3379C26.1964 21.5634 25.399 21.991 24.7744 22.6237L24.3154 22.2037L23.8106 22.7704L24.2695 23.1905C23.7615 23.795 23.5179 24.422 23.5356 25.1094C23.5565 25.7589 23.8105 26.352 24.3041 26.8131C24.6907 27.1889 25.1312 27.3788 25.5468 27.4141C25.6601 27.4237 25.7735 27.4334 25.9278 27.4084C26.4664 27.3399 27.1408 27.0162 27.9069 26.5098L29.6359 28.1046C29.0652 28.5515 28.3562 28.8341 27.4334 28.9462L27.6231 30.2959C28.7758 30.1653 29.7653 29.7159 30.5917 28.9479L31.2645 29.5386L31.7693 28.9718L31.1342 28.3844C31.6455 27.742 31.9301 27.0804 31.9092 26.4309C31.9293 25.7467 31.6721 25.1914 31.1407 24.7271C30.7163 24.3481 30.3136 24.1615 29.8602 24.1229C29.7469 24.1133 29.5958 24.1005 29.4792 24.1287C28.9029 24.194 28.2284 24.5177 27.4592 25.0619L27.4182 25.0965L25.7205 23.5805C26.2124 23.1651 26.7671 22.9074 27.4254 22.7729L27.1288 21.3379ZM25.6786 25.8631C25.4897 25.847 25.3073 25.7553 25.1658 25.629C24.952 25.4584 24.8579 25.2218 24.8804 24.957C24.8652 24.689 25.0042 24.396 25.2189 24.1094L26.7719 25.5369C26.3715 25.7696 26.0564 25.8952 25.8265 25.9138C25.7574 25.8317 25.7164 25.8663 25.6786 25.8631ZM30.1817 27.5033L28.5564 26.0315C28.9977 25.7642 29.3128 25.6386 29.5805 25.6233C29.6183 25.6265 29.656 25.6297 29.7316 25.6361C29.9205 25.6522 30.103 25.7439 30.2822 25.8734C30.4928 26.0818 30.5869 26.3185 30.5644 26.5833C30.5386 26.8859 30.3996 27.1789 30.1817 27.5033Z" fill="#353B63"/>
<path d="M34.2048 29.0001H52.4047C52.8218 29.0001 53.1631 29.3417 53.1631 29.7594L53.1631 48.4126H57.8268C58.1301 48.4126 58.3955 48.6024 58.5093 48.8682C58.623 49.134 58.5472 49.4756 58.3576 49.7034L43.8356 64.5859C43.5322 64.8897 43.0393 64.8897 42.736 64.5859L40.8402 62.6497L28.2139 49.7414C27.9865 49.5136 27.9485 49.2099 28.0623 48.9062C28.176 48.6404 28.4414 48.4506 28.7448 48.4506H33.4085V29.7973C33.4464 29.3417 33.7877 29.0001 34.2048 29.0001Z" fill="#40B4FF"/>
<path d="M34.2048 29.0001H52.4047C52.8218 29.0001 53.1631 29.3417 53.1631 29.7594L53.1631 48.4126H57.8268C58.1301 48.4126 58.3955 48.6024 58.5093 48.8682C58.623 49.134 58.5472 49.4756 58.3576 49.7034L43.8356 64.5859C43.5322 64.8897 43.0393 64.8897 42.736 64.5859L40.8402 62.6497L28.2139 49.7414C27.9865 49.5136 27.9485 49.2099 28.0623 48.9062C28.176 48.6404 28.4414 48.4506 28.7448 48.4506H33.4085V29.7973C33.4464 29.3417 33.7877 29.0001 34.2048 29.0001ZM51.6464 30.5187H34.9631V49.1719C34.9631 49.5895 34.6219 49.9312 34.2048 49.9312H30.5648L43.3048 62.9534L56.0447 49.9312H52.4047C51.9876 49.9312 51.6464 49.5895 51.6464 49.1719L51.6464 30.5187Z" fill="#353B63"/>
<path d="M38.8792 35.0824C39.1067 35.0824 39.2583 35.2342 39.2583 35.462L39.2097 48.3747C39.2097 48.6025 39.058 48.7544 38.8305 48.7544C38.603 48.7544 38.4513 48.6025 38.4513 48.3747L38.5 35.5C38.5 35.2722 38.6517 35.0824 38.8792 35.0824Z" fill="#353B63"/>
</svg>
