<svg width="176" height="94" viewBox="0 0 176 94" fill="none" xmlns="http://www.w3.org/2000/svg">
<circle cx="106" cy="24" r="9" fill="#40B4FF"/>
<rect width="12" height="12" rx="6" transform="matrix(-1 0 0 1 46 63)" fill="#40B4FF"/>
<rect width="9" height="9" rx="4.5" transform="matrix(-1 0 0 1 73 36)" fill="#40B4FF"/>
<rect width="6" height="6" rx="3" transform="matrix(-1 0 0 1 142 27)" fill="#40B4FF"/>
<rect width="6" height="6" rx="3" transform="matrix(-1 0 0 1 121 69)" fill="#40B4FF"/>
<path d="M72.2982 80.0004H58.0442C57.4699 80.0004 57 79.5326 57 78.961V55.4193C57 54.8476 57.4699 54.3799 58.0442 54.3799H72.246C72.8204 54.3799 73.2903 54.8476 73.2903 55.4193V78.961C73.3425 79.5326 72.8726 80.0004 72.2982 80.0004ZM59.0885 77.9216H71.2018V56.4586H59.0885V77.9216Z" fill="#353B63"/>
<path d="M68.1211 75.3228C67.8078 75.3228 67.599 75.1149 67.599 74.8031V60.096H62.2211C61.9078 60.096 61.699 59.8881 61.699 59.5763C61.699 59.2645 61.9078 59.0566 62.2211 59.0566H68.0689C68.3822 59.0566 68.591 59.2645 68.591 59.5763V74.8031C68.6432 75.1149 68.3822 75.3228 68.1211 75.3228Z" fill="#353B63"/>
<path d="M92.661 80.0001H78.407C77.8327 80.0001 77.3628 79.5324 77.3628 78.9607V47.4158C77.3628 46.8442 77.8327 46.3765 78.407 46.3765H92.6088C93.1831 46.3765 93.6531 46.8442 93.6531 47.4158V78.9607C93.7053 79.5324 93.2354 80.0001 92.661 80.0001ZM79.4513 77.9213H91.5646V48.4552H79.4513V77.9213Z" fill="#353B63"/>
<path d="M88.4839 75.3225C88.1706 75.3225 87.9618 75.1146 87.9618 74.8028V52.0926H82.5839C82.2706 52.0926 82.0618 51.8847 82.0618 51.5729C82.0618 51.2611 82.2706 51.0532 82.5839 51.0532H88.4317C88.745 51.0532 88.9538 51.2611 88.9538 51.5729V74.8028C89.006 75.1146 88.745 75.3225 88.4839 75.3225Z" fill="#353B63"/>
<path d="M113.024 80.0002H98.8223C98.248 80.0002 97.7781 79.5325 97.7781 78.9609V36.6585C97.7781 36.0869 98.248 35.6191 98.8223 35.6191H113.024C113.598 35.6191 114.068 36.0869 114.068 36.6585V78.9609C114.068 79.5325 113.598 80.0002 113.024 80.0002ZM99.8666 77.9215H111.98V37.6979H99.8666V77.9215Z" fill="#353B63"/>
<path d="M108.847 75.3232C108.534 75.3232 108.325 75.1153 108.325 74.8035V41.3358H102.999C102.686 41.3358 102.477 41.1279 102.477 40.8161C102.477 40.5043 102.686 40.2964 102.999 40.2964H108.847C109.16 40.2964 109.369 40.5043 109.369 40.8161V74.8035C109.369 75.1153 109.108 75.3232 108.847 75.3232Z" fill="#353B63"/>
<path d="M105.923 34.0598C100.388 34.0598 95.8459 29.5386 95.8459 24.0299C95.8459 18.5213 100.388 14 105.923 14C111.457 14 116 18.5213 116 24.0299C116 29.5386 111.457 34.0598 105.923 34.0598ZM105.923 16.0787C101.537 16.0787 97.9344 19.6646 97.9344 24.0299C97.9344 28.3953 101.537 31.9811 105.923 31.9811C110.309 31.9811 113.911 28.3953 113.911 24.0299C113.911 19.6646 110.309 16.0787 105.923 16.0787Z" fill="#353B63"/>
<path d="M58.3576 47.3121C57.9399 47.3121 57.5744 47.0522 57.3656 46.6885C57.1567 46.1688 57.4178 45.5452 57.9399 45.3373L91.7735 31.5137C92.2956 31.3058 92.9222 31.5656 93.131 32.0853C93.3399 32.605 93.0788 33.2286 92.5567 33.4365L58.7753 47.2601C58.6187 47.3121 58.5142 47.3121 58.3576 47.3121Z" fill="#353B63"/>
<path d="M90.3638 39.2048C90.2593 39.2048 90.1549 39.2048 90.0505 39.1528C89.5284 38.9449 89.2151 38.3733 89.3717 37.8536L90.9903 33.0205L85.9779 31.4095C85.4036 31.2536 85.1425 30.63 85.2992 30.1103C85.4558 29.5386 86.0301 29.2788 86.6045 29.4347L92.6611 31.3056C92.9222 31.4095 93.131 31.5654 93.2877 31.8252C93.3921 32.0851 93.4443 32.3449 93.3399 32.6048L91.3558 38.4252C91.1992 38.893 90.7815 39.2048 90.3638 39.2048Z" fill="#353B63"/>
<path d="M106.393 19.1968H105.662V19.7684C104.879 19.8204 104.304 20.0283 103.782 20.496C103.312 20.9117 103.051 21.4834 103.051 22.159C103.051 22.8346 103.26 23.3543 103.678 23.6661C104.096 24.0298 104.722 24.2897 105.61 24.4976V26.7322C104.931 26.6283 104.252 26.2645 103.573 25.6928L102.738 26.7322C103.573 27.4598 104.565 27.8755 105.61 28.0314V28.8629H106.341V28.0314C107.124 27.9795 107.803 27.7716 108.273 27.3039C108.742 26.8881 109.004 26.3165 109.004 25.6409C109.004 24.9653 108.795 24.4456 108.377 24.0818C107.959 23.718 107.281 23.4582 106.393 23.2503H106.341V21.0676C106.967 21.1716 107.489 21.3795 108.011 21.7432L108.795 20.6519C108.011 20.1322 107.228 19.8204 106.341 19.7684V19.1968H106.393ZM105.662 23.0424C105.244 22.8865 104.931 22.7306 104.774 22.6267C104.618 22.4708 104.513 22.2629 104.513 22.0031C104.513 21.7432 104.618 21.5354 104.827 21.3275C105.035 21.1716 105.296 21.0676 105.662 21.0157V23.0424ZM106.393 26.7842V24.6535C106.863 24.8094 107.176 24.9653 107.333 25.1212C107.489 25.2771 107.594 25.485 107.594 25.7968C107.594 26.0566 107.489 26.3165 107.281 26.4724C107.072 26.6283 106.758 26.7322 106.393 26.7842Z" fill="#353B63"/>
</svg>
