<svg width="123" height="41" viewBox="0 0 123 41" fill="none" xmlns="http://www.w3.org/2000/svg">
<path d="M0 36.0957C0 24.1397 0 12.1825 0 0.224271C0.0853118 0.219928 0.171106 0.211243 0.256417 0.211243H30.5532C30.8612 0.211243 30.8612 0.211243 30.8612 0.524892C30.8612 12.1496 30.8612 23.7742 30.8612 35.3989C30.8612 35.6696 30.8496 35.9408 30.8318 36.2105C30.7643 37.2238 30.2717 37.9394 29.3232 38.3173C27.9365 38.8615 26.513 39.3064 25.0634 39.6486C23.4728 40.0317 21.8697 40.3377 20.2435 40.4959C19.1474 40.6026 18.05 40.716 16.9505 40.757C14.6057 40.8448 12.2651 40.757 9.94099 40.4096C8.82808 40.244 7.7171 40.0549 6.61528 39.8276C4.94278 39.4826 3.31174 38.9841 1.71106 38.3858C0.882519 38.0765 0.298832 37.5481 0.102181 36.6569C0.0612124 36.4711 0.0337391 36.2829 0 36.0957ZM12.8146 9.01177C12.8044 8.97359 12.797 8.93472 12.7924 8.89548C12.7847 8.54226 13.0026 8.23585 13.405 8.18036C13.8388 8.12052 14.2847 8.14658 14.7252 8.13982C15.3185 8.13066 15.9157 8.16202 16.5052 8.11087C17.18 8.052 17.607 7.61965 17.727 6.94892C17.7705 6.68819 17.7926 6.42432 17.7931 6.15997C17.8037 5.30684 17.8027 4.45372 17.8037 3.60252C17.8037 3.20877 17.8364 3.24737 17.4557 3.24737C14.628 3.24737 11.8003 3.24737 8.97268 3.24737C8.71337 3.24737 8.71289 3.24737 8.71241 2.98294C8.71241 2.60608 8.70855 2.22922 8.71241 1.85235C8.71241 1.71531 8.66421 1.66368 8.52684 1.66561C7.71469 1.67671 6.90013 1.64824 6.09088 1.69939C4.69311 1.78769 3.49923 2.97329 3.68094 4.54636C3.81445 5.70976 4.89121 6.66953 6.04894 6.62707C6.17233 6.62224 6.2321 6.58605 6.22728 6.4548C6.21852 6.28297 6.21852 6.1108 6.22728 5.93897C6.23885 5.77153 6.18776 5.6977 6.00797 5.70446C5.88125 5.7109 5.75473 5.68815 5.63817 5.63795C5.5216 5.58776 5.41809 5.51146 5.3356 5.41493C4.94712 4.96038 4.88976 4.42862 5.09461 3.88818C5.29174 3.36656 5.72119 3.11612 6.26584 3.08572C6.58202 3.06739 6.90013 3.08958 7.2168 3.07848C7.38019 3.07269 7.41875 3.14025 7.41634 3.28839C7.40959 3.68503 7.41634 4.08216 7.41249 4.47881C7.41249 4.61392 7.45635 4.67424 7.59564 4.66507C7.70746 4.65735 7.82025 4.66507 7.93303 4.66507C8.77217 4.66507 9.61083 4.66748 10.45 4.66507C10.5979 4.66507 10.6722 4.70319 10.6592 4.8658C10.6481 5.00381 10.6693 5.14519 10.6495 5.28127C10.6396 5.31336 10.622 5.3425 10.5981 5.36608C10.5742 5.38966 10.5448 5.40694 10.5126 5.41638C10.3492 5.43423 10.183 5.41638 10.0181 5.42603C9.93135 5.43037 9.79158 5.37778 9.79399 5.53701C9.79399 5.68178 9.71205 5.85549 9.93858 5.93607C10.4235 6.10979 10.9026 6.29991 11.3845 6.48182C11.4433 6.50402 11.506 6.51753 11.5918 6.54262C11.5981 6.44612 11.6058 6.3776 11.6063 6.30763C11.6063 5.84487 11.6164 5.38164 11.6024 4.91888C11.5961 4.71525 11.6636 4.66217 11.8612 4.66314C13.2947 4.67086 14.7281 4.667 16.1615 4.66748C16.1948 4.66748 16.2372 4.65494 16.2579 4.67134C16.3109 4.71091 16.3953 4.76351 16.3958 4.81128C16.4006 5.30684 16.416 5.80434 16.3799 6.29798C16.3394 6.85434 16.1495 7.00441 15.5918 7.01551C14.9382 7.02854 14.2837 7.02709 13.6311 7.06087C13.3086 7.07795 12.989 7.13087 12.6782 7.21866C12.2348 7.34412 11.8897 7.61289 11.7075 8.05635C11.4067 8.78884 11.6111 9.76887 12.1803 10.3156C12.9279 11.0351 14.2837 11.2078 15.1874 10.6606C15.4578 10.497 15.72 10.5043 15.9996 10.5086C16.0434 10.5086 16.123 10.5631 16.1239 10.594C16.1331 10.9149 16.1297 11.2358 16.1297 11.5591C16.0946 11.5626 16.0593 11.5626 16.0242 11.5591C15.3846 11.3868 14.7401 11.4225 14.0962 11.5243C12.9761 11.7014 11.8704 11.9765 10.7266 11.9953C10.209 12.004 9.7106 11.9408 9.24211 11.7188C8.19379 11.2184 7.6395 10.36 7.45731 9.2347C7.44719 9.17246 7.4361 9.08656 7.39417 9.05809C7.19463 8.92347 6.98448 8.80524 6.73963 8.65807C6.73963 8.95531 6.72855 9.19851 6.73963 9.44075C6.78783 10.386 7.0804 11.243 7.79133 11.8911C8.19527 12.25 8.63175 12.5706 9.09511 12.8484C9.82532 13.2982 10.5984 13.6794 11.3257 14.1339C12.2926 14.739 13.1443 15.4797 13.7159 16.4897C13.8971 16.8101 14.0229 17.1618 14.1863 17.4933C14.2162 17.5537 14.3054 17.5845 14.3671 17.6289C14.3994 17.5681 14.4563 17.5083 14.4591 17.4461C14.4702 17.2149 14.4635 16.9833 14.4635 16.7517C14.4635 16.5201 14.4635 16.2827 14.4635 16.011C14.5341 16.0468 14.6028 16.0862 14.6693 16.1292C15.3407 16.6315 16.0343 17.1068 16.6748 17.6463C17.4942 18.3373 18.1478 19.1702 18.4447 20.225C18.5859 20.7254 18.6635 21.2436 18.7782 21.7522C18.7922 21.8135 18.8563 21.8627 18.8968 21.9177C18.9489 21.8637 19.0347 21.8159 19.0462 21.7542C19.0871 21.5398 19.1139 21.323 19.1262 21.1051C19.1797 20.1434 19.1002 19.202 18.6654 18.3204C18.6468 18.2768 18.6307 18.2322 18.6173 18.1867C18.6457 18.1775 18.6752 18.1713 18.705 18.1684C19.2655 18.193 19.8261 18.2215 20.3871 18.2432C20.5317 18.249 20.5346 18.3339 20.5375 18.443C20.5568 19.1364 20.5775 19.8298 20.6059 20.5227C20.6112 20.6554 20.5664 20.7013 20.4401 20.7003C20.3214 20.6962 20.2025 20.7042 20.0854 20.7239C20.0285 20.735 19.9818 20.7968 19.9307 20.8354C19.9789 20.8764 20.0227 20.9411 20.0782 20.9541C20.1816 20.977 20.2879 20.984 20.3934 20.9749C20.59 20.9594 20.6777 21.0342 20.6941 21.2374C20.7161 21.4478 20.7541 21.6562 20.8079 21.8608C20.8185 21.9062 20.8922 21.9361 20.9366 21.9732C20.9703 21.925 21.033 21.8825 21.033 21.8343C21.045 21.6412 21.0378 21.4511 21.0412 21.2591C21.0455 21.0096 21.047 21.0106 21.3029 21.0246C21.7641 21.0506 22.2259 21.0728 22.6872 21.1013C23.1947 21.1307 23.7022 21.163 24.2098 21.1915C24.3404 21.1988 24.4194 21.2349 24.4025 21.3932C24.3365 21.9771 24.2767 22.5619 24.2189 23.1472C24.2049 23.2872 24.1524 23.3629 23.9991 23.3658C23.8671 23.37 23.7358 23.3874 23.6073 23.4179C23.5562 23.4295 23.5147 23.486 23.4689 23.5217C23.5133 23.5521 23.5621 23.5755 23.6135 23.5912C23.774 23.6119 23.936 23.6201 24.1191 23.6351L23.9548 24.396C24.0873 24.4593 24.1649 24.4197 24.2213 24.3044C24.2965 24.15 24.3895 24.0033 24.4551 23.8455C24.5124 23.707 24.5958 23.6602 24.7443 23.6727C25.3429 23.7248 25.942 23.7692 26.5406 23.8175C26.7474 23.8339 26.9542 23.8517 27.1711 23.8696C27.1657 23.8992 27.1572 23.9282 27.1455 23.956C26.7747 24.5144 26.2934 24.9906 25.7314 25.3553C25.6685 25.3906 25.5992 25.4127 25.5275 25.4205C25.2668 25.46 25.0041 25.4885 24.7433 25.5286C23.1707 25.7698 21.5987 26.013 20.0271 26.2582C19.8699 26.2828 19.7947 26.2529 19.7485 26.084C19.4333 24.9302 18.8327 23.9352 18.0085 23.0792C17.0571 22.0934 15.9384 21.3131 14.8163 20.5435C12.6281 19.0399 10.4254 17.5701 8.24199 16.0679C6.86398 15.1193 5.54045 14.0968 4.36632 12.8967C3.79228 12.309 3.25438 11.686 2.96326 10.8995C2.52947 9.72158 2.48898 8.55529 3.16859 7.44787C3.33632 7.17427 3.28282 6.91707 3.28571 6.59812C3.18353 6.66085 3.1146 6.69462 3.05387 6.74288C2.52369 7.14435 2.17714 7.68141 1.98579 8.3063C1.57899 9.6328 1.73949 10.9197 2.32607 12.1623C2.73287 13.0236 3.33825 13.7397 4.00869 14.4027C4.56635 14.9566 5.15341 15.4812 5.72457 16.0211C6.94255 17.1715 8.06703 18.3923 8.70132 19.9837C8.72205 20.0363 8.81844 20.0585 8.88014 20.0947C8.9105 20.0378 8.96641 19.9813 8.96738 19.9239C8.97509 19.4809 8.97123 19.0379 8.97268 18.5945C8.97268 18.525 8.98184 18.456 8.9881 18.3667C9.02654 18.3842 9.06389 18.4041 9.09993 18.4261C9.82291 18.9598 10.5671 19.4664 11.2616 20.0349C12.4512 21.0086 13.4923 22.1194 14.1738 23.5236C14.2408 23.6621 14.3362 23.6472 14.477 23.5984V22.022C14.5231 22.0447 14.5679 22.0699 14.6115 22.0972C15.2236 22.547 15.8511 22.9774 16.443 23.4527C17.58 24.3661 18.5233 25.4422 19.1127 26.7981C19.42 27.5161 19.6307 28.2718 19.7393 29.0453C19.7533 29.1389 19.7331 29.2557 19.8839 29.2634C20.0439 29.2716 20.0232 29.1486 20.0247 29.0569C20.0314 28.5951 20.0459 28.1323 20.029 27.6715C20.0174 27.3516 19.9591 27.0336 19.9201 26.6992C20.0001 26.6944 20.0647 26.6871 20.1292 26.6871C21.728 26.6871 23.3268 26.6736 24.9245 26.6987C25.3795 26.7095 25.8312 26.7791 26.2683 26.9057C27.0877 27.1393 27.6155 27.6633 27.6786 28.5652C27.6849 28.5961 27.6985 28.6251 27.7182 28.6498C27.7379 28.6744 27.7631 28.6941 27.7919 28.707C27.8931 28.7379 27.9789 28.707 28.0155 28.5816C28.1731 28.0286 28.3418 27.479 28.4975 26.9245C28.5061 26.8846 28.5059 26.8432 28.497 26.8033C28.4881 26.7634 28.4707 26.7259 28.4459 26.6934C28.216 26.4492 27.9909 26.1925 27.723 25.9928C27.469 25.7997 27.1663 25.6762 26.8833 25.5208C26.8842 25.5112 26.8877 25.5021 26.8935 25.4943C26.9609 25.43 27.0292 25.3676 27.0983 25.3071C28.3201 24.2165 29.0156 22.8452 29.1602 21.2161C29.3145 19.4669 28.8055 17.9098 27.6661 16.5698C27.5697 16.4588 27.5629 16.3845 27.6381 16.2629C27.9729 15.724 28.3025 15.1817 28.6267 14.6358C29.0161 13.9771 28.8296 13.3136 28.1645 12.9642C27.3046 12.5131 26.4452 12.0609 25.582 11.6165C25.4716 11.56 25.3498 11.5295 25.2258 11.5272C23.4158 11.5218 21.6059 11.5218 19.7962 11.5272C19.6662 11.5311 19.5393 11.5674 19.427 11.6329C18.8727 11.9543 18.3261 12.2887 17.7762 12.6178C17.7169 12.6535 17.6533 12.6824 17.5631 12.7292C17.5574 12.6241 17.5501 12.5541 17.5501 12.4836C17.5501 12.0802 17.5501 11.6768 17.5501 11.2734C17.5501 10.6384 17.5458 10.0039 17.5525 9.36885C17.5525 9.2043 17.4961 9.14109 17.3337 9.15412C17.2127 9.16377 17.0927 9.15412 16.9481 9.15412C17.2711 8.68316 17.2711 8.68316 17.1997 8.5881C17.1563 8.61561 17.1101 8.64022 17.0686 8.67158C16.683 8.9611 16.2521 9.03638 15.7914 8.9307C15.4443 8.85109 15.1002 8.75603 14.7594 8.65228C14.1299 8.45926 13.5463 8.55867 12.9949 8.90224C12.939 8.93843 12.884 8.97027 12.8146 9.01177ZM17.5241 32.8241C17.6782 32.7612 17.8286 32.6899 17.9748 32.6103C18.6221 32.2161 18.8973 31.638 18.7966 30.8847C18.7088 30.2275 18.2938 29.8434 17.6942 29.674C17.2775 29.5512 16.8468 29.4818 16.4126 29.4675C14.9739 29.4405 13.5342 29.454 12.095 29.4526C12.0347 29.4526 11.975 29.4627 11.9147 29.468L11.9041 29.5192C11.9493 29.5489 11.9959 29.5763 12.0439 29.6012C12.4117 29.7706 12.6117 30.0683 12.6705 30.4572C12.7062 30.6986 12.7239 30.9423 12.7235 31.1863C12.7277 33.1033 12.7277 35.0202 12.7235 36.9372C12.7235 37.1273 12.777 37.1833 12.9684 37.1819C14.0446 37.1732 15.1214 37.1978 16.1977 37.1683C16.6976 37.1592 17.1948 37.0912 17.6788 36.9657C18.6192 36.7104 19.2544 36.128 19.3759 35.105C19.4723 34.2775 19.1773 33.4938 18.3469 33.1063C18.0808 32.9828 17.7911 32.9138 17.5241 32.8241ZM3.12135 29.4603L3.10978 29.5148C3.1361 29.5412 3.16575 29.5641 3.19799 29.5828C3.61009 29.7551 3.82457 30.0794 3.88193 30.5069C3.92201 30.8078 3.94278 31.111 3.9441 31.4146C3.94941 33.2482 3.947 35.078 3.947 36.9097V37.177C4.49984 37.177 5.02038 37.1693 5.54045 37.1814C5.72119 37.1857 5.76072 37.1235 5.75927 36.9546C5.75204 35.976 5.7559 34.9974 5.7559 34.0183C5.7559 33.9411 5.7559 33.8634 5.7559 33.7655C5.87408 33.7721 5.99257 33.7712 6.11064 33.7626C6.30343 33.7356 6.41959 33.8176 6.53238 33.9735C7.27319 34.995 8.02654 36.0074 8.77073 37.027C8.80093 37.0767 8.84415 37.1173 8.89572 37.1443C8.94729 37.1712 9.00523 37.1836 9.06329 37.1799C9.67735 37.1732 10.2919 37.1775 10.9059 37.1765C10.9662 37.1765 11.0269 37.1679 11.131 37.1601L9.7135 35.3463L8.31911 33.5609C8.51576 33.489 8.68349 33.433 8.84929 33.3679C9.85424 32.964 10.3222 32.2947 10.2736 31.2992C10.2384 30.5803 9.91352 30.0388 9.23344 29.7464C8.75964 29.5428 8.25838 29.4637 7.74747 29.4608C6.26584 29.453 4.7871 29.453 3.3074 29.453C3.24522 29.453 3.18112 29.4574 3.12135 29.4603ZM8.98618 24.0819C9.04856 24.1045 9.10956 24.1308 9.16885 24.1606C9.87303 24.5915 10.5917 25.0007 11.2761 25.4605C12.4869 26.2736 13.5304 27.2532 14.1714 28.597C14.2355 28.7317 14.3261 28.7331 14.4524 28.6791C14.436 28.5879 14.423 28.5034 14.4042 28.4199C14.1632 27.2247 13.5708 26.2181 12.7447 25.336C11.826 24.355 10.7628 23.5506 9.64987 22.8099C8.32152 21.9255 6.96761 21.0752 5.63925 20.1883C4.78758 19.6189 3.96917 19.0008 3.29438 18.2171C2.83409 17.6791 2.50634 17.075 2.48802 16.3608C2.47838 15.9376 2.58201 15.5125 2.6278 15.0874C2.63551 15.0174 2.63503 14.918 2.59406 14.8775C2.50923 14.7935 2.39403 14.7395 2.28125 14.6666C2.22534 14.7631 2.1781 14.8341 2.14002 14.9079C1.79543 15.5921 1.67726 16.3683 1.80263 17.1242C1.96555 18.18 2.48175 19.0616 3.22305 19.7917C3.83277 20.3919 4.50176 20.9377 5.18233 21.4584C6.64275 22.5764 7.86025 23.8884 8.643 25.5725C8.69506 25.6844 8.73554 25.8437 8.89412 25.7829C8.95244 25.7602 8.98232 25.6009 8.98425 25.5035C8.99148 25.0446 8.98618 24.5828 8.98618 24.0819ZM27.6762 35.7897C27.5239 35.878 27.4044 35.9567 27.2771 36.0199C26.5729 36.3702 25.8268 36.4421 25.06 36.3258C24.0198 36.168 23.3012 35.5977 22.9874 34.5839C22.6867 33.6125 22.7113 32.6262 23.012 31.6587C23.2318 30.9489 23.7013 30.4461 24.4474 30.2975C24.8358 30.2237 25.2329 30.2061 25.6263 30.2454C26.2433 30.3038 26.7855 30.547 27.1383 31.1009C27.1735 31.138 27.2134 31.1705 27.2569 31.1974C27.3624 30.8413 27.4608 30.5146 27.5557 30.187C27.6675 29.801 27.6714 29.786 27.2897 29.6562C25.8967 29.1823 24.5004 29.1891 23.1306 29.7266C22.0538 30.1493 21.3684 30.9489 21.0629 32.0718C20.8821 32.7382 20.8701 33.4147 20.952 34.0955C21.1347 35.6397 22.0427 36.6916 23.5383 37.0984C24.3577 37.3213 25.193 37.3421 26.0307 37.2431C26.5426 37.1838 27.0429 37.0646 27.5008 36.8089C27.5687 36.7712 27.6627 36.7003 27.6666 36.6395C27.6863 36.3693 27.6762 36.0937 27.6762 35.7897Z" fill="#C6C6C6"/>
<path d="M27.3963 14.0601L26.5133 15.5077C26.2882 15.374 26.0766 15.2563 25.8751 15.1217C25.8428 15.1004 25.8385 15.0034 25.8539 14.9504C25.9142 14.7409 25.9985 14.5373 26.0501 14.3264C26.0655 14.2647 26.0318 14.1479 25.984 14.1204C25.6071 13.9018 25.222 13.6972 24.8364 13.4931C24.7998 13.4738 24.7439 13.4931 24.6967 13.4931C24.6967 13.5467 24.6798 13.6142 24.7049 13.6519C24.8114 13.8111 24.9261 13.965 25.0475 14.1136C25.1189 14.201 25.1131 14.2666 25.0514 14.3578C24.8364 14.6739 24.8408 14.6729 24.473 14.586C21.8978 13.9727 19.4165 14.9325 17.9334 16.9022C17.9021 16.9437 17.8674 16.9823 17.8481 17.006L15.8628 15.3171C15.9982 15.2327 16.1404 15.1415 16.2855 15.0546C17.4524 14.3496 18.6174 13.647 19.7876 12.9502C19.9057 12.8818 20.0392 12.8446 20.1756 12.8422C21.7479 12.8348 23.3201 12.8348 24.8923 12.8422C24.997 12.8383 25.1011 12.8583 25.197 12.9005C25.8968 13.2586 26.5918 13.6244 27.2883 13.9901C27.3163 14.0051 27.3423 14.0253 27.3963 14.0601Z" fill="#C6C6C6"/>
<path d="M24.4078 20.1401C24.3953 20.4909 24.3953 20.4885 24.0338 20.5078C23.131 20.556 22.2283 20.6091 21.3255 20.6574C21.0787 20.6704 21.059 20.654 21.0961 20.404C21.1925 19.7705 21.2976 19.1388 21.393 18.5057C21.4147 18.361 21.4744 18.3035 21.6258 18.3127C22.4105 18.3499 23.1951 18.3798 23.9803 18.4092C24.0945 18.4136 24.1625 18.4469 24.1798 18.5747C24.2517 19.0944 24.3312 19.616 24.4078 20.1401Z" fill="#C6C6C6"/>
<path d="M24.7419 23.2563C24.7545 23.1984 24.7617 23.1554 24.7733 23.1115C24.928 22.5522 25.0909 21.9949 25.2336 21.4328C25.2688 21.2943 25.3155 21.2484 25.4553 21.2576C26.2586 21.31 27.0619 21.3575 27.8652 21.3999C28.0209 21.4081 28.085 21.4574 28.0464 21.6137C27.9554 21.993 27.8691 22.3723 27.7626 22.7457C27.7469 22.7857 27.7223 22.8214 27.6905 22.8501C27.6587 22.8788 27.6207 22.8998 27.5794 22.9113C26.6709 23.0333 25.7609 23.1434 24.8514 23.2553C24.8149 23.2576 24.7784 23.2579 24.7419 23.2563Z" fill="#C6C6C6"/>
<path d="M28.0098 20.2906C27.8223 20.3046 27.6271 20.3234 27.4314 20.3335C26.8188 20.3649 26.2057 20.3876 25.5931 20.4267C25.4003 20.4392 25.3671 20.3668 25.3671 20.1907C25.3671 19.6898 25.3502 19.1885 25.33 18.6881C25.3242 18.5433 25.3435 18.4675 25.5155 18.4772C26.1479 18.5134 26.7807 18.5356 27.4131 18.5737C27.4471 18.5763 27.4801 18.5862 27.5098 18.6029C27.5395 18.6196 27.5653 18.6425 27.5852 18.6702C27.8223 19.1682 27.9896 19.6879 28.0329 20.2418C28.0334 20.2515 28.0223 20.2636 28.0098 20.2906Z" fill="#C6C6C6"/>
<path d="M16.847 13.1679C16.7207 13.2475 16.6181 13.3127 16.513 13.3773C15.9245 13.731 15.3331 14.0804 14.748 14.4389C14.6226 14.5161 14.532 14.5142 14.4106 14.4336C13.876 14.0804 13.3348 13.7378 12.7969 13.3904C12.7385 13.3527 12.6836 13.3088 12.5906 13.2408C12.8981 13.1761 13.1603 13.1182 13.4235 13.0661C14.1219 12.9276 14.8212 12.7331 15.5374 12.8089C15.9259 12.8499 16.3048 12.9816 16.687 13.0767C16.7337 13.0893 16.7733 13.1264 16.847 13.1679Z" fill="#C6C6C6"/>
<path d="M23.9278 17.5961L21.6109 17.7235C21.6105 17.6667 21.6156 17.6099 21.6263 17.5541C21.8143 16.9698 22.0018 16.3854 22.2008 15.8049C22.2178 15.7692 22.2425 15.7377 22.273 15.7127C22.3036 15.6876 22.3394 15.6697 22.3777 15.6602C23.107 15.5332 23.1527 15.5516 23.4434 16.2271C23.6126 16.6209 23.747 17.0291 23.895 17.4335C23.9095 17.4869 23.9205 17.5412 23.9278 17.5961Z" fill="#C6C6C6"/>
<path d="M20.8123 16.0867C20.7675 16.3521 20.7246 16.5765 20.6937 16.8023C20.6571 17.0701 20.6306 17.3394 20.6002 17.6082C20.5891 17.7047 20.5737 17.7901 20.446 17.7959C19.8743 17.821 19.3027 17.8504 18.6838 17.8803C19.2046 17.0885 19.9441 16.4653 20.8123 16.0867Z" fill="#C6C6C6"/>
<path d="M26.7904 17.4379C26.252 17.4679 25.7671 17.4973 25.2818 17.5185C25.2336 17.5185 25.1516 17.4847 25.141 17.4495C24.9964 16.9728 24.8658 16.4926 24.7222 15.9826C25.5309 16.2977 26.1956 16.7696 26.7904 17.4379Z" fill="#C6C6C6"/>
<path d="M13.3473 9.7216C13.6977 9.296 14.3961 9.14883 14.9904 9.36646C14.7393 9.91365 13.8331 9.99713 13.3473 9.7216Z" fill="#C6C6C6"/>
<path d="M14.5454 34.8445C14.5454 34.3941 14.5454 33.945 14.5454 33.4972C14.5454 33.4123 14.5324 33.3095 14.6635 33.3148C15.2616 33.338 15.8685 33.3115 16.456 33.4031C17.2089 33.5204 17.5164 33.9494 17.5424 34.7306C17.5766 35.727 16.9925 36.3548 15.9731 36.3987C15.5518 36.4171 15.1286 36.3987 14.7069 36.4098C14.5681 36.4127 14.5425 36.35 14.5435 36.2308C14.5478 35.769 14.5454 35.3067 14.5454 34.8445Z" fill="#C6C6C6"/>
<path d="M14.5455 31.3934C14.5455 31.0556 14.5455 30.7178 14.5455 30.3801C14.5455 30.2783 14.5696 30.2146 14.6901 30.2189C15.1842 30.2372 15.6816 30.2237 16.1713 30.2778C16.6778 30.3337 16.9294 30.671 16.9641 31.184C17.0263 32.1008 16.4576 32.4386 15.8406 32.509C15.4623 32.5525 15.0772 32.537 14.6949 32.5573C14.56 32.5636 14.5455 32.4912 14.5465 32.3855C14.5475 32.055 14.5455 31.7239 14.5455 31.3934Z" fill="#C6C6C6"/>
<path d="M5.75643 33.0272C5.75643 32.8607 5.75643 32.7165 5.75643 32.5727C5.75643 31.8517 5.76029 31.1308 5.75354 30.4104C5.75354 30.2623 5.79644 30.214 5.94634 30.2174C6.38012 30.2285 6.81825 30.2174 7.25397 30.2323C8.01792 30.2579 8.41411 30.6666 8.43339 31.4305C8.45701 32.3613 7.9061 32.9592 6.93923 33.0229C6.55509 33.0484 6.17239 33.0272 5.75643 33.0272Z" fill="#C6C6C6"/>
<path d="M35.0454 0.211243H34.0332V40.7883H35.0454V0.211243Z" fill="#C6C6C6"/>
<path d="M39.0646 3.68551C39.6136 3.58901 40.4363 3.51855 41.2817 3.51855C42.4385 3.51855 43.2265 3.71157 43.7635 4.16371C44.205 4.53381 44.4556 5.09549 44.4556 5.77635C44.4556 6.81574 43.7519 7.52024 43 7.79481V7.83051C43.5726 8.04573 43.9187 8.60692 44.1216 9.38332C44.3722 10.3865 44.5867 11.3183 44.754 11.6291H43.24C43.1205 11.3878 42.9296 10.7335 42.7031 9.72978C42.4766 8.67882 42.0948 8.34442 41.2571 8.32029H40.5202V11.6291H39.0646V3.68551ZM40.5202 7.24471H41.3911C42.3811 7.24471 43.0019 6.71923 43.0019 5.9187C43.0019 5.03469 42.3816 4.62887 41.4273 4.62887C40.9622 4.62887 40.6638 4.66458 40.5207 4.70077L40.5202 7.24471Z" fill="#C6C6C6"/>
<path d="M45.8529 3.68551C46.318 3.58901 47.1654 3.51855 47.9886 3.51855C49.0745 3.51855 49.7425 3.6498 50.291 4.03198C50.7923 4.33067 51.1263 4.85615 51.1263 5.53701C51.1263 6.27771 50.6612 6.95857 49.7903 7.2809V7.30503C50.6371 7.52024 51.4126 8.18904 51.4126 9.29984C51.418 9.61742 51.3509 9.93203 51.2165 10.2198C51.0821 10.5075 50.884 10.7607 50.6371 10.9603C50.0645 11.4621 49.1217 11.7125 47.6546 11.7125C47.0523 11.7149 46.4506 11.679 45.8529 11.6049V3.68551ZM47.3085 6.86254H48.0599C49.0721 6.86254 49.6466 6.38483 49.6466 5.70445C49.6447 4.94976 49.074 4.60234 48.1433 4.60234C47.7139 4.60234 47.4632 4.62646 47.308 4.66217L47.3085 6.86254ZM47.3085 10.5651C47.5661 10.5925 47.825 10.6044 48.084 10.6008C49.0263 10.6008 49.8616 10.2422 49.8616 9.24966C49.8616 8.31788 49.0504 7.93571 48.0363 7.93571H47.3085V10.5651Z" fill="#C6C6C6"/>
<path d="M58.4873 11.3878C58.1412 11.5668 57.3787 11.7463 56.4114 11.7463C53.8568 11.7463 52.3073 10.1457 52.3073 7.69732C52.3073 5.04336 54.1446 3.44519 56.6022 3.44519C57.5662 3.44519 58.2608 3.64834 58.5586 3.80372L58.2367 4.97435C57.7389 4.76278 57.2027 4.65696 56.662 4.6636C55.0276 4.6636 53.8462 5.69092 53.8462 7.6259C53.8462 9.39344 54.884 10.5284 56.65 10.5284C57.2467 10.5284 57.867 10.4087 58.2487 10.2297L58.4873 11.3878Z" fill="#C6C6C6"/>
<path d="M63.6774 3.57599V11.6267H62.2097V3.57599H63.6774Z" fill="#C6C6C6"/>
<path d="M65.3716 7.54155C65.3716 6.87275 65.3595 6.31107 65.3234 5.80972H66.6108L66.6826 6.68166H66.7182C66.9689 6.22759 67.6012 5.67847 68.5676 5.67847C69.5798 5.67847 70.6315 6.3352 70.6315 8.17464V11.6267H69.1653V8.34208C69.1653 7.50584 68.8549 6.87275 68.0567 6.87275C67.4721 6.87275 67.0667 7.29063 66.9115 7.73263C66.866 7.88759 66.8458 8.04892 66.8517 8.21034V11.6262H65.3725L65.3716 7.54155Z" fill="#C6C6C6"/>
<path d="M72.9353 5.80872L73.8781 8.75895C74.0449 9.27237 74.1644 9.73851 74.2719 10.2162H74.3075C74.415 9.73851 74.5485 9.28444 74.7013 8.75895L75.62 5.80872H77.171L74.9539 11.6257H73.5079L71.3486 5.80872H72.9353Z" fill="#C6C6C6"/>
<path d="M78.9496 9.1301C78.9853 10.1811 79.8085 10.6351 80.7393 10.6351C81.4193 10.6351 81.9086 10.5386 82.3501 10.3722L82.565 11.3855C82.0638 11.5886 81.3721 11.744 80.5368 11.744C78.6518 11.744 77.5422 10.5859 77.5422 8.80583C77.5422 7.19319 78.5207 5.67657 80.3816 5.67657C82.2667 5.67657 82.888 7.22938 82.888 8.50714C82.8897 8.71515 82.8736 8.92293 82.8398 9.12817L78.9496 9.1301ZM81.5042 8.10278C81.5162 7.56523 81.2776 6.68122 80.2992 6.68122C79.3926 6.68122 79.0109 7.50539 78.9496 8.10278H81.5042Z" fill="#C6C6C6"/>
<path d="M83.9955 10.2771C84.3295 10.4802 84.9595 10.6949 85.4868 10.6949C86.1312 10.6949 86.4175 10.4319 86.4175 10.0498C86.4175 9.65554 86.1765 9.4524 85.4632 9.20196C84.3295 8.80773 83.8524 8.18863 83.8644 7.50584C83.8644 6.47851 84.7113 5.67847 86.0594 5.67847C86.7038 5.67847 87.2643 5.84542 87.5984 6.02493L87.3121 7.06335C86.9363 6.85194 86.514 6.73706 86.083 6.72895C85.5581 6.72895 85.2718 6.97987 85.2718 7.33792C85.2718 7.70802 85.5461 7.88753 86.284 8.15003C87.3338 8.5322 87.823 9.06974 87.835 9.92963C87.835 10.9806 87.0118 11.7454 85.4733 11.7454C84.7696 11.7454 84.1372 11.578 83.7078 11.3391L83.9955 10.2771Z" fill="#C6C6C6"/>
<path d="M90.7241 4.14972V5.80868H92.1218V6.90742H90.7241V9.47597C90.7241 10.1805 90.9169 10.5511 91.4755 10.5511C91.6687 10.5527 91.8613 10.5286 92.0481 10.4792L92.0722 11.602C91.8572 11.6855 91.4755 11.7468 91.0118 11.7468C90.4749 11.7468 90.0218 11.5678 89.7471 11.2691C89.4367 10.9347 89.2935 10.4092 89.2935 9.64486V6.90839H88.4583V5.80868H89.2935V4.4957L90.7241 4.14972Z" fill="#C6C6C6"/>
<path d="M98.6821 8.66441C98.6821 10.8025 97.1788 11.758 95.6995 11.758C94.0531 11.758 92.7883 10.6235 92.7883 8.75995C92.7883 6.84862 94.0415 5.67847 95.795 5.67847C97.5248 5.67847 98.6821 6.89687 98.6821 8.66441ZM94.3037 8.72425C94.3037 9.84711 94.8527 10.6949 95.7497 10.6949C96.5849 10.6949 97.1696 9.87076 97.1696 8.70012C97.1696 7.79247 96.7638 6.75308 95.7617 6.75308C94.7211 6.75356 94.3032 7.75676 94.3032 8.72425H94.3037Z" fill="#C6C6C6"/>
<path d="M99.8871 7.68481C99.8871 6.89634 99.875 6.3337 99.8389 5.80967H101.116L101.164 6.9195H101.212C101.498 6.09533 102.176 5.67745 102.799 5.67745C102.915 5.67625 103.031 5.68823 103.145 5.71316V7.09852C103.004 7.06727 102.86 7.05109 102.715 7.05027C102.012 7.05027 101.535 7.50434 101.403 8.16011C101.373 8.3097 101.357 8.46167 101.355 8.61418V11.6242H99.8871V7.68481Z" fill="#C6C6C6"/>
<path d="M111.746 11.6266C111.543 11.4235 111.352 11.2203 111.114 10.9578C110.505 11.4712 109.764 11.7579 108.848 11.7579C107.071 11.7579 106.188 10.648 106.188 9.48993C106.188 8.41484 106.82 7.6505 107.739 7.16072V7.12501C107.357 6.67095 107.094 6.08563 107.094 5.51237C107.093 4.5058 107.856 3.44421 109.348 3.44421C110.481 3.44421 111.341 4.14872 111.341 5.24794C111.341 6.08418 110.864 6.76504 109.682 7.34988L109.67 7.39813C110.231 8.04328 110.851 8.75985 111.292 9.23757C111.639 8.70002 111.877 7.94774 112.02 7.09944H113.333C113.118 8.34149 112.748 9.35675 112.08 10.1216C112.521 10.6114 112.963 11.1011 113.463 11.6266H111.746ZM110.41 10.1336C109.921 9.62022 109.157 8.77192 108.406 7.89997C108.024 8.16295 107.583 8.58083 107.583 9.25108C107.583 10.0511 108.167 10.6726 109.062 10.6726C109.634 10.6712 110.112 10.4439 110.41 10.1336ZM108.417 5.36809C108.417 5.85787 108.644 6.2521 109.002 6.65792C109.682 6.22798 110.076 5.85787 110.076 5.29619C110.076 4.86625 109.835 4.38854 109.277 4.38854C108.719 4.38854 108.417 4.86625 108.417 5.36761V5.36809Z" fill="#C6C6C6"/>
<path d="M40.6036 17.1594H38.3127V15.929H44.3858V17.1594H42.0722V23.9796H40.6036V17.1594Z" fill="#C6C6C6"/>
<path d="M44.6721 20.0378C44.6721 19.2493 44.6601 18.6867 44.6239 18.1626H45.9007L45.9489 19.2725H45.9971C46.2834 18.4483 46.9611 18.0304 47.5838 18.0304C47.7001 18.0292 47.8162 18.0412 47.9299 18.0661V19.4515C47.7888 19.4202 47.6449 19.4041 47.5004 19.4032C46.7967 19.4032 46.3195 19.8573 46.188 20.5131C46.1582 20.6627 46.1421 20.8146 46.1398 20.9671V23.9772H44.6721V20.0378Z" fill="#C6C6C6"/>
<path d="M49.85 21.483C49.8857 22.534 50.7089 22.988 51.6397 22.988C52.3197 22.988 52.809 22.8915 53.2505 22.7251L53.4654 23.7384C52.9642 23.9415 52.2725 24.0969 51.4372 24.0969C49.5522 24.0969 48.4426 22.9388 48.4426 21.1587C48.4426 19.5461 49.4211 18.0295 51.282 18.0295C53.1671 18.0295 53.7883 19.5823 53.7883 20.86C53.7902 21.0681 53.774 21.2758 53.7402 21.4811L49.85 21.483ZM52.4046 20.4557C52.4166 19.9181 52.178 19.0341 51.1996 19.0341C50.293 19.0341 49.9112 19.8583 49.85 20.4557H52.4046Z" fill="#C6C6C6"/>
<path d="M58.2372 23.9796L58.1408 23.3345H58.1051C57.747 23.7886 57.1411 24.1109 56.3873 24.1109C55.218 24.1109 54.562 23.2631 54.562 22.3791C54.562 20.9097 55.8634 20.1695 58.0102 20.1816V20.0851C58.0102 19.7029 57.855 19.0717 56.8293 19.0717C56.2567 19.0717 55.66 19.2508 55.2662 19.5017L54.9799 18.5463C55.4093 18.2833 56.1612 18.0328 57.0799 18.0328C58.9409 18.0328 59.4778 19.2151 59.4778 20.4812V22.5832C59.4778 23.1087 59.5019 23.6226 59.5612 23.9825L58.2372 23.9796ZM58.0444 21.137C57.0062 21.1134 56.0162 21.3402 56.0162 22.2242C56.0162 22.7974 56.3859 23.0604 56.8515 23.0604C57.4361 23.0604 57.8636 22.6782 57.9967 22.2604C58.0293 22.1561 58.0455 22.0473 58.0449 21.938L58.0444 21.137Z" fill="#C6C6C6"/>
<path d="M60.9574 22.63C61.2914 22.8331 61.9214 23.0478 62.4487 23.0478C63.0931 23.0478 63.3794 22.7849 63.3794 22.4027C63.3794 22.0085 63.1384 21.8053 62.4251 21.5549C61.2914 21.1606 60.8143 20.5415 60.8263 19.8587C60.8263 18.8314 61.6732 18.0314 63.0213 18.0314C63.6657 18.0314 64.2263 18.1983 64.5603 18.3778L64.274 19.4163C63.8982 19.2049 63.4759 19.09 63.0449 19.0819C62.52 19.0819 62.2337 19.3328 62.2337 19.6908C62.2337 20.0609 62.508 20.2404 63.2459 20.5029C64.2957 20.8851 64.7849 21.4226 64.7969 22.2825C64.7969 23.3335 63.9737 24.0983 62.4352 24.0983C61.7315 24.0983 61.0991 23.9309 60.6697 23.692L60.9574 22.63Z" fill="#C6C6C6"/>
<path d="M71.2059 22.2358C71.2059 22.9287 71.23 23.5019 71.2541 23.9796H69.9658L69.894 23.0956H69.8699C69.6192 23.5135 69.0466 24.109 68.0089 24.109C66.9485 24.109 65.9807 23.4759 65.9807 21.5766V18.1617H67.4484V21.3266C67.4484 22.2917 67.7588 22.9152 68.5338 22.9152C69.1185 22.9152 69.4978 22.4973 69.6554 22.1267C69.7093 21.9813 69.7375 21.8277 69.7388 21.6726V18.1617H71.2064L71.2059 22.2358Z" fill="#C6C6C6"/>
<path d="M72.7927 20.0378C72.7927 19.2493 72.7807 18.6867 72.7445 18.1626H74.0213L74.0695 19.2725H74.1177C74.404 18.4483 75.0817 18.0304 75.7044 18.0304C75.8207 18.0292 75.9368 18.0412 76.0505 18.0661V19.4515C75.9094 19.4202 75.7655 19.4041 75.621 19.4032C74.9173 19.4032 74.4401 19.8573 74.3086 20.5131C74.2788 20.6627 74.2627 20.8146 74.2604 20.9671V23.9772H72.7927V20.0378Z" fill="#C6C6C6"/>
<path d="M78.2208 18.1617L79.2706 21.2789C79.3901 21.6374 79.5116 22.0789 79.5925 22.4138H79.6282C79.7246 22.0794 79.8311 21.6495 79.9386 21.2673L80.8457 18.1617H82.4199L80.9643 22.1272C80.1651 24.301 79.6282 25.2685 78.9361 25.8659C78.3635 26.3793 77.7668 26.5704 77.3971 26.6182L77.0631 25.3761C77.3725 25.2965 77.664 25.1586 77.922 24.9698C78.1962 24.7908 78.5187 24.4443 78.7211 24.0501C78.7809 23.9425 78.8175 23.8571 78.8175 23.7871C78.8133 23.6862 78.7847 23.5878 78.7341 23.5005L76.61 18.1617H78.2208Z" fill="#C6C6C6"/>
<path d="M85.7612 22.3791C86.3563 22.7099 87.0248 22.8858 87.7055 22.8905C88.6478 22.8905 89.1732 22.4485 89.1732 21.7918C89.1732 21.1828 88.7673 20.8267 87.7417 20.4542C86.4172 19.9765 85.5703 19.2715 85.5703 18.1129C85.5703 16.799 86.6678 15.7968 88.4097 15.7968C89.2806 15.7968 89.9251 15.9898 90.3425 16.2031L89.9843 17.3853C89.4906 17.1291 88.9417 16.9978 88.3856 17.0031C87.4549 17.0031 87.0495 17.5049 87.0495 17.9682C87.0495 18.5892 87.5146 18.8758 88.5885 19.2942C89.9863 19.8197 90.6644 20.5247 90.6644 21.6832C90.6644 22.9731 89.686 24.0959 87.6101 24.0959C86.7627 24.0959 85.8802 23.8547 85.4387 23.5941L85.7612 22.3791Z" fill="#C6C6C6"/>
<path d="M93.0385 21.483C93.0742 22.534 93.8974 22.988 94.8281 22.988C95.5082 22.988 95.9974 22.8915 96.4389 22.7251L96.6539 23.7384C96.1526 23.9415 95.461 24.0969 94.6257 24.0969C92.7406 24.0969 91.6311 22.9388 91.6311 21.1587C91.6311 19.5461 92.6095 18.0295 94.4705 18.0295C96.3555 18.0295 96.9768 19.5823 96.9768 20.86C96.9786 21.0681 96.9625 21.2758 96.9286 21.4811L93.0385 21.483ZM95.593 20.4557C95.6051 19.9181 95.3665 19.0341 94.3881 19.0341C93.4815 19.0341 93.0997 19.8583 93.0385 20.4557H95.593Z" fill="#C6C6C6"/>
<path d="M99.0518 18.1617L99.9941 21.1119C100.161 21.6253 100.28 22.0915 100.388 22.5692H100.424C100.531 22.0915 100.665 21.6374 100.817 21.1119L101.736 18.1617H103.287L101.07 23.9787H99.6239L97.4651 18.1617H99.0518Z" fill="#C6C6C6"/>
<path d="M105.745 16.5385C105.745 16.9805 105.423 17.3269 104.91 17.3269C104.42 17.3269 104.098 16.9805 104.098 16.5385C104.098 16.0844 104.432 15.7384 104.922 15.7384C105.423 15.7379 105.733 16.0868 105.745 16.5385ZM104.182 23.9797V18.1617H105.661V23.9797H104.182Z" fill="#C6C6C6"/>
<path d="M111.508 23.8006C111.197 23.9454 110.589 24.0993 109.861 24.0993C108.048 24.0993 106.866 22.9412 106.866 21.137C106.866 19.3931 108.059 18.0314 110.1 18.0314C110.637 18.0314 111.186 18.1506 111.52 18.3059L111.257 19.4047C110.909 19.2481 110.53 19.1706 110.148 19.1779C109.027 19.1779 108.359 20.0021 108.371 21.0651C108.371 22.2594 109.146 22.9402 110.148 22.9402C110.545 22.9456 110.939 22.8684 111.305 22.7134L111.508 23.8006Z" fill="#C6C6C6"/>
<path d="M113.524 21.483C113.56 22.534 114.383 22.988 115.313 22.988C115.994 22.988 116.483 22.8915 116.924 22.7251L117.139 23.7384C116.638 23.9415 115.946 24.0969 115.111 24.0969C113.226 24.0969 112.116 22.9388 112.116 21.1587C112.116 19.5461 113.095 18.0295 114.956 18.0295C116.841 18.0295 117.462 19.5823 117.462 20.86C117.464 21.0681 117.448 21.2758 117.414 21.4811L113.524 21.483ZM116.078 20.4557C116.09 19.9181 115.852 19.0341 114.873 19.0341C113.967 19.0341 113.585 19.8583 113.524 20.4557H116.078Z" fill="#C6C6C6"/>
<path d="M118.569 22.63C118.903 22.8331 119.533 23.0478 120.06 23.0478C120.705 23.0478 120.991 22.7849 120.991 22.4027C120.991 22.0085 120.75 21.8053 120.037 21.5549C118.903 21.1606 118.426 20.5415 118.438 19.8587C118.438 18.8314 119.285 18.0314 120.633 18.0314C121.277 18.0314 121.838 18.1983 122.172 18.3778L121.887 19.4163C121.511 19.2049 121.089 19.09 120.658 19.0819C120.133 19.0819 119.847 19.3328 119.847 19.6908C119.847 20.0609 120.121 20.2404 120.859 20.5029C121.909 20.8851 122.398 21.4226 122.41 22.2825C122.41 23.3335 121.587 24.0983 120.048 24.0983C119.345 24.0983 118.712 23.9309 118.283 23.692L118.569 22.63Z" fill="#C6C6C6"/>
</svg>
