<svg width="42" height="41" viewBox="0 0 42 41" fill="none" xmlns="http://www.w3.org/2000/svg">
<path d="M34.2373 34.1851C34.1777 34.2406 34.1199 34.2988 34.1199 34.2988C31.1346 37.1782 27.2062 39.0793 23.0586 39.6526C23.0586 39.6526 22.8263 39.6786 22.6274 39.7029C22.8325 39.5702 23.0849 39.4063 23.0849 39.4063C24.2208 38.6127 26.4033 36.8816 28.2562 34.2129C28.2562 34.2129 28.2658 34.199 28.2755 34.1851H34.2373ZM27.0703 34.1851C27.0309 34.238 26.9914 34.2901 26.9914 34.2901C25.2779 36.5563 23.3522 38.1131 22.0384 39.0203C22.0384 39.0203 21.2443 39.5381 20.9629 39.7194V34.1851H27.0703ZM20.0479 34.1851V39.7194C19.8761 39.6075 18.9733 39.0221 18.9716 39.0203C17.6586 38.1131 15.7338 36.5563 14.0203 34.2901C14.0203 34.2901 13.9808 34.238 13.9405 34.1851H20.0479ZM12.7354 34.1851C12.745 34.199 12.7555 34.2129 12.7555 34.2129C14.0965 36.1452 15.8381 37.8998 17.9294 39.4271C17.9312 39.4271 18.1336 39.5563 18.3098 39.6682C18.1135 39.6413 17.9093 39.6144 17.9093 39.6144C13.7302 39.0585 9.92008 37.2198 6.89094 34.2988C6.89094 34.2988 6.83309 34.2406 6.77437 34.1851H12.7354ZM38.7057 27.4402C38.689 27.4853 38.6706 27.5295 38.6706 27.5295C37.8467 29.6015 36.6731 31.5069 35.1813 33.1912C35.1813 33.1912 35.1708 33.2025 35.1611 33.2138H28.9074C28.9363 33.1643 28.9661 33.114 28.9661 33.114C30.0284 31.3447 30.7743 29.4532 31.1828 27.4931C31.1828 27.4931 31.1889 27.467 31.1942 27.4402H38.7057ZM30.1941 27.4402C30.1845 27.4792 30.1757 27.5199 30.1757 27.5199C29.741 29.4983 28.9311 31.4028 27.768 33.1843C27.768 33.1843 27.7583 33.1982 27.7487 33.2138H20.9629V27.4402H30.1941ZM20.0479 27.4402V33.2138H13.2621C13.2525 33.1982 13.2428 33.1843 13.2428 33.1843C12.0806 31.4028 11.2707 29.4983 10.836 27.5199C10.836 27.5199 10.8272 27.4792 10.8176 27.4402H20.0479ZM9.81665 27.4402C9.82191 27.467 9.82805 27.4931 9.82805 27.4931C10.2365 29.4532 10.9815 31.3447 12.0447 33.114C12.0447 33.114 12.0745 33.1643 12.1043 33.2138H5.85055C5.84091 33.2025 5.83039 33.1912 5.83039 33.1912C4.33773 31.5069 3.16412 29.6015 2.3411 27.5295L2.30516 27.4402H9.81665ZM39.0571 14.4974C39.065 14.5209 39.072 14.5434 39.072 14.5434C39.7005 16.4575 40.0213 18.461 40.0256 20.4966C40.0213 22.5434 39.6978 24.5564 39.0615 26.4801C39.0615 26.4801 39.0545 26.5035 39.0475 26.526H1.9607C1.95281 26.5035 1.9458 26.4801 1.9458 26.4801C1.31035 24.5564 0.986923 22.5434 0.98254 20.4966C0.986923 18.4619 1.30772 16.4584 1.93616 14.5434C1.93616 14.5434 1.94317 14.5209 1.95106 14.4974H39.0571ZM35.1611 7.75159C35.1708 7.76287 35.1813 7.77414 35.1813 7.77414C36.6731 9.45931 37.8485 11.3639 38.6706 13.435C38.6706 13.435 38.689 13.4801 38.7057 13.5252H31.1942C31.1889 13.4992 31.1828 13.4732 31.1828 13.4732C30.7743 11.5122 30.0284 9.62149 28.9661 7.85133C28.9661 7.85133 28.9363 7.80103 28.9074 7.75159H35.1611ZM27.7487 7.75159C27.7583 7.76634 27.768 7.78195 27.768 7.78195C28.9311 9.56165 29.741 11.468 30.1757 13.4454C30.1757 13.4454 30.1845 13.4853 30.1941 13.5252H20.9629V7.75159H27.7487ZM20.0479 7.75159V13.5252H10.8176C10.8272 13.4853 10.836 13.4454 10.836 13.4454C11.2707 11.468 12.0806 9.56165 13.2428 7.78195C13.2428 7.78195 13.2525 7.76634 13.2621 7.75159H20.0479ZM12.1043 7.75159C12.0745 7.80103 12.0447 7.85133 12.0447 7.85133C10.9815 9.62149 10.2365 11.5122 9.82805 13.4732C9.82805 13.4732 9.82191 13.4992 9.81665 13.5252H2.30516C2.32269 13.4801 2.3411 13.435 2.3411 13.435C3.16412 11.3639 4.33773 9.45931 5.83039 7.77414C5.83039 7.77414 5.84091 7.76287 5.85055 7.75159H12.1043ZM28.2562 6.75246C26.9152 4.82012 25.1745 3.06644 23.0823 1.53826C23.0797 1.53739 22.8772 1.40904 22.7019 1.29715C22.8973 1.32404 23.1024 1.35092 23.1024 1.35092C27.2807 1.90599 31.0916 3.74467 34.1199 6.66747C34.1199 6.66747 34.1777 6.72384 34.2373 6.78022H28.2755C28.2658 6.76634 28.2562 6.75246 28.2562 6.75246ZM20.9629 1.24685C21.1356 1.35786 22.041 1.94589 22.041 1.94589C23.3522 2.85222 25.2779 4.40989 26.9914 6.67527C26.9914 6.67527 27.0309 6.72818 27.0703 6.78022H20.9629V1.24685ZM14.0203 6.67527C15.7338 4.40989 17.6595 2.85222 18.9724 1.94416C18.9724 1.94416 19.7674 1.42811 20.0479 1.24685V6.78022H13.9405C13.9808 6.72818 14.0203 6.67527 14.0203 6.67527ZM6.89094 6.66747C9.87625 3.78717 13.8047 1.88605 17.9522 1.31363C17.9522 1.31363 18.1845 1.28588 18.3843 1.26246C18.1792 1.39602 17.9285 1.55821 17.9285 1.55821C16.79 2.35352 14.6075 4.08465 12.7555 6.75246C12.7555 6.75246 12.745 6.76634 12.7354 6.78022H6.77437C6.83309 6.72384 6.89094 6.66747 6.89094 6.66747ZM20.3696 0.211292C9.13738 0.283279 0 9.38385 0 20.4966C0 31.6838 9.19785 40.7879 20.5037 40.7888C31.8086 40.7879 41.0073 31.6838 41.0073 20.4966C41.0073 9.38385 31.8699 0.283279 20.6369 0.211292H20.3696Z" fill="#C6C6C6"/>
<path d="M24.4428 16.3665C24.023 16.5026 23.9099 17.0169 23.6365 17.9059L22.1429 23.0325C21.8546 24.0542 21.8607 24.3578 22.0281 24.5772L22.0299 24.6778H19.5319L19.531 24.5772C19.9245 24.3846 20.0052 24.1088 20.3128 23.1019L21.8064 17.9961C22.0903 16.9979 22.1596 16.6327 21.9449 16.3699V16.2702L24.4411 16.2693L24.4428 16.3665Z" fill="#C6C6C6"/>
<path d="M3.20612 22.536C3.35951 23.7338 4.00285 24.3296 5.39208 24.2472C6.36323 24.19 6.85494 23.5048 6.85932 22.7763C6.8637 22.1752 6.48857 21.6679 5.80316 21.1856L5.39909 20.922C4.55153 20.3331 3.79249 19.7095 3.79951 18.6479C3.80915 17.1388 5.05464 16.1883 6.71645 16.1154C7.20028 16.0937 7.81031 16.1588 8.27748 16.2793C8.52114 16.3418 8.84982 16.4493 8.9848 16.4936L8.59301 17.9662L8.4817 17.968C8.26871 17.066 7.8778 16.5612 6.62004 16.6618C5.73567 16.7329 5.31846 17.4354 5.31495 18.0365C5.31057 18.6627 5.68658 19.0556 6.39917 19.51L6.80323 19.7607C7.73143 20.3591 8.5264 20.9914 8.51939 22.1093C8.50799 23.7832 7.18187 24.8352 5.23344 24.837C4.11066 24.837 3.07202 24.464 2.68286 24.1223C2.69951 23.9679 2.91513 23.255 3.10007 22.5412L3.20612 22.536Z" fill="#C6C6C6"/>
<path d="M31.7677 16.2688C31.6529 16.601 31.4469 17.2411 31.2821 17.7467H31.1813C30.7834 16.7233 29.8228 16.8577 29.1426 16.8577L29.0707 16.856C28.6001 16.856 28.4704 16.9626 28.3503 17.3972L27.5921 20.1222H27.8472C29.0015 20.1222 29.8079 20.2263 30.1374 19.7805H30.2391L29.7982 21.32H29.6983C29.4818 20.6365 28.6684 20.7103 27.6535 20.7085H27.4124L26.7314 23.0277C26.4816 23.8932 26.3983 24.3382 26.6157 24.5697L26.6166 24.679L24.116 24.6833V24.5801C24.5516 24.4119 24.6401 24.0251 24.9302 23.0563L26.4316 17.9045C26.706 16.9679 26.7586 16.6365 26.5473 16.3685L26.5447 16.2688H31.7677Z" fill="#C6C6C6"/>
<path d="M38.6141 16.2694C38.4475 16.7472 38.3029 17.2182 38.1197 17.7472L38.0163 17.7464C37.6324 16.7351 36.5981 16.8565 36.1476 16.8565H36.0389L34.2378 23.0395C33.9976 23.9562 33.8994 24.3413 34.1273 24.5746L34.1256 24.6796H31.6828L31.6802 24.5746C32.1053 24.376 32.2034 23.9554 32.4769 23.0256L34.2851 16.8565H34.1063C33.5199 16.8565 32.5891 16.7672 31.9063 17.7472L31.7932 17.7464C31.9475 17.3188 32.1158 16.7967 32.3016 16.2694H38.6141Z" fill="#C6C6C6"/>
<path d="M20.7431 16.3722C20.3812 16.6254 20.1717 17.0469 19.7334 17.8561C18.9937 19.2195 16.3975 24.3071 16.2012 24.6818H15.2642L14.7462 19.3808H14.705L11.8004 24.6818H11.0255L10.3112 17.9108C10.2227 17.1163 10.1771 16.5977 9.91064 16.3644L9.91327 16.2681H12.3306L12.3297 16.3644C12.0361 16.6775 11.9634 17.0166 12.0326 17.8084L12.4367 21.8344H12.463L15.4939 16.3427H16.1749L16.6999 21.8457H16.7341C17.3888 20.6029 18.3153 18.8266 18.892 17.7043C19.3977 16.7217 19.2005 16.4988 19.133 16.3722V16.2664L20.7449 16.2698L20.7431 16.3722Z" fill="#C6C6C6"/>
</svg>
