<svg width="176" height="28" viewBox="0 0 176 28" fill="none" xmlns="http://www.w3.org/2000/svg">
<path d="M36.8837 13.2377C38.1478 11.8837 38.9237 10.0686 38.9237 8.07483C38.9237 3.89804 35.5245 0.5 31.3464 0.5H8.24748C4.06943 0.5 0.670303 3.89804 0.670303 8.07483C0.670303 10.0686 1.44612 11.8837 2.71023 13.2377C1.05476 14.6283 0 16.7116 0 19.0373V19.9253C0 24.102 3.39905 27.5 7.5771 27.5H32.0169C36.1948 27.5 39.594 24.102 39.594 19.9253V19.0373C39.594 16.7116 38.5392 14.6283 36.8837 13.2377ZM8.24748 4.68689H31.3464C33.2151 4.68689 34.7354 6.20672 34.7354 8.07483C34.7354 9.94293 33.2151 11.4626 31.3464 11.4626H25.6396V6.25977H21.4514V11.4626H18.1699V6.25977H13.9817V11.4626H8.24748C6.37878 11.4626 4.85853 9.94293 4.85853 8.07483C4.85853 6.20672 6.37878 4.68689 8.24748 4.68689ZM35.4057 19.9253C35.4057 21.7934 33.8854 23.3131 32.0169 23.3131H25.6396V17.2966H21.4514V23.3131H18.1699V17.2966H13.9817V23.3131H7.5771C5.70848 23.3131 4.18823 21.7934 4.18823 19.9253V19.0373C4.18823 17.1692 5.70848 15.6495 7.5771 15.6495H8.24748H31.3464H32.0169C33.8854 15.6495 35.4057 17.1692 35.4057 19.0373V19.9253Z" fill="white"/>
<path d="M51.1825 8.45536H60.1287C60.8006 8.45536 61.3811 8.53702 61.8702 8.70034C62.3594 8.86365 62.7631 9.0884 63.0813 9.37408C63.3996 9.66001 63.6383 9.99239 63.7973 10.3717C63.9565 10.7508 64.036 11.1563 64.036 11.5878C64.036 11.9729 63.9978 12.3053 63.9211 12.5855C63.8445 12.8654 63.7384 13.1046 63.6028 13.3029C63.4673 13.5012 63.3171 13.6615 63.152 13.7841C62.987 13.9067 62.8162 14.0086 62.6393 14.0903C62.8632 14.1605 63.0873 14.2683 63.3112 14.4142C63.5351 14.56 63.7355 14.7466 63.9123 14.974C64.0891 15.2015 64.2305 15.467 64.3366 15.7704C64.4427 16.0738 64.4957 16.4179 64.4957 16.803C64.4957 17.8763 64.1657 18.7221 63.5057 19.3404C62.8456 19.9587 61.826 20.2679 60.447 20.2679H51.1825V8.45536ZM53.5162 13.3204H59.7397C60.3291 13.3204 60.7947 13.2125 61.1365 12.9968C61.4783 12.7808 61.6492 12.3929 61.6492 11.8328C61.6492 11.3196 61.5049 10.9228 61.216 10.6429C60.9272 10.363 60.4175 10.2229 59.6867 10.2229H53.5162V13.3204ZM53.5162 18.4479H59.9519C60.7062 18.4479 61.2367 18.2963 61.5431 17.9929C61.8496 17.6895 62.0028 17.2695 62.0028 16.7328C62.0028 16.173 61.8201 15.7499 61.4548 15.4642C61.0893 15.1783 60.5708 15.0355 59.8989 15.0355H53.5162V18.4479Z" fill="white"/>
<path d="M65.885 8.45535H68.2542V18.3428H77.1828V20.2679H65.885V8.45535Z" fill="white"/>
<path d="M78.7385 18.7541C77.7013 17.7449 77.1827 16.2838 77.1827 14.3705C77.1827 12.4454 77.7013 10.9783 78.7385 9.96915C79.7758 8.96004 81.2963 8.45535 83.3001 8.45535H85.7223C87.7379 8.45535 89.2642 8.96004 90.3014 9.96915C91.3387 10.9783 91.8573 12.4454 91.8573 14.3705C91.8573 16.2838 91.3387 17.7449 90.3014 18.7541C89.2642 19.7632 87.7379 20.2679 85.7223 20.2679H83.3001C81.2963 20.2679 79.7758 19.7632 78.7385 18.7541ZM87.2958 18.2204C87.8263 18.0104 88.2505 17.7187 88.5688 17.3454C88.8871 16.972 89.114 16.5315 89.2495 16.0241C89.3851 15.5167 89.4528 14.9653 89.4528 14.3705C89.4528 13.7754 89.3851 13.2213 89.2495 12.7078C89.114 12.1947 88.8871 11.7542 88.5688 11.3866C88.2505 11.0192 87.8263 10.7303 87.2958 10.5203C86.7654 10.3105 86.1112 10.2054 85.3334 10.2054H83.5653C82.8227 10.2054 82.1951 10.3105 81.6823 10.5203C81.1696 10.7303 80.76 11.0192 80.4535 11.3866C80.1471 11.7542 79.9261 12.1947 79.7906 12.7078C79.655 13.2213 79.5872 13.7754 79.5872 14.3705C79.5872 14.9653 79.655 15.5167 79.7906 16.0241C79.9261 16.5315 80.1471 16.972 80.4535 17.3454C80.76 17.7187 81.1696 18.0104 81.6823 18.2204C82.1951 18.4304 82.8227 18.5353 83.5653 18.5353H85.3334C86.1112 18.5353 86.7654 18.4304 87.2958 18.2204Z" fill="white"/>
<path d="M94.2398 18.8242C93.3676 17.8616 92.9315 16.377 92.9315 14.3705C92.9315 12.3637 93.3676 10.8761 94.2398 9.90797C95.112 8.93956 96.3615 8.45535 97.988 8.45535H104.848V10.2753H98.3416C97.7758 10.2753 97.3015 10.363 96.9184 10.538C96.5353 10.7128 96.2229 10.9725 95.9813 11.3166C95.7397 11.6608 95.5687 12.0865 95.4686 12.5942C95.3684 13.1016 95.3183 13.6937 95.3183 14.3705C95.3183 15.712 95.5394 16.7271 95.9813 17.4153C96.4233 18.1038 97.2101 18.4479 98.3416 18.4479H104.848V20.2679H97.988C96.3615 20.2679 95.112 19.7866 94.2398 18.8242Z" fill="white"/>
<path d="M109.398 14.9129H108.779V20.2679H106.445V8.45535H108.779V13.2854H109.416L115.798 8.45535H118.804L111.484 13.9504L119.193 20.2679H115.904L109.398 14.9129Z" fill="white"/>
<path d="M120.017 8.45535H128.964C129.635 8.45535 130.216 8.53701 130.705 8.70033C131.194 8.86364 131.598 9.08839 131.916 9.37407C132.234 9.66 132.473 9.99238 132.632 10.3717C132.791 10.7508 132.871 11.1563 132.871 11.5878C132.871 11.9729 132.833 12.3053 132.756 12.5855C132.679 12.8654 132.573 13.1046 132.438 13.3029C132.302 13.5012 132.152 13.6615 131.987 13.7841C131.822 13.9067 131.651 14.0086 131.474 14.0903C131.698 14.1605 131.922 14.2683 132.146 14.4142C132.37 14.56 132.57 14.7465 132.747 14.974C132.924 15.2015 133.065 15.467 133.171 15.7704C133.278 16.0738 133.331 16.4179 133.331 16.803C133.331 17.8763 133.001 18.7221 132.341 19.3404C131.681 19.9587 130.661 20.2679 129.282 20.2679H120.017V8.45535ZM122.351 13.3204H128.575C129.164 13.3204 129.629 13.2125 129.971 12.9968C130.313 12.7808 130.484 12.3929 130.484 11.8328C130.484 11.3196 130.34 10.9228 130.051 10.6429C129.762 10.363 129.252 10.2229 128.522 10.2229H122.351V13.3204ZM122.351 18.4479H128.787C129.541 18.4479 130.071 18.2963 130.378 17.9929C130.684 17.6895 130.838 17.2695 130.838 16.7328C130.838 16.1729 130.655 15.7499 130.29 15.4642C129.924 15.1783 129.406 15.0355 128.734 15.0355H122.351V18.4479Z" fill="white"/>
<path d="M137.008 20.0578C136.425 19.9177 135.95 19.705 135.585 19.4191C135.22 19.1334 134.955 18.7715 134.79 18.334C134.624 17.8965 134.542 17.3803 134.542 16.7853C134.542 16.1904 134.624 15.6653 134.79 15.2103C134.955 14.7553 135.22 14.3792 135.585 14.0815C135.95 13.7841 136.425 13.5596 137.008 13.4078C137.592 13.2562 138.302 13.1803 139.139 13.1803H144.761C144.726 12.2354 144.481 11.5149 144.027 11.0192C143.574 10.5233 142.804 10.2753 141.72 10.2753H134.842V8.45535H142.038C143.688 8.45535 144.953 8.87238 145.831 9.7067C146.709 10.5408 147.148 11.8388 147.148 13.6003V20.2679H139.139C138.302 20.2679 137.592 20.1979 137.008 20.0578ZM139.139 14.9129C138.738 14.9129 138.396 14.9363 138.113 14.9828C137.83 15.0295 137.601 15.1171 137.424 15.2455C137.247 15.3736 137.117 15.5516 137.035 15.7791C136.952 16.0066 136.911 16.2953 136.911 16.6454C136.911 17.3336 137.082 17.8061 137.424 18.0628C137.766 18.3195 138.337 18.4479 139.139 18.4479H144.761V14.9129H139.139Z" fill="white"/>
<path d="M159.284 12.1654C159.284 11.5938 159.083 11.1358 158.683 10.7917C158.282 10.4474 157.734 10.2753 157.038 10.2753H151.257V20.2679H148.888V8.45535H157.215C158.629 8.45535 159.72 8.75876 160.486 9.36533C161.252 9.97215 161.635 10.8529 161.635 12.0079V20.2679H159.284V12.1654Z" fill="white"/>
<path d="M166.205 14.9129H165.586V20.2679H163.252V8.45535H165.586V13.2854H166.223L172.605 8.45535H175.611L168.291 13.9504L176 20.2679H172.711L166.205 14.9129Z" fill="white"/>
</svg>
