<svg width="439" height="439" viewBox="0 0 439 439" fill="none" xmlns="http://www.w3.org/2000/svg">
<path d="M259.522 219.692L430.33 48.8783C441.446 37.7676 441.446 19.8031 430.33 8.6924C419.219 -2.4183 401.255 -2.4183 390.144 8.6924L219.331 179.506L48.5228 8.6924C37.4069 -2.4183 19.4476 -2.4183 8.33693 8.6924C-2.77897 19.8031 -2.77897 37.7676 8.33693 48.8783L179.145 219.692L8.33693 390.505C-2.77897 401.616 -2.77897 419.58 8.33693 430.691C13.8741 436.233 21.1546 439.017 28.4299 439.017C35.7051 439.017 42.9804 436.233 48.5228 430.691L219.331 259.877L390.144 430.691C395.687 436.233 402.962 439.017 410.237 439.017C417.512 439.017 424.788 436.233 430.33 430.691C441.446 419.58 441.446 401.616 430.33 390.505L259.522 219.692Z" fill="white"/>
</svg>
